<svg xmlns="http://www.w3.org/2000/svg" xmlns:xlink="http://www.w3.org/1999/xlink" width="500" zoomAndPan="magnify" viewBox="0 0 375 374.999991" height="500" preserveAspectRatio="xMidYMid meet" version="1.0"><defs><clipPath id="bed4cebf0a"><path d="M 112.5 112.5 L 262.5 112.5 L 262.5 262.5 L 112.5 262.5 Z M 112.5 112.5 " clip-rule="nonzero"/></clipPath><clipPath id="e12f5db383"><path d="M 253.265625 222.929688 C 255.882812 220.226562 257.5 216.550781 257.5 212.5 C 257.5 204.230469 250.769531 197.5 242.5 197.5 C 234.230469 197.5 227.5 204.230469 227.5 212.5 C 227.5 216.550781 229.117188 220.226562 231.734375 222.929688 C 226.421875 224.359375 222.5 229.214844 222.5 234.96875 L 222.5 254.660156 C 222.5 258.984375 226.015625 262.5 230.339844 262.5 L 254.660156 262.5 C 258.984375 262.5 262.5 258.984375 262.5 254.660156 L 262.5 234.96875 C 262.5 229.214844 258.578125 224.359375 253.265625 222.929688 Z M 242.5 233.964844 L 236.035156 227.5 L 248.964844 227.5 Z M 242.5 202.5 C 248.015625 202.5 252.5 206.984375 252.5 212.5 C 252.5 218.015625 248.015625 222.5 242.5 222.5 C 236.984375 222.5 232.5 218.015625 232.5 212.5 C 232.5 206.984375 236.984375 202.5 242.5 202.5 Z M 227.5 254.660156 L 227.5 234.96875 C 227.5 232.527344 228.679688 230.355469 230.496094 228.992188 C 230.570312 229.085938 230.644531 229.179688 230.730469 229.269531 L 240 238.535156 L 240 257.5 L 230.339844 257.5 C 228.773438 257.5 227.5 256.226562 227.5 254.660156 Z M 257.5 254.660156 C 257.5 256.226562 256.226562 257.5 254.660156 257.5 L 245 257.5 L 245 238.535156 L 254.269531 229.269531 C 254.355469 229.179688 254.429688 229.085938 254.503906 228.992188 C 256.320312 230.355469 257.5 232.527344 257.5 234.96875 Z M 143.265625 222.929688 C 145.882812 220.226562 147.5 216.550781 147.5 212.5 C 147.5 204.230469 140.769531 197.5 132.5 197.5 C 124.230469 197.5 117.5 204.230469 117.5 212.5 C 117.5 216.550781 119.117188 220.226562 121.734375 222.929688 C 116.421875 224.359375 112.5 229.214844 112.5 234.96875 L 112.5 254.660156 C 112.5 258.984375 116.015625 262.5 120.339844 262.5 L 144.660156 262.5 C 148.984375 262.5 152.5 258.984375 152.5 254.660156 L 152.5 234.96875 C 152.5 229.214844 148.578125 224.359375 143.265625 222.929688 Z M 132.5 233.964844 L 126.035156 227.5 L 138.964844 227.5 Z M 132.5 202.5 C 138.015625 202.5 142.5 206.984375 142.5 212.5 C 142.5 218.015625 138.015625 222.5 132.5 222.5 C 126.984375 222.5 122.5 218.015625 122.5 212.5 C 122.5 206.984375 126.984375 202.5 132.5 202.5 Z M 117.5 254.660156 L 117.5 234.96875 C 117.5 232.527344 118.679688 230.355469 120.496094 228.992188 C 120.570312 229.085938 120.644531 229.179688 120.730469 229.269531 L 130 238.535156 L 130 257.5 L 120.339844 257.5 C 118.773438 257.5 117.5 256.226562 117.5 254.660156 Z M 147.5 254.660156 C 147.5 256.226562 146.226562 257.5 144.660156 257.5 L 135 257.5 L 135 238.535156 L 144.269531 229.269531 C 144.355469 229.179688 144.429688 229.085938 144.503906 228.992188 C 146.320312 230.355469 147.5 232.527344 147.5 234.96875 Z M 217.195312 241.8125 C 217.855469 243.027344 217.410156 244.542969 216.199219 245.207031 C 207.820312 249.777344 198.699219 252.222656 189.09375 252.476562 C 188.5625 252.492188 188.027344 252.5 187.496094 252.5 C 177.464844 252.5 167.574219 249.988281 158.804688 245.203125 C 157.589844 244.539062 157.144531 243.023438 157.804688 241.808594 C 158.46875 240.597656 159.988281 240.152344 161.199219 240.8125 C 169.664062 245.433594 179.261719 247.738281 188.960938 247.480469 C 197.769531 247.246094 206.125 245.003906 213.804688 240.816406 C 215.015625 240.15625 216.535156 240.601562 217.195312 241.8125 Z M 127.5 192.679688 C 127.417969 168.984375 141.351562 147.410156 162.988281 137.71875 C 164.25 137.152344 165.730469 137.71875 166.292969 138.976562 C 166.859375 140.238281 166.292969 141.714844 165.035156 142.28125 C 145.195312 151.164062 132.425781 170.941406 132.5 192.660156 C 132.503906 194.042969 131.390625 195.164062 130.007812 195.171875 C 130.007812 195.171875 130.003906 195.171875 130 195.171875 C 128.625 195.171875 127.503906 194.054688 127.5 192.679688 Z M 208.707031 138.976562 C 209.273438 137.71875 210.75 137.152344 212.011719 137.71875 C 233.652344 147.410156 247.582031 168.984375 247.5 192.679688 C 247.496094 194.058594 246.378906 195.171875 245 195.171875 C 244.996094 195.171875 244.996094 195.171875 244.992188 195.171875 C 243.609375 195.164062 242.496094 194.042969 242.5 192.664062 C 242.574219 170.941406 229.804688 151.167969 209.96875 142.28125 C 208.707031 141.71875 208.144531 140.238281 208.707031 138.976562 Z M 222.5 210.3125 L 222.5 197.1875 C 222.5 193.222656 219.277344 190 215.3125 190 L 212.5 190 L 212.5 187.1875 C 212.5 183.222656 209.277344 180 205.3125 180 L 189.476562 180 L 187.308594 177.5 L 199.660156 177.5 C 203.984375 177.5 207.5 173.984375 207.5 169.660156 L 207.5 149.96875 C 207.5 144.214844 203.578125 139.359375 198.265625 137.929688 C 200.882812 135.226562 202.5 131.550781 202.5 127.5 C 202.5 119.230469 195.769531 112.5 187.5 112.5 C 179.230469 112.5 172.5 119.230469 172.5 127.5 C 172.5 131.550781 174.117188 135.226562 176.734375 137.929688 C 171.421875 139.359375 167.5 144.214844 167.5 149.96875 L 167.5 169.660156 C 167.5 173.953125 170.96875 177.449219 175.25 177.496094 L 175.339844 180.242188 C 172.269531 181.058594 170 183.863281 170 187.1875 L 170 195 L 159.6875 195 C 155.722656 195 152.5 198.222656 152.5 202.1875 L 152.5 215.3125 C 152.5 218.460938 154.535156 221.140625 157.355469 222.113281 L 155.066406 231.933594 C 154.816406 233.003906 155.296875 234.113281 156.25 234.664062 C 156.640625 234.890625 157.070312 235 157.5 235 C 158.121094 235 158.734375 234.769531 159.210938 234.324219 L 171.820312 222.5 L 187.8125 222.5 C 191.011719 222.5 193.730469 220.398438 194.660156 217.5 L 203.179688 217.5 L 215.789062 229.324219 C 216.265625 229.769531 216.878906 230 217.5 230 C 217.929688 230 218.359375 229.890625 218.75 229.664062 C 219.703125 229.113281 220.183594 228.003906 219.933594 226.933594 L 217.644531 217.113281 C 220.464844 216.140625 222.5 213.460938 222.5 210.3125 Z M 195.03125 142.5 C 195.480469 142.5 195.917969 142.542969 196.347656 142.617188 L 187.5 151.464844 L 178.652344 142.617188 C 179.082031 142.542969 179.519531 142.5 179.96875 142.5 Z M 202.5 169.660156 C 202.5 171.226562 201.226562 172.5 199.660156 172.5 L 190 172.5 L 190 156.035156 L 200.800781 145.234375 C 201.863281 146.523438 202.5 148.175781 202.5 149.96875 Z M 187.5 117.5 C 193.015625 117.5 197.5 121.984375 197.5 127.5 C 197.5 133.015625 193.015625 137.5 187.5 137.5 C 181.984375 137.5 177.5 133.015625 177.5 127.5 C 177.5 121.984375 181.984375 117.5 187.5 117.5 Z M 172.5 169.660156 L 172.5 149.96875 C 172.5 148.175781 173.136719 146.523438 174.199219 145.234375 L 185 156.035156 L 185 172.5 L 182.976562 172.5 L 179.390625 168.363281 C 178.695312 167.5625 177.574219 167.285156 176.585938 167.671875 C 175.601562 168.058594 174.964844 169.023438 175 170.082031 L 175.082031 172.488281 C 173.636719 172.355469 172.5 171.136719 172.5 169.660156 Z M 175 187.1875 C 175 185.980469 175.980469 185 177.1875 185 L 177.917969 185 C 178.59375 185 179.242188 184.726562 179.714844 184.238281 C 180.183594 183.75 180.4375 183.09375 180.414062 182.417969 L 180.234375 176.972656 L 186.445312 184.136719 C 186.917969 184.683594 187.609375 185 188.332031 185 L 205.3125 185 C 206.519531 185 207.5 185.980469 207.5 187.1875 L 207.5 200.3125 C 207.5 201.519531 206.519531 202.5 205.3125 202.5 L 177.1875 202.5 C 175.980469 202.5 175 201.519531 175 200.3125 Z M 187.8125 217.5 L 170.832031 217.5 C 170.199219 217.5 169.585938 217.742188 169.125 218.175781 L 161.808594 225.035156 L 162.851562 220.566406 C 163.023438 219.824219 162.847656 219.042969 162.375 218.445312 C 161.902344 217.847656 161.179688 217.5 160.417969 217.5 L 159.6875 217.5 C 158.480469 217.5 157.5 216.519531 157.5 215.3125 L 157.5 202.1875 C 157.5 200.980469 158.480469 200 159.6875 200 L 170 200 L 170 200.3125 C 170 204.277344 173.222656 207.5 177.1875 207.5 L 190 207.5 L 190 215.3125 C 190 216.519531 189.019531 217.5 187.8125 217.5 Z M 217.5 210.3125 C 217.5 211.519531 216.519531 212.5 215.3125 212.5 L 214.582031 212.5 C 213.820312 212.5 213.097656 212.847656 212.625 213.445312 C 212.152344 214.042969 211.976562 214.824219 212.148438 215.566406 L 213.191406 220.035156 L 205.875 213.175781 C 205.414062 212.742188 204.800781 212.5 204.167969 212.5 L 195 212.5 L 195 207.5 L 205.3125 207.5 C 209.277344 207.5 212.5 204.277344 212.5 200.3125 L 212.5 195 L 215.3125 195 C 216.519531 195 217.5 195.980469 217.5 197.1875 Z M 160 205 C 160 203.621094 161.121094 202.5 162.5 202.5 L 167.5 202.5 C 168.878906 202.5 170 203.621094 170 205 C 170 206.378906 168.878906 207.5 167.5 207.5 L 162.5 207.5 C 161.121094 207.5 160 206.378906 160 205 Z M 187.5 212.5 C 187.5 213.878906 186.378906 215 185 215 L 162.5 215 C 161.121094 215 160 213.878906 160 212.5 C 160 211.121094 161.121094 210 162.5 210 L 185 210 C 186.378906 210 187.5 211.121094 187.5 212.5 Z M 187.5 190 C 187.5 188.621094 188.621094 187.5 190 187.5 L 202.5 187.5 C 203.878906 187.5 205 188.621094 205 190 C 205 191.378906 203.878906 192.5 202.5 192.5 L 190 192.5 C 188.621094 192.5 187.5 191.378906 187.5 190 Z M 177.5 197.5 C 177.5 196.121094 178.621094 195 180 195 L 202.5 195 C 203.878906 195 205 196.121094 205 197.5 C 205 198.878906 203.878906 200 202.5 200 L 180 200 C 178.621094 200 177.5 198.878906 177.5 197.5 Z M 177.5 197.5 " clip-rule="nonzero"/></clipPath><linearGradient x1="67.358508" gradientTransform="matrix(0.3125, 0, 0, 0.3125, 107.499994, 107.499997)" y1="547.358474" x2="547.358509" gradientUnits="userSpaceOnUse" y2="67.358496" id="472295900c"><stop stop-opacity="1" stop-color="rgb(36.898804%, 73.699951%, 89.7995%)" offset="0"/><stop stop-opacity="1" stop-color="rgb(36.912537%, 73.68927%, 89.7995%)" offset="0.015625"/><stop stop-opacity="1" stop-color="rgb(37.277222%, 73.406982%, 89.802551%)" offset="0.0195312"/><stop stop-opacity="1" stop-color="rgb(37.6297%, 73.135376%, 89.807129%)" offset="0.0234375"/><stop stop-opacity="1" stop-color="rgb(37.980652%, 72.86377%, 89.811707%)" offset="0.0273438"/><stop stop-opacity="1" stop-color="rgb(38.33313%, 72.593689%, 89.816284%)" offset="0.03125"/><stop stop-opacity="1" stop-color="rgb(38.685608%, 72.322083%, 89.819336%)" offset="0.0351562"/><stop stop-opacity="1" stop-color="rgb(39.038086%, 72.050476%, 89.823914%)" offset="0.0390625"/><stop stop-opacity="1" stop-color="rgb(39.389038%, 71.77887%, 89.826965%)" offset="0.0429688"/><stop stop-opacity="1" stop-color="rgb(39.741516%, 71.508789%, 89.831543%)" offset="0.046875"/><stop stop-opacity="1" stop-color="rgb(40.092468%, 71.237183%, 89.836121%)" offset="0.0507812"/><stop stop-opacity="1" stop-color="rgb(40.444946%, 70.965576%, 89.840698%)" offset="0.0546875"/><stop stop-opacity="1" stop-color="rgb(40.795898%, 70.69397%, 89.84375%)" offset="0.0585937"/><stop stop-opacity="1" stop-color="rgb(41.148376%, 70.422363%, 89.848328%)" offset="0.0625"/><stop stop-opacity="1" stop-color="rgb(41.500854%, 70.150757%, 89.851379%)" offset="0.0664062"/><stop stop-opacity="1" stop-color="rgb(41.853333%, 69.880676%, 89.855957%)" offset="0.0703125"/><stop stop-opacity="1" stop-color="rgb(42.204285%, 69.60907%, 89.860535%)" offset="0.0742188"/><stop stop-opacity="1" stop-color="rgb(42.556763%, 69.337463%, 89.865112%)" offset="0.078125"/><stop stop-opacity="1" stop-color="rgb(42.907715%, 69.065857%, 89.868164%)" offset="0.0820312"/><stop stop-opacity="1" stop-color="rgb(43.260193%, 68.79425%, 89.872742%)" offset="0.0859375"/><stop stop-opacity="1" stop-color="rgb(43.611145%, 68.522644%, 89.877319%)" offset="0.0898437"/><stop stop-opacity="1" stop-color="rgb(43.963623%, 68.252563%, 89.881897%)" offset="0.09375"/><stop stop-opacity="1" stop-color="rgb(44.316101%, 67.980957%, 89.884949%)" offset="0.0976562"/><stop stop-opacity="1" stop-color="rgb(44.668579%, 67.709351%, 89.889526%)" offset="0.101562"/><stop stop-opacity="1" stop-color="rgb(45.019531%, 67.437744%, 89.892578%)" offset="0.105469"/><stop stop-opacity="1" stop-color="rgb(45.372009%, 67.166138%, 89.897156%)" offset="0.109375"/><stop stop-opacity="1" stop-color="rgb(45.722961%, 66.894531%, 89.901733%)" offset="0.113281"/><stop stop-opacity="1" stop-color="rgb(46.075439%, 66.624451%, 89.906311%)" offset="0.117188"/><stop stop-opacity="1" stop-color="rgb(46.426392%, 66.352844%, 89.909363%)" offset="0.121094"/><stop stop-opacity="1" stop-color="rgb(46.77887%, 66.081238%, 89.91394%)" offset="0.125"/><stop stop-opacity="1" stop-color="rgb(47.131348%, 65.809631%, 89.916992%)" offset="0.128906"/><stop stop-opacity="1" stop-color="rgb(47.483826%, 65.539551%, 89.92157%)" offset="0.132812"/><stop stop-opacity="1" stop-color="rgb(47.834778%, 65.267944%, 89.926147%)" offset="0.136719"/><stop stop-opacity="1" stop-color="rgb(48.187256%, 64.996338%, 89.930725%)" offset="0.140625"/><stop stop-opacity="1" stop-color="rgb(48.538208%, 64.724731%, 89.933777%)" offset="0.144531"/><stop stop-opacity="1" stop-color="rgb(48.890686%, 64.453125%, 89.938354%)" offset="0.148438"/><stop stop-opacity="1" stop-color="rgb(49.241638%, 64.181519%, 89.941406%)" offset="0.152344"/><stop stop-opacity="1" stop-color="rgb(49.594116%, 63.911438%, 89.945984%)" offset="0.15625"/><stop stop-opacity="1" stop-color="rgb(49.945068%, 63.639832%, 89.950562%)" offset="0.160156"/><stop stop-opacity="1" stop-color="rgb(50.297546%, 63.368225%, 89.955139%)" offset="0.164062"/><stop stop-opacity="1" stop-color="rgb(50.650024%, 63.096619%, 89.958191%)" offset="0.167969"/><stop stop-opacity="1" stop-color="rgb(51.002502%, 62.825012%, 89.962769%)" offset="0.171875"/><stop stop-opacity="1" stop-color="rgb(51.353455%, 62.553406%, 89.96582%)" offset="0.175781"/><stop stop-opacity="1" stop-color="rgb(51.705933%, 62.283325%, 89.970398%)" offset="0.179688"/><stop stop-opacity="1" stop-color="rgb(52.056885%, 62.011719%, 89.974976%)" offset="0.183594"/><stop stop-opacity="1" stop-color="rgb(52.409363%, 61.740112%, 89.979553%)" offset="0.1875"/><stop stop-opacity="1" stop-color="rgb(52.760315%, 61.468506%, 89.982605%)" offset="0.191406"/><stop stop-opacity="1" stop-color="rgb(53.112793%, 61.198425%, 89.987183%)" offset="0.195312"/><stop stop-opacity="1" stop-color="rgb(53.465271%, 60.926819%, 89.990234%)" offset="0.199219"/><stop stop-opacity="1" stop-color="rgb(53.817749%, 60.655212%, 89.994812%)" offset="0.203125"/><stop stop-opacity="1" stop-color="rgb(54.168701%, 60.383606%, 89.99939%)" offset="0.207031"/><stop stop-opacity="1" stop-color="rgb(54.521179%, 60.112%, 90.003967%)" offset="0.210938"/><stop stop-opacity="1" stop-color="rgb(54.872131%, 59.840393%, 90.007019%)" offset="0.214844"/><stop stop-opacity="1" stop-color="rgb(55.224609%, 59.570312%, 90.011597%)" offset="0.21875"/><stop stop-opacity="1" stop-color="rgb(55.575562%, 59.298706%, 90.014648%)" offset="0.222656"/><stop stop-opacity="1" stop-color="rgb(55.92804%, 59.0271%, 90.019226%)" offset="0.226563"/><stop stop-opacity="1" stop-color="rgb(56.280518%, 58.755493%, 90.023804%)" offset="0.230469"/><stop stop-opacity="1" stop-color="rgb(56.632996%, 58.483887%, 90.028381%)" offset="0.234375"/><stop stop-opacity="1" stop-color="rgb(56.983948%, 58.21228%, 90.031433%)" offset="0.238281"/><stop stop-opacity="1" stop-color="rgb(57.336426%, 57.9422%, 90.036011%)" offset="0.242188"/><stop stop-opacity="1" stop-color="rgb(57.687378%, 57.670593%, 90.039062%)" offset="0.246094"/><stop stop-opacity="1" stop-color="rgb(58.039856%, 57.398987%, 90.04364%)" offset="0.25"/><stop stop-opacity="1" stop-color="rgb(58.390808%, 57.12738%, 90.048218%)" offset="0.253906"/><stop stop-opacity="1" stop-color="rgb(58.743286%, 56.8573%, 90.052795%)" offset="0.257812"/><stop stop-opacity="1" stop-color="rgb(59.095764%, 56.585693%, 90.055847%)" offset="0.261719"/><stop stop-opacity="1" stop-color="rgb(59.448242%, 56.314087%, 90.060425%)" offset="0.265625"/><stop stop-opacity="1" stop-color="rgb(59.799194%, 56.04248%, 90.065002%)" offset="0.269531"/><stop stop-opacity="1" stop-color="rgb(60.151672%, 55.770874%, 90.06958%)" offset="0.273438"/><stop stop-opacity="1" stop-color="rgb(60.502625%, 55.499268%, 90.072632%)" offset="0.277344"/><stop stop-opacity="1" stop-color="rgb(60.855103%, 55.229187%, 90.077209%)" offset="0.28125"/><stop stop-opacity="1" stop-color="rgb(61.206055%, 54.957581%, 90.080261%)" offset="0.285156"/><stop stop-opacity="1" stop-color="rgb(61.558533%, 54.685974%, 90.084839%)" offset="0.289063"/><stop stop-opacity="1" stop-color="rgb(61.911011%, 54.414368%, 90.089417%)" offset="0.292969"/><stop stop-opacity="1" stop-color="rgb(62.263489%, 54.142761%, 90.093994%)" offset="0.296875"/><stop stop-opacity="1" stop-color="rgb(62.614441%, 53.871155%, 90.097046%)" offset="0.300781"/><stop stop-opacity="1" stop-color="rgb(62.966919%, 53.601074%, 90.101624%)" offset="0.304688"/><stop stop-opacity="1" stop-color="rgb(63.317871%, 53.329468%, 90.104675%)" offset="0.308594"/><stop stop-opacity="1" stop-color="rgb(63.670349%, 53.057861%, 90.109253%)" offset="0.3125"/><stop stop-opacity="1" stop-color="rgb(64.021301%, 52.786255%, 90.113831%)" offset="0.316406"/><stop stop-opacity="1" stop-color="rgb(64.373779%, 52.516174%, 90.118408%)" offset="0.320312"/><stop stop-opacity="1" stop-color="rgb(64.726257%, 52.244568%, 90.12146%)" offset="0.324219"/><stop stop-opacity="1" stop-color="rgb(65.078735%, 51.972961%, 90.126038%)" offset="0.328125"/><stop stop-opacity="1" stop-color="rgb(65.429688%, 51.701355%, 90.129089%)" offset="0.332031"/><stop stop-opacity="1" stop-color="rgb(65.782166%, 51.429749%, 90.133667%)" offset="0.335938"/><stop stop-opacity="1" stop-color="rgb(66.133118%, 51.158142%, 90.138245%)" offset="0.339844"/><stop stop-opacity="1" stop-color="rgb(66.485596%, 50.888062%, 90.142822%)" offset="0.34375"/><stop stop-opacity="1" stop-color="rgb(66.836548%, 50.616455%, 90.145874%)" offset="0.347656"/><stop stop-opacity="1" stop-color="rgb(67.189026%, 50.344849%, 90.150452%)" offset="0.351562"/><stop stop-opacity="1" stop-color="rgb(67.541504%, 50.073242%, 90.153503%)" offset="0.355469"/><stop stop-opacity="1" stop-color="rgb(67.893982%, 49.801636%, 90.158081%)" offset="0.359375"/><stop stop-opacity="1" stop-color="rgb(68.244934%, 49.530029%, 90.162659%)" offset="0.363281"/><stop stop-opacity="1" stop-color="rgb(68.597412%, 49.259949%, 90.167236%)" offset="0.367187"/><stop stop-opacity="1" stop-color="rgb(68.948364%, 48.988342%, 90.170288%)" offset="0.371094"/><stop stop-opacity="1" stop-color="rgb(69.300842%, 48.716736%, 90.174866%)" offset="0.375"/><stop stop-opacity="1" stop-color="rgb(69.651794%, 48.445129%, 90.177917%)" offset="0.378906"/><stop stop-opacity="1" stop-color="rgb(70.004272%, 48.175049%, 90.182495%)" offset="0.382813"/><stop stop-opacity="1" stop-color="rgb(70.35675%, 47.903442%, 90.187073%)" offset="0.386719"/><stop stop-opacity="1" stop-color="rgb(70.709229%, 47.631836%, 90.19165%)" offset="0.390625"/><stop stop-opacity="1" stop-color="rgb(71.057129%, 47.363281%, 90.184021%)" offset="0.394531"/><stop stop-opacity="1" stop-color="rgb(71.406555%, 47.094727%, 90.177917%)" offset="0.398438"/><stop stop-opacity="1" stop-color="rgb(71.586609%, 46.974182%, 89.630127%)" offset="0.402344"/><stop stop-opacity="1" stop-color="rgb(71.766663%, 46.855164%, 89.083862%)" offset="0.40625"/><stop stop-opacity="1" stop-color="rgb(71.946716%, 46.736145%, 88.536072%)" offset="0.410156"/><stop stop-opacity="1" stop-color="rgb(72.128296%, 46.617126%, 87.988281%)" offset="0.414062"/><stop stop-opacity="1" stop-color="rgb(72.30835%, 46.496582%, 87.440491%)" offset="0.417969"/><stop stop-opacity="1" stop-color="rgb(72.488403%, 46.377563%, 86.8927%)" offset="0.421875"/><stop stop-opacity="1" stop-color="rgb(72.668457%, 46.257019%, 86.34491%)" offset="0.425781"/><stop stop-opacity="1" stop-color="rgb(72.850037%, 46.138%, 85.798645%)" offset="0.429688"/><stop stop-opacity="1" stop-color="rgb(73.03009%, 46.017456%, 85.250854%)" offset="0.433594"/><stop stop-opacity="1" stop-color="rgb(73.210144%, 45.898438%, 84.703064%)" offset="0.4375"/><stop stop-opacity="1" stop-color="rgb(73.390198%, 45.779419%, 84.155273%)" offset="0.441406"/><stop stop-opacity="1" stop-color="rgb(73.571777%, 45.6604%, 83.607483%)" offset="0.445313"/><stop stop-opacity="1" stop-color="rgb(73.751831%, 45.539856%, 83.059692%)" offset="0.449219"/><stop stop-opacity="1" stop-color="rgb(73.931885%, 45.420837%, 82.513428%)" offset="0.453125"/><stop stop-opacity="1" stop-color="rgb(74.111938%, 45.300293%, 81.965637%)" offset="0.457031"/><stop stop-opacity="1" stop-color="rgb(74.293518%, 45.181274%, 81.417847%)" offset="0.460938"/><stop stop-opacity="1" stop-color="rgb(74.473572%, 45.06073%, 80.870056%)" offset="0.464844"/><stop stop-opacity="1" stop-color="rgb(74.653625%, 44.941711%, 80.322266%)" offset="0.46875"/><stop stop-opacity="1" stop-color="rgb(74.833679%, 44.822693%, 79.774475%)" offset="0.472656"/><stop stop-opacity="1" stop-color="rgb(75.013733%, 44.703674%, 79.226685%)" offset="0.476562"/><stop stop-opacity="1" stop-color="rgb(75.193787%, 44.58313%, 78.678894%)" offset="0.480469"/><stop stop-opacity="1" stop-color="rgb(75.375366%, 44.464111%, 78.132629%)" offset="0.484375"/><stop stop-opacity="1" stop-color="rgb(75.55542%, 44.343567%, 77.584839%)" offset="0.488281"/><stop stop-opacity="1" stop-color="rgb(75.735474%, 44.224548%, 77.037048%)" offset="0.492188"/><stop stop-opacity="1" stop-color="rgb(75.915527%, 44.104004%, 76.489258%)" offset="0.496094"/><stop stop-opacity="1" stop-color="rgb(76.097107%, 43.984985%, 75.941467%)" offset="0.5"/><stop stop-opacity="1" stop-color="rgb(76.277161%, 43.865967%, 75.393677%)" offset="0.503906"/><stop stop-opacity="1" stop-color="rgb(76.457214%, 43.746948%, 74.847412%)" offset="0.507812"/><stop stop-opacity="1" stop-color="rgb(76.637268%, 43.626404%, 74.299622%)" offset="0.511719"/><stop stop-opacity="1" stop-color="rgb(76.818848%, 43.507385%, 73.751831%)" offset="0.515625"/><stop stop-opacity="1" stop-color="rgb(76.998901%, 43.386841%, 73.204041%)" offset="0.519531"/><stop stop-opacity="1" stop-color="rgb(77.178955%, 43.267822%, 72.65625%)" offset="0.523438"/><stop stop-opacity="1" stop-color="rgb(77.359009%, 43.147278%, 72.108459%)" offset="0.527344"/><stop stop-opacity="1" stop-color="rgb(77.540588%, 43.028259%, 71.562195%)" offset="0.53125"/><stop stop-opacity="1" stop-color="rgb(77.720642%, 42.909241%, 71.014404%)" offset="0.535156"/><stop stop-opacity="1" stop-color="rgb(77.900696%, 42.790222%, 70.466614%)" offset="0.539062"/><stop stop-opacity="1" stop-color="rgb(78.08075%, 42.669678%, 69.918823%)" offset="0.542969"/><stop stop-opacity="1" stop-color="rgb(78.262329%, 42.550659%, 69.371033%)" offset="0.546875"/><stop stop-opacity="1" stop-color="rgb(78.442383%, 42.430115%, 68.823242%)" offset="0.550781"/><stop stop-opacity="1" stop-color="rgb(78.622437%, 42.311096%, 68.275452%)" offset="0.554688"/><stop stop-opacity="1" stop-color="rgb(78.80249%, 42.190552%, 67.727661%)" offset="0.558594"/><stop stop-opacity="1" stop-color="rgb(78.98407%, 42.071533%, 67.181396%)" offset="0.5625"/><stop stop-opacity="1" stop-color="rgb(79.164124%, 41.952515%, 66.633606%)" offset="0.566406"/><stop stop-opacity="1" stop-color="rgb(79.344177%, 41.833496%, 66.085815%)" offset="0.570313"/><stop stop-opacity="1" stop-color="rgb(79.524231%, 41.712952%, 65.538025%)" offset="0.574219"/><stop stop-opacity="1" stop-color="rgb(79.705811%, 41.593933%, 64.990234%)" offset="0.578125"/><stop stop-opacity="1" stop-color="rgb(79.885864%, 41.473389%, 64.442444%)" offset="0.582031"/><stop stop-opacity="1" stop-color="rgb(80.065918%, 41.35437%, 63.896179%)" offset="0.585938"/><stop stop-opacity="1" stop-color="rgb(80.245972%, 41.235352%, 63.348389%)" offset="0.589844"/><stop stop-opacity="1" stop-color="rgb(80.427551%, 41.116333%, 62.800598%)" offset="0.59375"/><stop stop-opacity="1" stop-color="rgb(80.607605%, 40.995789%, 62.252808%)" offset="0.597656"/><stop stop-opacity="1" stop-color="rgb(80.787659%, 40.87677%, 61.705017%)" offset="0.601563"/><stop stop-opacity="1" stop-color="rgb(80.967712%, 40.756226%, 61.157227%)" offset="0.605469"/><stop stop-opacity="1" stop-color="rgb(81.149292%, 40.637207%, 60.609436%)" offset="0.609375"/><stop stop-opacity="1" stop-color="rgb(81.329346%, 40.516663%, 60.061646%)" offset="0.613281"/><stop stop-opacity="1" stop-color="rgb(81.509399%, 40.397644%, 59.515381%)" offset="0.617188"/><stop stop-opacity="1" stop-color="rgb(81.689453%, 40.278625%, 58.96759%)" offset="0.621094"/><stop stop-opacity="1" stop-color="rgb(81.871033%, 40.159607%, 58.4198%)" offset="0.625"/><stop stop-opacity="1" stop-color="rgb(82.051086%, 40.039062%, 57.872009%)" offset="0.628906"/><stop stop-opacity="1" stop-color="rgb(82.23114%, 39.920044%, 57.324219%)" offset="0.632812"/><stop stop-opacity="1" stop-color="rgb(82.411194%, 39.7995%, 56.776428%)" offset="0.636719"/><stop stop-opacity="1" stop-color="rgb(82.592773%, 39.680481%, 56.230164%)" offset="0.640625"/><stop stop-opacity="1" stop-color="rgb(82.772827%, 39.559937%, 55.682373%)" offset="0.644531"/><stop stop-opacity="1" stop-color="rgb(82.952881%, 39.440918%, 55.134583%)" offset="0.648438"/><stop stop-opacity="1" stop-color="rgb(83.132935%, 39.321899%, 54.586792%)" offset="0.652344"/><stop stop-opacity="1" stop-color="rgb(83.314514%, 39.202881%, 54.039001%)" offset="0.65625"/><stop stop-opacity="1" stop-color="rgb(83.494568%, 39.082336%, 53.491211%)" offset="0.660156"/><stop stop-opacity="1" stop-color="rgb(83.674622%, 38.963318%, 52.944946%)" offset="0.664062"/><stop stop-opacity="1" stop-color="rgb(83.854675%, 38.842773%, 52.397156%)" offset="0.667969"/><stop stop-opacity="1" stop-color="rgb(84.036255%, 38.723755%, 51.849365%)" offset="0.671875"/><stop stop-opacity="1" stop-color="rgb(84.216309%, 38.60321%, 51.301575%)" offset="0.675781"/><stop stop-opacity="1" stop-color="rgb(84.396362%, 38.484192%, 50.753784%)" offset="0.679688"/><stop stop-opacity="1" stop-color="rgb(84.576416%, 38.365173%, 50.205994%)" offset="0.683594"/><stop stop-opacity="1" stop-color="rgb(84.757996%, 38.246155%, 49.658203%)" offset="0.6875"/><stop stop-opacity="1" stop-color="rgb(84.938049%, 38.12561%, 49.110413%)" offset="0.691406"/><stop stop-opacity="1" stop-color="rgb(85.118103%, 38.006592%, 48.564148%)" offset="0.695312"/><stop stop-opacity="1" stop-color="rgb(85.298157%, 37.886047%, 48.016357%)" offset="0.699219"/><stop stop-opacity="1" stop-color="rgb(85.479736%, 37.767029%, 47.468567%)" offset="0.703125"/><stop stop-opacity="1" stop-color="rgb(85.65979%, 37.646484%, 46.920776%)" offset="0.707031"/><stop stop-opacity="1" stop-color="rgb(85.839844%, 37.527466%, 46.372986%)" offset="0.710938"/><stop stop-opacity="1" stop-color="rgb(86.019897%, 37.408447%, 45.825195%)" offset="0.714844"/><stop stop-opacity="1" stop-color="rgb(86.201477%, 37.289429%, 45.278931%)" offset="0.71875"/><stop stop-opacity="1" stop-color="rgb(86.381531%, 37.168884%, 44.73114%)" offset="0.722656"/><stop stop-opacity="1" stop-color="rgb(86.561584%, 37.049866%, 44.18335%)" offset="0.726562"/><stop stop-opacity="1" stop-color="rgb(86.741638%, 36.929321%, 43.635559%)" offset="0.730469"/><stop stop-opacity="1" stop-color="rgb(86.921692%, 36.810303%, 43.087769%)" offset="0.734375"/><stop stop-opacity="1" stop-color="rgb(87.101746%, 36.689758%, 42.539978%)" offset="0.738281"/><stop stop-opacity="1" stop-color="rgb(87.283325%, 36.57074%, 41.993713%)" offset="0.742187"/><stop stop-opacity="1" stop-color="rgb(87.463379%, 36.451721%, 41.445923%)" offset="0.746094"/><stop stop-opacity="1" stop-color="rgb(87.643433%, 36.332703%, 40.898132%)" offset="0.75"/><stop stop-opacity="1" stop-color="rgb(87.823486%, 36.212158%, 40.350342%)" offset="0.753906"/><stop stop-opacity="1" stop-color="rgb(88.005066%, 36.09314%, 39.802551%)" offset="0.757813"/><stop stop-opacity="1" stop-color="rgb(88.18512%, 35.972595%, 39.254761%)" offset="0.761719"/><stop stop-opacity="1" stop-color="rgb(88.365173%, 35.853577%, 38.70697%)" offset="0.765625"/><stop stop-opacity="1" stop-color="rgb(88.48114%, 35.775757%, 38.352966%)" offset="0.769531"/><stop stop-opacity="1" stop-color="rgb(88.598633%, 35.699463%, 37.998962%)" offset="0.773438"/><stop stop-opacity="1" stop-color="rgb(88.598633%, 35.699463%, 37.998962%)" offset="0.78125"/><stop stop-opacity="1" stop-color="rgb(88.598633%, 35.699463%, 37.998962%)" offset="0.8125"/><stop stop-opacity="1" stop-color="rgb(88.598633%, 35.699463%, 37.998962%)" offset="0.875"/><stop stop-opacity="1" stop-color="rgb(88.598633%, 35.699463%, 37.998962%)" offset="1"/></linearGradient></defs><rect x="-37.5" width="450" fill="#ffffff" y="-37.499999" height="449.999989" fill-opacity="1"/><rect x="-37.5" width="450" fill="#ffffff" y="-37.499999" height="449.999989" fill-opacity="1"/><g clip-path="url(#bed4cebf0a)"><g clip-path="url(#e12f5db383)"><path fill="url(#472295900c)" d="M 112.5 112.5 L 112.5 262.5 L 262.5 262.5 L 262.5 112.5 Z M 112.5 112.5 " fill-rule="nonzero"/></g></g></svg>