<svg xmlns="http://www.w3.org/2000/svg" xmlns:xlink="http://www.w3.org/1999/xlink" width="500" zoomAndPan="magnify" viewBox="0 0 375 374.999991" height="500" preserveAspectRatio="xMidYMid meet" version="1.0"><defs><clipPath id="034c761410"><path d="M 112.5 104.667969 L 262.5 104.667969 L 262.5 270.417969 L 112.5 270.417969 Z M 112.5 104.667969 " clip-rule="nonzero"/></clipPath><clipPath id="140c3c03b2"><path d="M 256.121094 139.515625 L 234.964844 139.515625 C 234.40625 139.515625 233.90625 139.871094 233.726562 140.398438 L 225.332031 164.589844 L 220.890625 164.589844 C 221.890625 160.6875 222.425781 156.664062 222.425781 152.589844 C 222.421875 126.167969 201.113281 104.667969 174.917969 104.667969 C 148.71875 104.667969 127.40625 126.167969 127.40625 152.589844 C 127.40625 156.660156 127.941406 160.683594 128.941406 164.589844 L 117.175781 164.589844 C 117 164.589844 116.828125 164.625 116.664062 164.691406 C 114.171875 165.742188 112.558594 168.175781 112.558594 170.898438 C 112.558594 173.382812 113.910156 175.617188 116.042969 176.785156 L 125.757812 216 L 125.757812 249.246094 C 122.324219 251.179688 119.996094 254.878906 119.996094 259.117188 C 119.996094 265.347656 125.023438 270.417969 131.207031 270.417969 C 137.390625 270.417969 142.421875 265.347656 142.421875 259.117188 C 142.421875 254.867188 140.082031 251.164062 136.636719 249.234375 L 136.636719 239.625 L 213.195312 239.625 L 213.195312 249.234375 C 209.75 251.164062 207.410156 254.867188 207.410156 259.117188 C 207.410156 265.347656 212.441406 270.417969 218.621094 270.417969 C 224.804688 270.417969 229.835938 265.347656 229.835938 259.117188 C 229.835938 254.878906 227.507812 251.179688 224.070312 249.246094 L 224.070312 216 L 233.914062 176.28125 L 242.851562 152.238281 L 256.121094 152.238281 C 259.605469 152.238281 262.4375 149.386719 262.4375 145.878906 C 262.4375 142.371094 259.605469 139.515625 256.121094 139.515625 Z M 130.035156 152.589844 C 130.035156 127.617188 150.167969 107.300781 174.917969 107.300781 C 199.664062 107.300781 219.796875 127.617188 219.796875 152.589844 C 219.796875 156.671875 219.234375 160.699219 218.179688 164.589844 L 175.695312 164.589844 L 202.609375 135.304688 C 203.097656 134.773438 203.066406 133.945312 202.539062 133.453125 L 195.28125 126.660156 C 195.023438 126.421875 194.679688 126.285156 194.332031 126.308594 C 193.984375 126.320312 193.652344 126.472656 193.414062 126.730469 L 165.359375 157.261719 L 158.46875 146.015625 C 158.285156 145.714844 157.992188 145.503906 157.648438 145.421875 C 157.308594 145.34375 156.949219 145.402344 156.652344 145.585938 L 148.234375 150.835938 C 147.621094 151.21875 147.433594 152.023438 147.808594 152.640625 L 155.132812 164.589844 L 131.652344 164.589844 C 130.597656 160.695312 130.035156 156.667969 130.035156 152.589844 Z M 158.214844 164.589844 L 150.730469 152.378906 L 156.917969 148.519531 L 164.027344 160.117188 C 164.242188 160.472656 164.609375 160.699219 165.023438 160.742188 C 165.429688 160.777344 165.835938 160.625 166.117188 160.324219 L 194.453125 129.488281 L 199.792969 134.484375 L 172.121094 164.589844 Z M 148.855469 177.207031 L 148.855469 187.894531 L 134.988281 187.894531 L 134.988281 177.207031 Z M 165.351562 177.207031 L 165.351562 187.894531 L 151.484375 187.894531 L 151.484375 177.207031 Z M 174.917969 177.207031 L 181.851562 177.207031 L 181.851562 187.894531 L 167.980469 187.894531 L 167.980469 177.207031 Z M 198.347656 177.207031 L 198.347656 187.894531 L 184.480469 187.894531 L 184.480469 177.207031 Z M 214.84375 177.207031 L 214.84375 187.894531 L 200.976562 187.894531 L 200.976562 177.207031 Z M 225.03125 201.207031 L 217.472656 201.207031 L 217.472656 190.523438 L 227.679688 190.523438 Z M 221.730469 214.523438 L 217.472656 214.523438 L 217.472656 203.839844 L 224.378906 203.839844 Z M 128.101562 214.523438 L 125.453125 203.839844 L 132.355469 203.839844 L 132.355469 214.523438 Z M 184.480469 214.523438 L 184.480469 203.839844 L 198.347656 203.839844 L 198.347656 214.523438 Z M 174.917969 214.523438 L 167.984375 214.523438 L 167.984375 203.839844 L 181.851562 203.839844 L 181.851562 214.523438 Z M 151.484375 214.523438 L 151.484375 203.839844 L 165.351562 203.839844 L 165.351562 214.523438 Z M 184.480469 201.207031 L 184.480469 190.523438 L 198.347656 190.523438 L 198.347656 201.207031 Z M 181.851562 201.207031 L 167.980469 201.207031 L 167.980469 190.523438 L 181.851562 190.523438 Z M 165.351562 201.207031 L 151.484375 201.207031 L 151.484375 190.523438 L 165.351562 190.523438 Z M 148.855469 201.207031 L 134.988281 201.207031 L 134.988281 190.523438 L 148.855469 190.523438 Z M 132.359375 201.207031 L 124.804688 201.207031 L 122.15625 190.523438 L 132.359375 190.523438 Z M 134.988281 203.839844 L 148.855469 203.839844 L 148.855469 214.523438 L 134.984375 214.523438 L 134.984375 203.839844 Z M 136.636719 217.15625 L 213.195312 217.15625 L 213.195312 228.671875 L 136.636719 228.671875 Z M 214.511719 214.523438 L 200.976562 214.523438 L 200.976562 203.839844 L 214.84375 203.839844 L 214.84375 214.523438 Z M 214.84375 201.207031 L 200.976562 201.207031 L 200.976562 190.523438 L 214.84375 190.523438 Z M 132.359375 187.894531 L 121.503906 187.894531 L 118.855469 177.207031 L 132.359375 177.207031 Z M 139.792969 259.117188 C 139.792969 263.898438 135.941406 267.789062 131.210938 267.789062 C 126.476562 267.789062 122.625 263.898438 122.625 259.117188 C 122.625 254.335938 126.476562 250.445312 131.210938 250.445312 C 135.941406 250.445312 139.792969 254.335938 139.792969 259.117188 Z M 227.207031 259.117188 C 227.207031 263.898438 223.355469 267.789062 218.625 267.789062 C 213.890625 267.789062 210.042969 263.898438 210.042969 259.117188 C 210.042969 254.335938 213.890625 250.445312 218.625 250.445312 C 223.355469 250.445312 227.207031 254.335938 227.207031 259.117188 Z M 218.625 247.8125 C 217.65625 247.8125 216.722656 247.949219 215.824219 248.183594 L 215.824219 238.308594 C 215.824219 237.582031 215.238281 236.996094 214.511719 236.996094 L 135.320312 236.996094 C 134.59375 236.996094 134.007812 237.582031 134.007812 238.308594 L 134.007812 248.183594 C 133.109375 247.953125 132.175781 247.8125 131.207031 247.8125 C 130.234375 247.8125 129.289062 247.953125 128.386719 248.191406 L 128.386719 217.15625 L 134.003906 217.15625 L 134.003906 229.988281 C 134.003906 230.714844 134.59375 231.304688 135.320312 231.304688 L 214.507812 231.304688 C 215.234375 231.304688 215.824219 230.714844 215.824219 229.988281 L 215.824219 217.15625 L 221.441406 217.15625 L 221.441406 248.191406 C 220.539062 247.953125 219.597656 247.8125 218.625 247.8125 Z M 228.328125 187.894531 L 217.472656 187.894531 L 217.472656 177.207031 L 230.976562 177.207031 Z M 241.9375 149.609375 C 241.386719 149.609375 240.898438 149.953125 240.703125 150.464844 L 231.742188 174.574219 L 117.484375 174.574219 C 116.085938 173.894531 115.191406 172.480469 115.191406 170.898438 C 115.191406 169.324219 116.074219 167.90625 117.460938 167.222656 L 172.753906 167.222656 C 172.753906 167.222656 172.753906 167.222656 172.757812 167.222656 L 226.265625 167.222656 C 226.828125 167.222656 227.324219 166.867188 227.507812 166.335938 L 235.902344 142.148438 L 244.472656 142.148438 L 244.472656 149.609375 Z M 256.121094 149.609375 L 247.101562 149.609375 L 247.101562 142.148438 L 256.121094 142.148438 C 258.15625 142.148438 259.808594 143.820312 259.808594 145.878906 C 259.808594 147.9375 258.15625 149.609375 256.121094 149.609375 Z M 125.933594 259.117188 C 125.933594 262.042969 128.300781 264.425781 131.210938 264.425781 C 134.117188 264.425781 136.484375 262.042969 136.484375 259.117188 C 136.484375 256.1875 134.117188 253.804688 131.210938 253.804688 C 128.300781 253.804688 125.933594 256.1875 125.933594 259.117188 Z M 133.851562 259.117188 C 133.851562 260.59375 132.667969 261.796875 131.207031 261.796875 C 129.75 261.796875 128.5625 260.59375 128.5625 259.117188 C 128.5625 257.640625 129.75 256.4375 131.207031 256.4375 C 132.667969 256.4375 133.851562 257.640625 133.851562 259.117188 Z M 213.347656 259.117188 C 213.347656 262.042969 215.714844 264.425781 218.625 264.425781 C 221.53125 264.425781 223.898438 262.042969 223.898438 259.117188 C 223.898438 256.1875 221.53125 253.804688 218.625 253.804688 C 215.714844 253.804688 213.347656 256.1875 213.347656 259.117188 Z M 221.269531 259.117188 C 221.269531 260.59375 220.082031 261.796875 218.625 261.796875 C 217.164062 261.796875 215.976562 260.59375 215.976562 259.117188 C 215.976562 257.640625 217.164062 256.4375 218.625 256.4375 C 220.082031 256.4375 221.269531 257.640625 221.269531 259.117188 Z M 221.269531 259.117188 " clip-rule="nonzero"/></clipPath><linearGradient x1="57" gradientTransform="matrix(1.314732, 0, 0, 1.315476, 112.560274, 104.668637)" y1="0.00000519873" x2="57" gradientUnits="userSpaceOnUse" y2="126.000001" id="63bc044f6b"><stop stop-opacity="1" stop-color="rgb(93.699646%, 79.598999%, 34.498596%)" offset="0"/><stop stop-opacity="1" stop-color="rgb(93.64624%, 79.420471%, 34.667969%)" offset="0.0078125"/><stop stop-opacity="1" stop-color="rgb(93.537903%, 79.064941%, 35.00824%)" offset="0.015625"/><stop stop-opacity="1" stop-color="rgb(93.431091%, 78.709412%, 35.348511%)" offset="0.0234375"/><stop stop-opacity="1" stop-color="rgb(93.32428%, 78.353882%, 35.688782%)" offset="0.03125"/><stop stop-opacity="1" stop-color="rgb(93.217468%, 77.998352%, 36.027527%)" offset="0.0390625"/><stop stop-opacity="1" stop-color="rgb(93.110657%, 77.642822%, 36.367798%)" offset="0.046875"/><stop stop-opacity="1" stop-color="rgb(93.003845%, 77.287292%, 36.708069%)" offset="0.0546875"/><stop stop-opacity="1" stop-color="rgb(92.897034%, 76.931763%, 37.046814%)" offset="0.0625"/><stop stop-opacity="1" stop-color="rgb(92.788696%, 76.577759%, 37.387085%)" offset="0.0703125"/><stop stop-opacity="1" stop-color="rgb(92.681885%, 76.222229%, 37.727356%)" offset="0.078125"/><stop stop-opacity="1" stop-color="rgb(92.575073%, 75.866699%, 38.067627%)" offset="0.0859375"/><stop stop-opacity="1" stop-color="rgb(92.468262%, 75.511169%, 38.406372%)" offset="0.09375"/><stop stop-opacity="1" stop-color="rgb(92.36145%, 75.15564%, 38.746643%)" offset="0.101562"/><stop stop-opacity="1" stop-color="rgb(92.254639%, 74.80011%, 39.086914%)" offset="0.109375"/><stop stop-opacity="1" stop-color="rgb(92.147827%, 74.44458%, 39.427185%)" offset="0.117188"/><stop stop-opacity="1" stop-color="rgb(92.03949%, 74.08905%, 39.76593%)" offset="0.125"/><stop stop-opacity="1" stop-color="rgb(91.932678%, 73.733521%, 40.106201%)" offset="0.132813"/><stop stop-opacity="1" stop-color="rgb(91.825867%, 73.377991%, 40.446472%)" offset="0.140625"/><stop stop-opacity="1" stop-color="rgb(91.719055%, 73.022461%, 40.785217%)" offset="0.148438"/><stop stop-opacity="1" stop-color="rgb(91.612244%, 72.666931%, 41.125488%)" offset="0.15625"/><stop stop-opacity="1" stop-color="rgb(91.505432%, 72.311401%, 41.465759%)" offset="0.164063"/><stop stop-opacity="1" stop-color="rgb(91.398621%, 71.955872%, 41.80603%)" offset="0.171875"/><stop stop-opacity="1" stop-color="rgb(91.290283%, 71.600342%, 42.144775%)" offset="0.179688"/><stop stop-opacity="1" stop-color="rgb(91.183472%, 71.244812%, 42.485046%)" offset="0.1875"/><stop stop-opacity="1" stop-color="rgb(91.07666%, 70.889282%, 42.825317%)" offset="0.195313"/><stop stop-opacity="1" stop-color="rgb(90.969849%, 70.533752%, 43.164062%)" offset="0.203125"/><stop stop-opacity="1" stop-color="rgb(90.863037%, 70.178223%, 43.504333%)" offset="0.210938"/><stop stop-opacity="1" stop-color="rgb(90.756226%, 69.822693%, 43.844604%)" offset="0.21875"/><stop stop-opacity="1" stop-color="rgb(90.649414%, 69.467163%, 44.184875%)" offset="0.226563"/><stop stop-opacity="1" stop-color="rgb(90.541077%, 69.111633%, 44.523621%)" offset="0.234375"/><stop stop-opacity="1" stop-color="rgb(90.434265%, 68.756104%, 44.863892%)" offset="0.242188"/><stop stop-opacity="1" stop-color="rgb(90.327454%, 68.400574%, 45.204163%)" offset="0.25"/><stop stop-opacity="1" stop-color="rgb(90.220642%, 68.045044%, 45.542908%)" offset="0.257813"/><stop stop-opacity="1" stop-color="rgb(90.113831%, 67.69104%, 45.883179%)" offset="0.265625"/><stop stop-opacity="1" stop-color="rgb(90.007019%, 67.33551%, 46.22345%)" offset="0.273438"/><stop stop-opacity="1" stop-color="rgb(89.900208%, 66.97998%, 46.563721%)" offset="0.28125"/><stop stop-opacity="1" stop-color="rgb(89.79187%, 66.624451%, 46.902466%)" offset="0.289063"/><stop stop-opacity="1" stop-color="rgb(89.685059%, 66.268921%, 47.242737%)" offset="0.296875"/><stop stop-opacity="1" stop-color="rgb(89.578247%, 65.913391%, 47.583008%)" offset="0.304688"/><stop stop-opacity="1" stop-color="rgb(89.471436%, 65.557861%, 47.923279%)" offset="0.3125"/><stop stop-opacity="1" stop-color="rgb(89.364624%, 65.202332%, 48.262024%)" offset="0.320313"/><stop stop-opacity="1" stop-color="rgb(89.257812%, 64.846802%, 48.602295%)" offset="0.328125"/><stop stop-opacity="1" stop-color="rgb(89.151001%, 64.491272%, 48.942566%)" offset="0.335938"/><stop stop-opacity="1" stop-color="rgb(89.042664%, 64.135742%, 49.281311%)" offset="0.34375"/><stop stop-opacity="1" stop-color="rgb(88.935852%, 63.780212%, 49.621582%)" offset="0.351562"/><stop stop-opacity="1" stop-color="rgb(88.829041%, 63.424683%, 49.961853%)" offset="0.359375"/><stop stop-opacity="1" stop-color="rgb(88.722229%, 63.069153%, 50.302124%)" offset="0.367188"/><stop stop-opacity="1" stop-color="rgb(88.615417%, 62.713623%, 50.640869%)" offset="0.375"/><stop stop-opacity="1" stop-color="rgb(88.508606%, 62.358093%, 50.98114%)" offset="0.382812"/><stop stop-opacity="1" stop-color="rgb(88.401794%, 62.002563%, 51.321411%)" offset="0.390625"/><stop stop-opacity="1" stop-color="rgb(88.293457%, 61.647034%, 51.660156%)" offset="0.398438"/><stop stop-opacity="1" stop-color="rgb(88.186646%, 61.291504%, 52.000427%)" offset="0.40625"/><stop stop-opacity="1" stop-color="rgb(88.079834%, 60.935974%, 52.340698%)" offset="0.414062"/><stop stop-opacity="1" stop-color="rgb(87.973022%, 60.580444%, 52.680969%)" offset="0.421875"/><stop stop-opacity="1" stop-color="rgb(87.866211%, 60.224915%, 53.019714%)" offset="0.429687"/><stop stop-opacity="1" stop-color="rgb(87.759399%, 59.869385%, 53.359985%)" offset="0.4375"/><stop stop-opacity="1" stop-color="rgb(87.652588%, 59.513855%, 53.700256%)" offset="0.445312"/><stop stop-opacity="1" stop-color="rgb(87.54425%, 59.158325%, 54.039001%)" offset="0.453125"/><stop stop-opacity="1" stop-color="rgb(87.437439%, 58.804321%, 54.379272%)" offset="0.460937"/><stop stop-opacity="1" stop-color="rgb(87.330627%, 58.448792%, 54.719543%)" offset="0.46875"/><stop stop-opacity="1" stop-color="rgb(87.223816%, 58.093262%, 55.059814%)" offset="0.476562"/><stop stop-opacity="1" stop-color="rgb(87.117004%, 57.737732%, 55.39856%)" offset="0.484375"/><stop stop-opacity="1" stop-color="rgb(87.010193%, 57.382202%, 55.738831%)" offset="0.492187"/><stop stop-opacity="1" stop-color="rgb(86.903381%, 57.026672%, 56.079102%)" offset="0.5"/><stop stop-opacity="1" stop-color="rgb(86.795044%, 56.671143%, 56.419373%)" offset="0.507812"/><stop stop-opacity="1" stop-color="rgb(86.688232%, 56.315613%, 56.758118%)" offset="0.515625"/><stop stop-opacity="1" stop-color="rgb(86.581421%, 55.960083%, 57.098389%)" offset="0.523438"/><stop stop-opacity="1" stop-color="rgb(86.474609%, 55.604553%, 57.43866%)" offset="0.53125"/><stop stop-opacity="1" stop-color="rgb(86.367798%, 55.249023%, 57.777405%)" offset="0.539062"/><stop stop-opacity="1" stop-color="rgb(86.260986%, 54.893494%, 58.117676%)" offset="0.546875"/><stop stop-opacity="1" stop-color="rgb(86.154175%, 54.537964%, 58.457947%)" offset="0.554688"/><stop stop-opacity="1" stop-color="rgb(86.045837%, 54.182434%, 58.798218%)" offset="0.5625"/><stop stop-opacity="1" stop-color="rgb(85.939026%, 53.826904%, 59.136963%)" offset="0.570313"/><stop stop-opacity="1" stop-color="rgb(85.832214%, 53.471375%, 59.477234%)" offset="0.578125"/><stop stop-opacity="1" stop-color="rgb(85.725403%, 53.115845%, 59.817505%)" offset="0.585938"/><stop stop-opacity="1" stop-color="rgb(85.618591%, 52.760315%, 60.15625%)" offset="0.59375"/><stop stop-opacity="1" stop-color="rgb(85.51178%, 52.404785%, 60.496521%)" offset="0.601562"/><stop stop-opacity="1" stop-color="rgb(85.403442%, 52.049255%, 60.836792%)" offset="0.609375"/><stop stop-opacity="1" stop-color="rgb(85.296631%, 51.693726%, 61.177063%)" offset="0.617188"/><stop stop-opacity="1" stop-color="rgb(85.189819%, 51.338196%, 61.515808%)" offset="0.625"/><stop stop-opacity="1" stop-color="rgb(85.083008%, 50.982666%, 61.856079%)" offset="0.632813"/><stop stop-opacity="1" stop-color="rgb(84.976196%, 50.627136%, 62.19635%)" offset="0.640625"/><stop stop-opacity="1" stop-color="rgb(84.869385%, 50.271606%, 62.535095%)" offset="0.648438"/><stop stop-opacity="1" stop-color="rgb(84.762573%, 49.917603%, 62.875366%)" offset="0.65625"/><stop stop-opacity="1" stop-color="rgb(84.654236%, 49.562073%, 63.215637%)" offset="0.664062"/><stop stop-opacity="1" stop-color="rgb(84.547424%, 49.206543%, 63.555908%)" offset="0.671875"/><stop stop-opacity="1" stop-color="rgb(84.440613%, 48.851013%, 63.894653%)" offset="0.679688"/><stop stop-opacity="1" stop-color="rgb(84.333801%, 48.495483%, 64.234924%)" offset="0.6875"/><stop stop-opacity="1" stop-color="rgb(84.22699%, 48.139954%, 64.575195%)" offset="0.695313"/><stop stop-opacity="1" stop-color="rgb(84.120178%, 47.784424%, 64.915466%)" offset="0.703125"/><stop stop-opacity="1" stop-color="rgb(84.013367%, 47.428894%, 65.254211%)" offset="0.710938"/><stop stop-opacity="1" stop-color="rgb(83.905029%, 47.073364%, 65.594482%)" offset="0.71875"/><stop stop-opacity="1" stop-color="rgb(83.798218%, 46.717834%, 65.934753%)" offset="0.726562"/><stop stop-opacity="1" stop-color="rgb(83.691406%, 46.362305%, 66.273499%)" offset="0.734375"/><stop stop-opacity="1" stop-color="rgb(83.584595%, 46.006775%, 66.61377%)" offset="0.742188"/><stop stop-opacity="1" stop-color="rgb(83.477783%, 45.651245%, 66.954041%)" offset="0.75"/><stop stop-opacity="1" stop-color="rgb(83.370972%, 45.295715%, 67.294312%)" offset="0.757812"/><stop stop-opacity="1" stop-color="rgb(83.26416%, 44.940186%, 67.633057%)" offset="0.765625"/><stop stop-opacity="1" stop-color="rgb(83.155823%, 44.584656%, 67.973328%)" offset="0.773438"/><stop stop-opacity="1" stop-color="rgb(83.049011%, 44.229126%, 68.313599%)" offset="0.78125"/><stop stop-opacity="1" stop-color="rgb(82.9422%, 43.873596%, 68.652344%)" offset="0.789062"/><stop stop-opacity="1" stop-color="rgb(82.835388%, 43.518066%, 68.992615%)" offset="0.796875"/><stop stop-opacity="1" stop-color="rgb(82.728577%, 43.162537%, 69.332886%)" offset="0.804687"/><stop stop-opacity="1" stop-color="rgb(82.621765%, 42.807007%, 69.673157%)" offset="0.8125"/><stop stop-opacity="1" stop-color="rgb(82.514954%, 42.451477%, 70.011902%)" offset="0.820312"/><stop stop-opacity="1" stop-color="rgb(82.406616%, 42.095947%, 70.352173%)" offset="0.828125"/><stop stop-opacity="1" stop-color="rgb(82.299805%, 41.740417%, 70.692444%)" offset="0.835938"/><stop stop-opacity="1" stop-color="rgb(82.192993%, 41.384888%, 71.031189%)" offset="0.84375"/><stop stop-opacity="1" stop-color="rgb(82.086182%, 41.030884%, 71.37146%)" offset="0.851562"/><stop stop-opacity="1" stop-color="rgb(81.97937%, 40.675354%, 71.711731%)" offset="0.859375"/><stop stop-opacity="1" stop-color="rgb(81.872559%, 40.319824%, 72.052002%)" offset="0.867187"/><stop stop-opacity="1" stop-color="rgb(81.765747%, 39.964294%, 72.390747%)" offset="0.875"/><stop stop-opacity="1" stop-color="rgb(81.65741%, 39.608765%, 72.731018%)" offset="0.882812"/><stop stop-opacity="1" stop-color="rgb(81.550598%, 39.253235%, 73.071289%)" offset="0.890625"/><stop stop-opacity="1" stop-color="rgb(81.443787%, 38.897705%, 73.41156%)" offset="0.898438"/><stop stop-opacity="1" stop-color="rgb(81.336975%, 38.542175%, 73.750305%)" offset="0.90625"/><stop stop-opacity="1" stop-color="rgb(81.230164%, 38.186646%, 74.090576%)" offset="0.914062"/><stop stop-opacity="1" stop-color="rgb(81.123352%, 37.831116%, 74.430847%)" offset="0.921875"/><stop stop-opacity="1" stop-color="rgb(81.016541%, 37.475586%, 74.769592%)" offset="0.929687"/><stop stop-opacity="1" stop-color="rgb(80.908203%, 37.120056%, 75.109863%)" offset="0.9375"/><stop stop-opacity="1" stop-color="rgb(80.801392%, 36.764526%, 75.450134%)" offset="0.945312"/><stop stop-opacity="1" stop-color="rgb(80.69458%, 36.408997%, 75.790405%)" offset="0.953125"/><stop stop-opacity="1" stop-color="rgb(80.587769%, 36.053467%, 76.12915%)" offset="0.960938"/><stop stop-opacity="1" stop-color="rgb(80.480957%, 35.697937%, 76.469421%)" offset="0.96875"/><stop stop-opacity="1" stop-color="rgb(80.374146%, 35.342407%, 76.809692%)" offset="0.976562"/><stop stop-opacity="1" stop-color="rgb(80.267334%, 34.986877%, 77.148438%)" offset="0.984375"/><stop stop-opacity="1" stop-color="rgb(80.158997%, 34.631348%, 77.488708%)" offset="0.992188"/><stop stop-opacity="1" stop-color="rgb(80.052185%, 34.275818%, 77.828979%)" offset="1"/></linearGradient></defs><rect x="-37.5" width="450" fill="#ffffff" y="-37.499999" height="449.999989" fill-opacity="1"/><rect x="-37.5" width="450" fill="#ffffff" y="-37.499999" height="449.999989" fill-opacity="1"/><g clip-path="url(#034c761410)"><g clip-path="url(#140c3c03b2)"><path fill="url(#63bc044f6b)" d="M 112.558594 104.667969 L 112.558594 270.417969 L 262.4375 270.417969 L 262.4375 104.667969 Z M 112.558594 104.667969 " fill-rule="nonzero"/></g></g></svg>