<svg xmlns="http://www.w3.org/2000/svg" xmlns:xlink="http://www.w3.org/1999/xlink" width="500" zoomAndPan="magnify" viewBox="0 0 375 374.999991" height="500" preserveAspectRatio="xMidYMid meet" version="1.0"><defs><clipPath id="a7b5b1aadd"><path d="M 130 112.5 L 245.316406 112.5 L 245.316406 262.5 L 130 262.5 Z M 130 112.5 " clip-rule="nonzero"/></clipPath><clipPath id="20c34606e4"><path d="M 245.128906 216.625 C 245.128906 196.347656 234.429688 182.871094 225.457031 175.136719 C 220.925781 171.234375 216.710938 168.652344 214.089844 167.226562 C 215.632812 166.222656 216.660156 164.492188 216.660156 162.519531 L 216.660156 162.253906 C 216.660156 159.945312 215.257812 157.960938 213.257812 157.09375 C 217.324219 153.402344 222.914062 152.339844 230.269531 153.855469 C 230.300781 153.859375 230.328125 153.855469 230.355469 153.859375 C 230.40625 153.863281 230.460938 153.878906 230.511719 153.878906 C 230.535156 153.878906 230.558594 153.871094 230.582031 153.867188 C 230.625 153.867188 230.664062 153.859375 230.703125 153.851562 C 230.773438 153.839844 230.839844 153.824219 230.910156 153.800781 C 230.949219 153.785156 230.988281 153.773438 231.023438 153.753906 C 231.089844 153.722656 231.148438 153.6875 231.207031 153.644531 C 231.238281 153.621094 231.273438 153.597656 231.304688 153.570312 C 231.359375 153.519531 231.410156 153.460938 231.457031 153.398438 C 231.476562 153.375 231.5 153.355469 231.515625 153.332031 C 231.519531 153.324219 231.519531 153.316406 231.523438 153.308594 C 231.53125 153.300781 231.539062 153.296875 231.542969 153.289062 C 231.554688 153.265625 231.554688 153.238281 231.566406 153.214844 C 231.617188 153.117188 231.65625 153.011719 231.675781 152.902344 C 231.683594 152.855469 231.6875 152.8125 231.691406 152.765625 C 231.699219 152.664062 231.6875 152.566406 231.671875 152.46875 C 231.664062 152.429688 231.660156 152.390625 231.648438 152.351562 C 231.613281 152.222656 231.558594 152.097656 231.472656 151.984375 C 231.472656 151.980469 231.46875 151.980469 231.46875 151.976562 C 231.464844 151.976562 231.464844 151.972656 231.464844 151.972656 C 225.914062 144.425781 219.160156 141.214844 211.367188 142.382812 C 212.238281 139.882812 212.882812 137.152344 213.300781 134.1875 C 213.304688 134.148438 213.289062 134.113281 213.292969 134.074219 C 213.296875 133.984375 213.289062 133.898438 213.273438 133.808594 C 213.261719 133.734375 213.242188 133.667969 213.214844 133.597656 C 213.199219 133.558594 213.203125 133.519531 213.183594 133.480469 C 213.160156 133.433594 213.117188 133.40625 213.085938 133.363281 C 213.0625 133.328125 213.054688 133.28125 213.027344 133.246094 C 213.003906 133.222656 212.972656 133.214844 212.953125 133.191406 C 212.886719 133.125 212.8125 133.074219 212.734375 133.027344 C 212.675781 132.988281 212.621094 132.953125 212.558594 132.929688 C 212.46875 132.894531 212.382812 132.878906 212.289062 132.867188 C 212.238281 132.859375 212.191406 132.832031 212.140625 132.832031 C 209.859375 132.800781 207.695312 132.921875 205.628906 133.183594 C 202.550781 125.847656 196.875 119.183594 188.292969 112.847656 C 187.871094 112.535156 187.296875 112.535156 186.878906 112.847656 C 175.785156 121.039062 169.421875 129.960938 167.453125 140.0625 C 164.851562 138.601562 161.890625 137.269531 158.554688 136.066406 C 158.546875 136.0625 158.535156 136.0625 158.523438 136.058594 C 158.503906 136.050781 158.480469 136.050781 158.460938 136.042969 C 158.34375 136.011719 158.222656 135.996094 158.101562 136.003906 C 158.078125 136.003906 158.054688 136 158.03125 136.003906 C 157.902344 136.015625 157.777344 136.054688 157.65625 136.109375 C 157.628906 136.121094 157.601562 136.136719 157.578125 136.148438 C 157.542969 136.167969 157.507812 136.179688 157.476562 136.203125 C 157.390625 136.261719 157.316406 136.332031 157.25 136.410156 C 157.25 136.410156 157.246094 136.410156 157.242188 136.414062 C 157.238281 136.421875 157.234375 136.429688 157.230469 136.4375 C 157.144531 136.542969 157.082031 136.660156 157.035156 136.789062 C 157.027344 136.808594 157.015625 136.828125 157.011719 136.847656 C 156.980469 136.949219 156.960938 137.054688 156.957031 137.160156 C 156.917969 139.183594 157.015625 141.101562 157.214844 142.941406 C 149.316406 140.742188 142.351562 144.515625 137.074219 148.175781 C 136.628906 148.484375 136.449219 149.054688 136.632812 149.5625 C 136.820312 150.070312 137.332031 150.390625 137.867188 150.335938 C 145.859375 149.570312 153.816406 151.917969 161.535156 157.300781 C 159.746094 158.242188 158.507812 160.097656 158.507812 162.253906 L 158.507812 162.519531 C 158.507812 164.492188 159.535156 166.222656 161.078125 167.226562 C 158.285156 168.75 153.671875 171.582031 148.804688 175.933594 C 140.246094 183.585938 130.042969 196.863281 130.042969 216.625 C 130.042969 234.214844 140.28125 244.851562 148.871094 250.679688 C 152.660156 253.246094 156.207031 254.953125 158.695312 255.988281 C 157.742188 256.535156 156.898438 257.273438 156.25 258.191406 L 154.519531 260.621094 C 154.261719 260.984375 154.226562 261.460938 154.429688 261.855469 C 154.636719 262.25 155.042969 262.5 155.488281 262.5 L 219.679688 262.5 C 220.125 262.5 220.535156 262.25 220.738281 261.855469 C 220.941406 261.460938 220.910156 260.984375 220.652344 260.621094 L 218.921875 258.191406 C 218.269531 257.273438 217.425781 256.535156 216.472656 255.988281 C 218.960938 254.953125 222.515625 253.246094 226.304688 250.671875 C 234.894531 244.847656 245.128906 234.210938 245.128906 216.625 Z M 210.640625 168.144531 C 211.507812 168.546875 215.109375 170.296875 219.589844 173.539062 L 155.578125 173.539062 C 160.066406 170.292969 163.667969 168.542969 164.53125 168.144531 Z M 200.9375 156.632812 C 202.917969 155.214844 204.664062 153.589844 206.183594 151.753906 C 212.054688 149.402344 217.75 149.097656 223.425781 150.839844 C 218.046875 151.03125 213.675781 152.96875 210.371094 156.628906 L 200.9375 156.628906 Z M 181.839844 156.632812 C 185.90625 143.5625 194.226562 136.570312 207.183594 135.402344 C 197.871094 141.035156 191.921875 148.023438 189.046875 156.632812 Z M 164.878906 156.632812 C 161.453125 152.125 159.648438 146.613281 159.386719 139.871094 C 165.4375 145.449219 169.003906 150.960938 170.214844 156.632812 Z M 172.640625 156.632812 C 171.605469 151.222656 168.667969 146 163.730469 140.808594 C 172.164062 144.890625 177.113281 150.109375 178.753906 156.632812 Z M 210.539062 136.210938 C 208.671875 145.839844 204.046875 152.539062 196.445312 156.632812 L 191.558594 156.632812 C 194.570312 148.304688 200.796875 141.59375 210.539062 136.210938 Z M 225.765625 149.136719 C 220.09375 147.046875 214.324219 146.8125 208.523438 148.445312 C 209.1875 147.355469 209.785156 146.207031 210.320312 144.996094 C 216.171875 143.703125 221.269531 145.058594 225.765625 149.136719 Z M 187.585938 115.292969 C 195.207031 121.050781 200.304688 127.050781 203.175781 133.574219 C 192.128906 135.699219 184.46875 142.433594 180.320312 153.699219 C 178.507812 148.890625 174.980469 144.800781 169.644531 141.375 C 171.253906 131.742188 177.125 123.195312 187.585938 115.292969 Z M 157.605469 145.574219 C 158.140625 148.488281 159.007812 151.167969 160.222656 153.621094 C 154.289062 150.019531 148.214844 148.066406 142.070312 147.835938 C 147.894531 144.570312 152.8125 143.886719 157.605469 145.574219 Z M 160.890625 162.253906 C 160.890625 160.464844 162.347656 159.011719 164.140625 159.011719 L 211.03125 159.011719 C 212.820312 159.011719 214.277344 160.464844 214.277344 162.253906 L 214.277344 162.519531 C 214.277344 164.308594 212.820312 165.765625 211.03125 165.765625 L 210.914062 165.765625 C 210.910156 165.765625 210.90625 165.765625 210.902344 165.765625 L 164.261719 165.765625 C 164.257812 165.765625 164.257812 165.765625 164.257812 165.765625 L 164.140625 165.765625 C 162.347656 165.765625 160.890625 164.308594 160.890625 162.519531 Z M 162.722656 254.945312 C 162.148438 254.765625 159.847656 254.003906 156.753906 252.492188 L 218.414062 252.492188 C 215.320312 254 213.023438 254.765625 212.449219 254.945312 Z M 216.980469 259.566406 L 217.375 260.121094 L 157.796875 260.121094 L 158.191406 259.566406 C 159.191406 258.164062 160.816406 257.324219 162.539062 257.324219 L 212.628906 257.324219 C 214.355469 257.324219 215.980469 258.164062 216.980469 259.566406 Z M 222.769531 250.113281 L 152.398438 250.113281 C 151.679688 249.675781 150.953125 249.214844 150.210938 248.710938 C 142.097656 243.207031 132.425781 233.171875 132.425781 216.625 C 132.425781 197.742188 142.199219 185.039062 150.394531 177.707031 C 151.101562 177.074219 151.804688 176.484375 152.496094 175.917969 L 222.683594 175.917969 C 223.085938 176.246094 223.492188 176.585938 223.898438 176.9375 C 232.496094 184.34375 242.746094 197.246094 242.746094 216.621094 C 242.746094 233.167969 233.078125 243.199219 224.96875 248.703125 C 224.226562 249.210938 223.492188 249.675781 222.769531 250.113281 Z M 206.476562 207.171875 L 192.429688 207.171875 L 192.429688 199.898438 L 199.429688 199.898438 C 203.15625 199.898438 206.1875 196.871094 206.1875 193.148438 C 206.1875 192.488281 205.65625 191.957031 205 191.957031 L 183.929688 191.957031 C 183.273438 191.957031 182.738281 192.488281 182.738281 193.148438 L 182.738281 207.171875 L 175.457031 207.171875 L 175.457031 200.183594 C 175.457031 196.460938 172.421875 193.433594 168.695312 193.433594 C 168.039062 193.433594 167.503906 193.964844 167.503906 194.621094 L 167.503906 215.664062 C 167.503906 216.324219 168.039062 216.855469 168.695312 216.855469 L 182.738281 216.855469 L 182.738281 224.128906 L 175.742188 224.128906 C 172.015625 224.128906 168.980469 227.15625 168.980469 230.878906 C 168.980469 231.539062 169.515625 232.070312 170.171875 232.070312 L 191.238281 232.070312 C 191.898438 232.070312 192.429688 231.539062 192.429688 230.878906 L 192.429688 216.855469 L 199.714844 216.855469 L 199.714844 223.84375 C 199.714844 227.566406 202.75 230.597656 206.476562 230.597656 C 207.132812 230.597656 207.667969 230.066406 207.667969 229.40625 L 207.667969 208.363281 C 207.664062 207.707031 207.132812 207.171875 206.476562 207.171875 Z M 205.285156 228.050781 C 203.449219 227.53125 202.097656 225.84375 202.097656 223.84375 L 202.097656 215.664062 C 202.097656 215.007812 201.5625 214.476562 200.90625 214.476562 L 191.238281 214.476562 C 190.582031 214.476562 190.050781 215.007812 190.050781 215.664062 L 190.050781 229.691406 L 171.527344 229.691406 C 172.046875 227.855469 173.738281 226.507812 175.742188 226.507812 L 183.929688 226.507812 C 184.589844 226.507812 185.121094 225.976562 185.121094 225.320312 L 185.121094 215.664062 C 185.121094 215.007812 184.589844 214.476562 183.929688 214.476562 L 169.886719 214.476562 L 169.886719 195.976562 C 171.722656 196.496094 173.074219 198.1875 173.074219 200.183594 L 173.074219 208.363281 C 173.074219 209.019531 173.609375 209.550781 174.265625 209.550781 L 183.929688 209.550781 C 184.589844 209.550781 185.121094 209.019531 185.121094 208.363281 L 185.121094 194.335938 L 203.644531 194.335938 C 203.121094 196.171875 201.429688 197.519531 199.429688 197.519531 L 191.238281 197.519531 C 190.582031 197.519531 190.050781 198.050781 190.050781 198.710938 L 190.050781 208.363281 C 190.050781 209.019531 190.582031 209.550781 191.238281 209.550781 L 205.285156 209.550781 Z M 196.054688 201.394531 C 197.238281 201.394531 198.199219 202.355469 198.199219 203.539062 C 198.199219 204.722656 197.238281 205.679688 196.054688 205.679688 C 194.867188 205.679688 193.90625 204.722656 193.90625 203.539062 C 193.90625 202.351562 194.867188 201.394531 196.054688 201.394531 Z M 176.949219 203.558594 C 176.949219 202.375 177.910156 201.414062 179.097656 201.414062 C 180.28125 201.414062 181.242188 202.375 181.242188 203.558594 C 181.242188 204.742188 180.28125 205.699219 179.097656 205.699219 C 177.910156 205.699219 176.949219 204.742188 176.949219 203.558594 Z M 179.117188 222.636719 C 177.933594 222.636719 176.972656 221.675781 176.972656 220.492188 C 176.972656 219.308594 177.933594 218.347656 179.117188 218.347656 C 180.304688 218.347656 181.265625 219.308594 181.265625 220.492188 C 181.265625 221.675781 180.304688 222.636719 179.117188 222.636719 Z M 198.21875 220.472656 C 198.21875 221.65625 197.257812 222.613281 196.074219 222.613281 C 194.890625 222.613281 193.929688 221.65625 193.929688 220.472656 C 193.929688 219.289062 194.890625 218.328125 196.074219 218.328125 C 197.257812 218.328125 198.21875 219.289062 198.21875 220.472656 Z M 198.21875 220.472656 " clip-rule="nonzero"/></clipPath><linearGradient x1="48.314999" gradientTransform="matrix(1.190982, 0, 0, 1.189532, 130.043748, 112.618957)" y1="-0.0690181" x2="48.314999" gradientUnits="userSpaceOnUse" y2="125.999981" id="b409541ae2"><stop stop-opacity="1" stop-color="rgb(93.699646%, 79.598999%, 34.498596%)" offset="0"/><stop stop-opacity="1" stop-color="rgb(93.649292%, 79.432678%, 34.657288%)" offset="0.0078125"/><stop stop-opacity="1" stop-color="rgb(93.545532%, 79.089355%, 34.985352%)" offset="0.015625"/><stop stop-opacity="1" stop-color="rgb(93.438721%, 78.733826%, 35.324097%)" offset="0.0234375"/><stop stop-opacity="1" stop-color="rgb(93.331909%, 78.378296%, 35.664368%)" offset="0.03125"/><stop stop-opacity="1" stop-color="rgb(93.225098%, 78.022766%, 36.004639%)" offset="0.0390625"/><stop stop-opacity="1" stop-color="rgb(93.118286%, 77.667236%, 36.34491%)" offset="0.046875"/><stop stop-opacity="1" stop-color="rgb(93.009949%, 77.311707%, 36.685181%)" offset="0.0546875"/><stop stop-opacity="1" stop-color="rgb(92.903137%, 76.956177%, 37.025452%)" offset="0.0625"/><stop stop-opacity="1" stop-color="rgb(92.796326%, 76.600647%, 37.365723%)" offset="0.0703125"/><stop stop-opacity="1" stop-color="rgb(92.689514%, 76.245117%, 37.704468%)" offset="0.078125"/><stop stop-opacity="1" stop-color="rgb(92.582703%, 75.889587%, 38.044739%)" offset="0.0859375"/><stop stop-opacity="1" stop-color="rgb(92.474365%, 75.534058%, 38.38501%)" offset="0.09375"/><stop stop-opacity="1" stop-color="rgb(92.367554%, 75.177002%, 38.725281%)" offset="0.101562"/><stop stop-opacity="1" stop-color="rgb(92.260742%, 74.821472%, 39.065552%)" offset="0.109375"/><stop stop-opacity="1" stop-color="rgb(92.153931%, 74.465942%, 39.405823%)" offset="0.117188"/><stop stop-opacity="1" stop-color="rgb(92.047119%, 74.110413%, 39.744568%)" offset="0.125"/><stop stop-opacity="1" stop-color="rgb(91.940308%, 73.754883%, 40.084839%)" offset="0.132812"/><stop stop-opacity="1" stop-color="rgb(91.83197%, 73.399353%, 40.42511%)" offset="0.140625"/><stop stop-opacity="1" stop-color="rgb(91.725159%, 73.043823%, 40.765381%)" offset="0.148438"/><stop stop-opacity="1" stop-color="rgb(91.618347%, 72.688293%, 41.105652%)" offset="0.15625"/><stop stop-opacity="1" stop-color="rgb(91.511536%, 72.332764%, 41.445923%)" offset="0.164063"/><stop stop-opacity="1" stop-color="rgb(91.404724%, 71.977234%, 41.784668%)" offset="0.171875"/><stop stop-opacity="1" stop-color="rgb(91.296387%, 71.621704%, 42.124939%)" offset="0.179688"/><stop stop-opacity="1" stop-color="rgb(91.189575%, 71.264648%, 42.46521%)" offset="0.1875"/><stop stop-opacity="1" stop-color="rgb(91.082764%, 70.909119%, 42.805481%)" offset="0.195312"/><stop stop-opacity="1" stop-color="rgb(90.975952%, 70.553589%, 43.145752%)" offset="0.203125"/><stop stop-opacity="1" stop-color="rgb(90.869141%, 70.198059%, 43.486023%)" offset="0.210938"/><stop stop-opacity="1" stop-color="rgb(90.762329%, 69.842529%, 43.826294%)" offset="0.21875"/><stop stop-opacity="1" stop-color="rgb(90.653992%, 69.487%, 44.165039%)" offset="0.226563"/><stop stop-opacity="1" stop-color="rgb(90.54718%, 69.13147%, 44.50531%)" offset="0.234375"/><stop stop-opacity="1" stop-color="rgb(90.440369%, 68.77594%, 44.845581%)" offset="0.242188"/><stop stop-opacity="1" stop-color="rgb(90.333557%, 68.42041%, 45.185852%)" offset="0.25"/><stop stop-opacity="1" stop-color="rgb(90.226746%, 68.06488%, 45.526123%)" offset="0.257812"/><stop stop-opacity="1" stop-color="rgb(90.118408%, 67.709351%, 45.866394%)" offset="0.265625"/><stop stop-opacity="1" stop-color="rgb(90.011597%, 67.353821%, 46.205139%)" offset="0.273438"/><stop stop-opacity="1" stop-color="rgb(89.904785%, 66.996765%, 46.54541%)" offset="0.28125"/><stop stop-opacity="1" stop-color="rgb(89.797974%, 66.641235%, 46.885681%)" offset="0.289062"/><stop stop-opacity="1" stop-color="rgb(89.691162%, 66.285706%, 47.225952%)" offset="0.296875"/><stop stop-opacity="1" stop-color="rgb(89.584351%, 65.930176%, 47.566223%)" offset="0.304688"/><stop stop-opacity="1" stop-color="rgb(89.476013%, 65.574646%, 47.906494%)" offset="0.3125"/><stop stop-opacity="1" stop-color="rgb(89.369202%, 65.219116%, 48.245239%)" offset="0.320313"/><stop stop-opacity="1" stop-color="rgb(89.26239%, 64.863586%, 48.58551%)" offset="0.328125"/><stop stop-opacity="1" stop-color="rgb(89.155579%, 64.508057%, 48.925781%)" offset="0.335938"/><stop stop-opacity="1" stop-color="rgb(89.048767%, 64.152527%, 49.266052%)" offset="0.34375"/><stop stop-opacity="1" stop-color="rgb(88.94043%, 63.796997%, 49.606323%)" offset="0.351563"/><stop stop-opacity="1" stop-color="rgb(88.833618%, 63.441467%, 49.946594%)" offset="0.359375"/><stop stop-opacity="1" stop-color="rgb(88.726807%, 63.084412%, 50.286865%)" offset="0.367188"/><stop stop-opacity="1" stop-color="rgb(88.619995%, 62.728882%, 50.62561%)" offset="0.375"/><stop stop-opacity="1" stop-color="rgb(88.513184%, 62.373352%, 50.965881%)" offset="0.382812"/><stop stop-opacity="1" stop-color="rgb(88.406372%, 62.017822%, 51.306152%)" offset="0.390625"/><stop stop-opacity="1" stop-color="rgb(88.298035%, 61.662292%, 51.646423%)" offset="0.398437"/><stop stop-opacity="1" stop-color="rgb(88.191223%, 61.306763%, 51.986694%)" offset="0.40625"/><stop stop-opacity="1" stop-color="rgb(88.084412%, 60.951233%, 52.326965%)" offset="0.414062"/><stop stop-opacity="1" stop-color="rgb(87.9776%, 60.595703%, 52.66571%)" offset="0.421875"/><stop stop-opacity="1" stop-color="rgb(87.870789%, 60.240173%, 53.005981%)" offset="0.429687"/><stop stop-opacity="1" stop-color="rgb(87.762451%, 59.884644%, 53.346252%)" offset="0.4375"/><stop stop-opacity="1" stop-color="rgb(87.65564%, 59.529114%, 53.686523%)" offset="0.445312"/><stop stop-opacity="1" stop-color="rgb(87.548828%, 59.172058%, 54.026794%)" offset="0.453125"/><stop stop-opacity="1" stop-color="rgb(87.442017%, 58.816528%, 54.367065%)" offset="0.460938"/><stop stop-opacity="1" stop-color="rgb(87.335205%, 58.460999%, 54.705811%)" offset="0.46875"/><stop stop-opacity="1" stop-color="rgb(87.228394%, 58.105469%, 55.046082%)" offset="0.476562"/><stop stop-opacity="1" stop-color="rgb(87.120056%, 57.749939%, 55.386353%)" offset="0.484375"/><stop stop-opacity="1" stop-color="rgb(87.013245%, 57.394409%, 55.726624%)" offset="0.492188"/><stop stop-opacity="1" stop-color="rgb(86.906433%, 57.038879%, 56.066895%)" offset="0.5"/><stop stop-opacity="1" stop-color="rgb(86.799622%, 56.68335%, 56.407166%)" offset="0.507813"/><stop stop-opacity="1" stop-color="rgb(86.69281%, 56.32782%, 56.747437%)" offset="0.515625"/><stop stop-opacity="1" stop-color="rgb(86.584473%, 55.97229%, 57.086182%)" offset="0.523438"/><stop stop-opacity="1" stop-color="rgb(86.477661%, 55.61676%, 57.426453%)" offset="0.53125"/><stop stop-opacity="1" stop-color="rgb(86.37085%, 55.26123%, 57.766724%)" offset="0.539063"/><stop stop-opacity="1" stop-color="rgb(86.264038%, 54.904175%, 58.106995%)" offset="0.546875"/><stop stop-opacity="1" stop-color="rgb(86.157227%, 54.548645%, 58.447266%)" offset="0.554688"/><stop stop-opacity="1" stop-color="rgb(86.050415%, 54.193115%, 58.787537%)" offset="0.5625"/><stop stop-opacity="1" stop-color="rgb(85.942078%, 53.837585%, 59.126282%)" offset="0.570313"/><stop stop-opacity="1" stop-color="rgb(85.835266%, 53.482056%, 59.466553%)" offset="0.578125"/><stop stop-opacity="1" stop-color="rgb(85.728455%, 53.126526%, 59.806824%)" offset="0.585938"/><stop stop-opacity="1" stop-color="rgb(85.621643%, 52.770996%, 60.147095%)" offset="0.59375"/><stop stop-opacity="1" stop-color="rgb(85.514832%, 52.415466%, 60.487366%)" offset="0.601563"/><stop stop-opacity="1" stop-color="rgb(85.406494%, 52.059937%, 60.827637%)" offset="0.609375"/><stop stop-opacity="1" stop-color="rgb(85.299683%, 51.704407%, 61.166382%)" offset="0.617188"/><stop stop-opacity="1" stop-color="rgb(85.192871%, 51.348877%, 61.506653%)" offset="0.625"/><stop stop-opacity="1" stop-color="rgb(85.08606%, 50.991821%, 61.846924%)" offset="0.632813"/><stop stop-opacity="1" stop-color="rgb(84.979248%, 50.636292%, 62.187195%)" offset="0.640625"/><stop stop-opacity="1" stop-color="rgb(84.872437%, 50.280762%, 62.527466%)" offset="0.648438"/><stop stop-opacity="1" stop-color="rgb(84.764099%, 49.925232%, 62.867737%)" offset="0.65625"/><stop stop-opacity="1" stop-color="rgb(84.657288%, 49.569702%, 63.208008%)" offset="0.664063"/><stop stop-opacity="1" stop-color="rgb(84.550476%, 49.214172%, 63.546753%)" offset="0.671875"/><stop stop-opacity="1" stop-color="rgb(84.443665%, 48.858643%, 63.887024%)" offset="0.679688"/><stop stop-opacity="1" stop-color="rgb(84.336853%, 48.503113%, 64.227295%)" offset="0.6875"/><stop stop-opacity="1" stop-color="rgb(84.228516%, 48.147583%, 64.567566%)" offset="0.695313"/><stop stop-opacity="1" stop-color="rgb(84.121704%, 47.792053%, 64.907837%)" offset="0.703125"/><stop stop-opacity="1" stop-color="rgb(84.014893%, 47.436523%, 65.248108%)" offset="0.710938"/><stop stop-opacity="1" stop-color="rgb(83.908081%, 47.080994%, 65.586853%)" offset="0.71875"/><stop stop-opacity="1" stop-color="rgb(83.80127%, 46.723938%, 65.927124%)" offset="0.726562"/><stop stop-opacity="1" stop-color="rgb(83.694458%, 46.368408%, 66.267395%)" offset="0.734375"/><stop stop-opacity="1" stop-color="rgb(83.586121%, 46.012878%, 66.607666%)" offset="0.742188"/><stop stop-opacity="1" stop-color="rgb(83.479309%, 45.657349%, 66.947937%)" offset="0.75"/><stop stop-opacity="1" stop-color="rgb(83.372498%, 45.301819%, 67.288208%)" offset="0.757812"/><stop stop-opacity="1" stop-color="rgb(83.265686%, 44.946289%, 67.626953%)" offset="0.765625"/><stop stop-opacity="1" stop-color="rgb(83.158875%, 44.590759%, 67.967224%)" offset="0.773438"/><stop stop-opacity="1" stop-color="rgb(83.050537%, 44.235229%, 68.307495%)" offset="0.78125"/><stop stop-opacity="1" stop-color="rgb(82.943726%, 43.8797%, 68.647766%)" offset="0.789062"/><stop stop-opacity="1" stop-color="rgb(82.836914%, 43.52417%, 68.988037%)" offset="0.796875"/><stop stop-opacity="1" stop-color="rgb(82.730103%, 43.16864%, 69.328308%)" offset="0.804687"/><stop stop-opacity="1" stop-color="rgb(82.623291%, 42.811584%, 69.668579%)" offset="0.8125"/><stop stop-opacity="1" stop-color="rgb(82.514954%, 42.456055%, 70.007324%)" offset="0.820312"/><stop stop-opacity="1" stop-color="rgb(82.408142%, 42.100525%, 70.347595%)" offset="0.828125"/><stop stop-opacity="1" stop-color="rgb(82.301331%, 41.744995%, 70.687866%)" offset="0.835937"/><stop stop-opacity="1" stop-color="rgb(82.194519%, 41.389465%, 71.028137%)" offset="0.84375"/><stop stop-opacity="1" stop-color="rgb(82.087708%, 41.033936%, 71.368408%)" offset="0.851562"/><stop stop-opacity="1" stop-color="rgb(81.980896%, 40.678406%, 71.708679%)" offset="0.859375"/><stop stop-opacity="1" stop-color="rgb(81.872559%, 40.322876%, 72.047424%)" offset="0.867187"/><stop stop-opacity="1" stop-color="rgb(81.765747%, 39.967346%, 72.387695%)" offset="0.875"/><stop stop-opacity="1" stop-color="rgb(81.658936%, 39.611816%, 72.727966%)" offset="0.882812"/><stop stop-opacity="1" stop-color="rgb(81.552124%, 39.256287%, 73.068237%)" offset="0.890625"/><stop stop-opacity="1" stop-color="rgb(81.445312%, 38.900757%, 73.408508%)" offset="0.898437"/><stop stop-opacity="1" stop-color="rgb(81.336975%, 38.543701%, 73.748779%)" offset="0.90625"/><stop stop-opacity="1" stop-color="rgb(81.230164%, 38.188171%, 74.087524%)" offset="0.914062"/><stop stop-opacity="1" stop-color="rgb(81.123352%, 37.832642%, 74.427795%)" offset="0.921875"/><stop stop-opacity="1" stop-color="rgb(81.016541%, 37.477112%, 74.768066%)" offset="0.929687"/><stop stop-opacity="1" stop-color="rgb(80.909729%, 37.121582%, 75.108337%)" offset="0.9375"/><stop stop-opacity="1" stop-color="rgb(80.802917%, 36.766052%, 75.448608%)" offset="0.945312"/><stop stop-opacity="1" stop-color="rgb(80.69458%, 36.410522%, 75.788879%)" offset="0.953125"/><stop stop-opacity="1" stop-color="rgb(80.587769%, 36.054993%, 76.12915%)" offset="0.960937"/><stop stop-opacity="1" stop-color="rgb(80.480957%, 35.699463%, 76.467896%)" offset="0.96875"/><stop stop-opacity="1" stop-color="rgb(80.374146%, 35.343933%, 76.808167%)" offset="0.976562"/><stop stop-opacity="1" stop-color="rgb(80.267334%, 34.988403%, 77.148438%)" offset="0.984375"/><stop stop-opacity="1" stop-color="rgb(80.158997%, 34.631348%, 77.488708%)" offset="0.992187"/><stop stop-opacity="1" stop-color="rgb(80.052185%, 34.275818%, 77.828979%)" offset="1"/></linearGradient></defs><rect x="-37.5" width="450" fill="#ffffff" y="-37.499999" height="449.999989" fill-opacity="1"/><rect x="-37.5" width="450" fill="#ffffff" y="-37.499999" height="449.999989" fill-opacity="1"/><g clip-path="url(#a7b5b1aadd)"><g clip-path="url(#20c34606e4)"><path fill="url(#b409541ae2)" d="M 130.042969 112.535156 L 130.042969 262.5 L 245.128906 262.5 L 245.128906 112.535156 Z M 130.042969 112.535156 " fill-rule="nonzero"/></g></g></svg>