<svg xmlns="http://www.w3.org/2000/svg" xmlns:xlink="http://www.w3.org/1999/xlink" width="500" zoomAndPan="magnify" viewBox="0 0 375 374.999991" height="500" preserveAspectRatio="xMidYMid meet" version="1.0"><defs><clipPath id="94f41903a6"><path d="M 112.5 112.5 L 262.5 112.5 L 262.5 262.5 L 112.5 262.5 Z M 112.5 112.5 " clip-rule="nonzero"/></clipPath><clipPath id="6013001368"><path d="M 252.96875 112.5 L 122.03125 112.5 C 116.773438 112.5 112.5 116.773438 112.5 122.03125 L 112.5 157.96875 C 112.5 163.226562 116.773438 167.5 122.03125 167.5 L 252.96875 167.5 C 258.226562 167.5 262.5 163.226562 262.5 157.96875 L 262.5 122.03125 C 262.5 116.773438 258.226562 112.5 252.96875 112.5 Z M 257.5 157.96875 C 257.5 160.46875 255.46875 162.5 252.96875 162.5 L 122.03125 162.5 C 119.53125 162.5 117.5 160.46875 117.5 157.96875 L 117.5 122.03125 C 117.5 119.53125 119.53125 117.5 122.03125 117.5 L 252.96875 117.5 C 255.46875 117.5 257.5 119.53125 257.5 122.03125 Z M 202.878906 133.988281 L 193.832031 132.605469 L 189.761719 123.9375 C 189.351562 123.058594 188.46875 122.5 187.5 122.5 C 186.53125 122.5 185.648438 123.058594 185.238281 123.9375 L 181.167969 132.605469 L 172.121094 133.988281 C 171.195312 134.128906 170.425781 134.777344 170.128906 135.664062 C 169.832031 136.554688 170.054688 137.535156 170.710938 138.203125 L 177.328125 144.988281 L 175.761719 154.597656 C 175.609375 155.542969 176.007812 156.492188 176.789062 157.042969 C 177.570312 157.59375 178.601562 157.652344 179.4375 157.1875 L 187.5 152.730469 L 195.5625 157.1875 C 195.9375 157.398438 196.355469 157.5 196.769531 157.5 C 197.277344 157.5 197.78125 157.347656 198.210938 157.042969 C 198.992188 156.492188 199.390625 155.542969 199.238281 154.597656 L 197.671875 144.988281 L 204.289062 138.203125 C 204.945312 137.535156 205.167969 136.554688 204.871094 135.664062 C 204.574219 134.777344 203.804688 134.128906 202.878906 133.988281 Z M 193.210938 142.398438 C 192.65625 142.96875 192.40625 143.765625 192.53125 144.546875 L 193.472656 150.320312 L 188.710938 147.6875 C 188.332031 147.480469 187.917969 147.375 187.5 147.375 C 187.082031 147.375 186.667969 147.480469 186.289062 147.6875 L 181.527344 150.320312 L 182.46875 144.546875 C 182.59375 143.765625 182.34375 142.96875 181.789062 142.398438 L 177.6875 138.195312 L 183.242188 137.347656 C 184.066406 137.222656 184.773438 136.691406 185.128906 135.9375 L 187.5 130.882812 L 189.871094 135.9375 C 190.226562 136.691406 190.933594 137.21875 191.757812 137.347656 L 197.3125 138.195312 Z M 245.378906 133.988281 L 236.332031 132.605469 L 232.261719 123.9375 C 231.851562 123.058594 230.96875 122.5 230 122.5 C 229.03125 122.5 228.148438 123.058594 227.738281 123.9375 L 223.667969 132.605469 L 214.621094 133.988281 C 213.695312 134.128906 212.925781 134.777344 212.628906 135.664062 C 212.332031 136.554688 212.554688 137.535156 213.210938 138.203125 L 219.828125 144.988281 L 218.261719 154.597656 C 218.109375 155.542969 218.507812 156.492188 219.289062 157.042969 C 220.070312 157.59375 221.101562 157.652344 221.9375 157.1875 L 230 152.730469 L 238.0625 157.1875 C 238.4375 157.398438 238.855469 157.5 239.269531 157.5 C 239.777344 157.5 240.28125 157.347656 240.710938 157.042969 C 241.492188 156.492188 241.890625 155.542969 241.738281 154.597656 L 240.171875 144.988281 L 246.789062 138.203125 C 247.445312 137.535156 247.667969 136.554688 247.371094 135.664062 C 247.074219 134.777344 246.304688 134.128906 245.378906 133.988281 Z M 235.710938 142.398438 C 235.15625 142.96875 234.90625 143.765625 235.03125 144.546875 L 235.972656 150.320312 L 231.210938 147.6875 C 230.832031 147.480469 230.417969 147.375 230 147.375 C 229.582031 147.375 229.167969 147.480469 228.789062 147.6875 L 224.027344 150.320312 L 224.96875 144.546875 C 225.09375 143.765625 224.84375 142.96875 224.289062 142.398438 L 220.1875 138.195312 L 225.742188 137.347656 C 226.566406 137.222656 227.273438 136.691406 227.628906 135.9375 L 230 130.882812 L 232.371094 135.9375 C 232.726562 136.691406 233.433594 137.21875 234.257812 137.347656 L 239.8125 138.195312 Z M 162.878906 133.988281 L 153.832031 132.605469 L 149.761719 123.9375 C 149.351562 123.058594 148.46875 122.5 147.5 122.5 C 146.53125 122.5 145.648438 123.058594 145.238281 123.9375 L 141.167969 132.605469 L 132.121094 133.988281 C 131.195312 134.128906 130.425781 134.777344 130.128906 135.664062 C 129.832031 136.554688 130.054688 137.535156 130.710938 138.203125 L 137.328125 144.988281 L 135.761719 154.597656 C 135.609375 155.542969 136.007812 156.492188 136.789062 157.042969 C 137.570312 157.59375 138.601562 157.652344 139.4375 157.1875 L 147.5 152.730469 L 155.5625 157.1875 C 155.9375 157.398438 156.355469 157.5 156.769531 157.5 C 157.277344 157.5 157.78125 157.347656 158.210938 157.042969 C 158.992188 156.492188 159.390625 155.542969 159.238281 154.597656 L 157.671875 144.988281 L 164.289062 138.203125 C 164.945312 137.535156 165.167969 136.554688 164.871094 135.664062 C 164.574219 134.777344 163.804688 134.128906 162.878906 133.988281 Z M 153.210938 142.398438 C 152.65625 142.96875 152.40625 143.765625 152.53125 144.546875 L 153.472656 150.320312 L 148.710938 147.6875 C 148.332031 147.480469 147.917969 147.375 147.5 147.375 C 147.082031 147.375 146.667969 147.480469 146.289062 147.6875 L 141.527344 150.320312 L 142.46875 144.546875 C 142.59375 143.765625 142.34375 142.96875 141.789062 142.398438 L 137.6875 138.195312 L 143.242188 137.347656 C 144.066406 137.222656 144.773438 136.691406 145.128906 135.9375 L 147.5 130.882812 L 149.871094 135.9375 C 150.226562 136.691406 150.933594 137.21875 151.757812 137.347656 L 157.3125 138.195312 Z M 177.5 195 L 166.042969 195 C 165.933594 195 165.84375 194.957031 165.773438 194.871094 C 165.707031 194.789062 165.683594 194.691406 165.707031 194.585938 L 167.863281 184.894531 C 168.542969 181.835938 167.796875 178.6875 165.820312 176.257812 C 163.839844 173.828125 160.902344 172.457031 157.773438 172.5 C 155.023438 172.539062 152.585938 174.339844 151.707031 176.976562 L 148.386719 186.929688 C 146.648438 192.144531 142.472656 196.074219 137.179688 197.5 L 132.5 197.5 C 132.5 196.117188 131.378906 195 130 195 L 115 195 C 113.621094 195 112.5 196.117188 112.5 197.5 L 112.5 237.5 C 112.5 238.878906 113.621094 240 115 240 L 130 240 C 131.378906 240 132.5 238.878906 132.5 237.5 L 132.5 235 L 132.574219 235 C 135.523438 235 138.40625 235.554688 141.144531 236.652344 L 144.703125 238.074219 C 147.898438 239.351562 151.265625 240 154.707031 240 L 175 240 C 179.136719 240 182.5 236.636719 182.5 232.5 C 182.5 231.164062 182.148438 229.90625 181.535156 228.820312 C 183.617188 227.488281 185 225.152344 185 222.5 C 185 220.582031 184.277344 218.828125 183.085938 217.5 C 184.277344 216.171875 185 214.417969 185 212.5 C 185 210.582031 184.277344 208.828125 183.085938 207.5 C 184.277344 206.171875 185 204.417969 185 202.5 C 185 198.363281 181.636719 195 177.5 195 Z M 127.5 235 L 117.5 235 L 117.5 200 L 127.5 200 Z M 177.5 210 C 178.878906 210 180 211.121094 180 212.5 C 180 213.878906 178.878906 215 177.5 215 C 176.121094 215 175 216.121094 175 217.5 C 175 218.878906 176.121094 220 177.5 220 C 178.878906 220 180 221.121094 180 222.5 C 180 223.878906 178.878906 225 177.5 225 L 175 225 C 173.621094 225 172.5 226.121094 172.5 227.5 C 172.5 228.878906 173.621094 230 175 230 C 176.378906 230 177.5 231.121094 177.5 232.5 C 177.5 233.878906 176.378906 235 175 235 L 154.707031 235 C 151.902344 235 149.160156 234.472656 146.558594 233.429688 L 143.003906 232.007812 C 139.671875 230.675781 136.160156 230 132.574219 230 L 132.5 230 L 132.5 202.5 L 137.5 202.5 C 137.703125 202.5 137.90625 202.476562 138.105469 202.425781 C 145.203125 200.652344 150.816406 195.449219 153.132812 188.511719 L 156.449219 178.558594 C 156.65625 177.933594 157.214844 177.507812 157.839844 177.5 C 157.867188 177.5 157.890625 177.5 157.914062 177.5 C 159.484375 177.5 160.949219 178.195312 161.941406 179.414062 C 162.949219 180.648438 163.328125 182.253906 162.980469 183.8125 L 160.828125 193.5 C 160.472656 195.089844 160.855469 196.730469 161.875 198 C 162.894531 199.269531 164.414062 200 166.042969 200 L 177.5 200 C 178.878906 200 180 201.121094 180 202.5 C 180 203.878906 178.878906 205 177.5 205 C 176.121094 205 175 206.117188 175 207.5 C 175 208.878906 176.121094 210 177.5 210 Z M 120.003906 230 C 120.003906 228.621094 121.121094 227.5 122.503906 227.5 L 122.507812 227.5 C 123.886719 227.5 125.007812 228.621094 125.007812 230 C 125.007812 231.378906 123.886719 232.5 122.507812 232.5 C 121.125 232.5 120.003906 231.378906 120.003906 230 Z M 260 195 L 245 195 C 243.621094 195 242.5 196.121094 242.5 197.5 L 242.5 200 L 242.425781 200 C 239.476562 200 236.59375 199.445312 233.855469 198.347656 L 230.296875 196.925781 C 227.101562 195.648438 223.734375 195 220.292969 195 L 200 195 C 195.863281 195 192.5 198.363281 192.5 202.5 C 192.5 203.835938 192.851562 205.09375 193.464844 206.179688 C 191.382812 207.511719 190 209.847656 190 212.5 C 190 214.417969 190.722656 216.171875 191.914062 217.5 C 190.722656 218.828125 190 220.582031 190 222.5 C 190 224.417969 190.722656 226.171875 191.914062 227.5 C 190.722656 228.828125 190 230.582031 190 232.5 C 190 236.636719 193.363281 240 197.5 240 L 208.957031 240 C 209.066406 240 209.15625 240.042969 209.226562 240.128906 C 209.292969 240.210938 209.316406 240.308594 209.292969 240.414062 L 207.136719 250.105469 C 206.457031 253.164062 207.203125 256.3125 209.179688 258.742188 C 211.128906 261.136719 214 262.5 217.082031 262.5 C 217.128906 262.5 217.179688 262.5 217.226562 262.5 C 219.976562 262.460938 222.414062 260.660156 223.292969 258.023438 L 226.613281 248.070312 C 228.351562 242.855469 232.527344 238.921875 237.820312 237.5 L 242.5 237.5 C 242.5 238.878906 243.621094 240 245 240 L 260 240 C 261.378906 240 262.5 238.878906 262.5 237.5 L 262.5 197.5 C 262.5 196.121094 261.378906 195 260 195 Z M 237.5 232.5 C 237.296875 232.5 237.09375 232.523438 236.894531 232.574219 C 229.796875 234.347656 224.183594 239.550781 221.867188 246.488281 L 218.550781 256.441406 C 218.34375 257.066406 217.785156 257.492188 217.160156 257.5 C 217.132812 257.5 217.109375 257.5 217.085938 257.5 C 215.515625 257.5 214.050781 256.804688 213.058594 255.585938 C 212.050781 254.351562 211.671875 252.746094 212.019531 251.1875 L 214.171875 241.5 C 214.527344 239.910156 214.144531 238.269531 213.125 237 C 212.105469 235.730469 210.585938 235 208.957031 235 L 197.5 235 C 196.121094 235 195 233.878906 195 232.5 C 195 231.121094 196.121094 230 197.5 230 C 198.878906 230 200 228.882812 200 227.5 C 200 226.121094 198.878906 225 197.5 225 C 196.121094 225 195 223.878906 195 222.5 C 195 221.121094 196.121094 220 197.5 220 C 198.878906 220 200 218.882812 200 217.5 C 200 216.121094 198.878906 215 197.5 215 C 196.121094 215 195 213.878906 195 212.5 C 195 211.121094 196.121094 210 197.5 210 L 200 210 C 201.378906 210 202.5 208.882812 202.5 207.5 C 202.5 206.121094 201.378906 205 200 205 C 198.621094 205 197.5 203.878906 197.5 202.5 C 197.5 201.121094 198.621094 200 200 200 L 220.292969 200 C 223.097656 200 225.839844 200.527344 228.441406 201.570312 L 231.996094 202.992188 C 235.328125 204.324219 238.839844 205 242.425781 205 L 242.5 205 L 242.5 232.5 Z M 257.5 235 L 247.5 235 L 247.5 200 L 257.5 200 Z M 250.003906 205 C 250.003906 203.621094 251.121094 202.5 252.503906 202.5 L 252.507812 202.5 C 253.886719 202.5 255.007812 203.621094 255.007812 205 C 255.007812 206.378906 253.886719 207.5 252.507812 207.5 C 251.125 207.5 250.003906 206.378906 250.003906 205 Z M 250.003906 205 " clip-rule="nonzero"/></clipPath><linearGradient x1="1.298985" gradientTransform="matrix(0.3125, 0, 0, 0.3125, 107.499994, 107.499997)" y1="481.298914" x2="481.299535" gradientUnits="userSpaceOnUse" y2="1.299486" id="bfb9f0f842"><stop stop-opacity="1" stop-color="rgb(36.898804%, 73.699951%, 89.7995%)" offset="0"/><stop stop-opacity="1" stop-color="rgb(36.898804%, 73.699951%, 89.7995%)" offset="0.0625"/><stop stop-opacity="1" stop-color="rgb(36.898804%, 73.699951%, 89.7995%)" offset="0.078125"/><stop stop-opacity="1" stop-color="rgb(37.127686%, 73.522949%, 89.801025%)" offset="0.0820312"/><stop stop-opacity="1" stop-color="rgb(37.356567%, 73.347473%, 89.804077%)" offset="0.0859375"/><stop stop-opacity="1" stop-color="rgb(37.651062%, 73.120117%, 89.807129%)" offset="0.0898438"/><stop stop-opacity="1" stop-color="rgb(37.945557%, 72.892761%, 89.811707%)" offset="0.09375"/><stop stop-opacity="1" stop-color="rgb(38.240051%, 72.665405%, 89.814758%)" offset="0.0976563"/><stop stop-opacity="1" stop-color="rgb(38.536072%, 72.438049%, 89.81781%)" offset="0.101562"/><stop stop-opacity="1" stop-color="rgb(38.830566%, 72.210693%, 89.820862%)" offset="0.105469"/><stop stop-opacity="1" stop-color="rgb(39.125061%, 71.983337%, 89.825439%)" offset="0.109375"/><stop stop-opacity="1" stop-color="rgb(39.419556%, 71.755981%, 89.828491%)" offset="0.113281"/><stop stop-opacity="1" stop-color="rgb(39.715576%, 71.528625%, 89.831543%)" offset="0.117188"/><stop stop-opacity="1" stop-color="rgb(40.010071%, 71.30127%, 89.834595%)" offset="0.121094"/><stop stop-opacity="1" stop-color="rgb(40.304565%, 71.073914%, 89.839172%)" offset="0.125"/><stop stop-opacity="1" stop-color="rgb(40.59906%, 70.846558%, 89.842224%)" offset="0.128906"/><stop stop-opacity="1" stop-color="rgb(40.895081%, 70.619202%, 89.845276%)" offset="0.132812"/><stop stop-opacity="1" stop-color="rgb(41.189575%, 70.391846%, 89.848328%)" offset="0.136719"/><stop stop-opacity="1" stop-color="rgb(41.48407%, 70.16449%, 89.852905%)" offset="0.140625"/><stop stop-opacity="1" stop-color="rgb(41.778564%, 69.937134%, 89.855957%)" offset="0.144531"/><stop stop-opacity="1" stop-color="rgb(42.074585%, 69.709778%, 89.859009%)" offset="0.148438"/><stop stop-opacity="1" stop-color="rgb(42.36908%, 69.482422%, 89.862061%)" offset="0.152344"/><stop stop-opacity="1" stop-color="rgb(42.663574%, 69.255066%, 89.866638%)" offset="0.15625"/><stop stop-opacity="1" stop-color="rgb(42.958069%, 69.02771%, 89.86969%)" offset="0.160156"/><stop stop-opacity="1" stop-color="rgb(43.254089%, 68.800354%, 89.872742%)" offset="0.164063"/><stop stop-opacity="1" stop-color="rgb(43.548584%, 68.572998%, 89.875793%)" offset="0.167969"/><stop stop-opacity="1" stop-color="rgb(43.843079%, 68.345642%, 89.880371%)" offset="0.171875"/><stop stop-opacity="1" stop-color="rgb(44.137573%, 68.118286%, 89.883423%)" offset="0.175781"/><stop stop-opacity="1" stop-color="rgb(44.433594%, 67.89093%, 89.886475%)" offset="0.179688"/><stop stop-opacity="1" stop-color="rgb(44.728088%, 67.663574%, 89.889526%)" offset="0.183594"/><stop stop-opacity="1" stop-color="rgb(45.022583%, 67.436218%, 89.894104%)" offset="0.1875"/><stop stop-opacity="1" stop-color="rgb(45.317078%, 67.208862%, 89.897156%)" offset="0.191406"/><stop stop-opacity="1" stop-color="rgb(45.613098%, 66.981506%, 89.900208%)" offset="0.195313"/><stop stop-opacity="1" stop-color="rgb(45.907593%, 66.75415%, 89.903259%)" offset="0.199219"/><stop stop-opacity="1" stop-color="rgb(46.202087%, 66.526794%, 89.907837%)" offset="0.203125"/><stop stop-opacity="1" stop-color="rgb(46.496582%, 66.299438%, 89.910889%)" offset="0.207031"/><stop stop-opacity="1" stop-color="rgb(46.791077%, 66.072083%, 89.91394%)" offset="0.210938"/><stop stop-opacity="1" stop-color="rgb(47.085571%, 65.844727%, 89.916992%)" offset="0.214844"/><stop stop-opacity="1" stop-color="rgb(47.381592%, 65.617371%, 89.920044%)" offset="0.21875"/><stop stop-opacity="1" stop-color="rgb(47.676086%, 65.390015%, 89.923096%)" offset="0.222656"/><stop stop-opacity="1" stop-color="rgb(47.970581%, 65.162659%, 89.927673%)" offset="0.226562"/><stop stop-opacity="1" stop-color="rgb(48.265076%, 64.935303%, 89.930725%)" offset="0.230469"/><stop stop-opacity="1" stop-color="rgb(48.561096%, 64.707947%, 89.933777%)" offset="0.234375"/><stop stop-opacity="1" stop-color="rgb(48.855591%, 64.480591%, 89.936829%)" offset="0.238281"/><stop stop-opacity="1" stop-color="rgb(49.150085%, 64.253235%, 89.941406%)" offset="0.242188"/><stop stop-opacity="1" stop-color="rgb(49.44458%, 64.025879%, 89.944458%)" offset="0.246094"/><stop stop-opacity="1" stop-color="rgb(49.740601%, 63.798523%, 89.94751%)" offset="0.25"/><stop stop-opacity="1" stop-color="rgb(50.035095%, 63.571167%, 89.950562%)" offset="0.253906"/><stop stop-opacity="1" stop-color="rgb(50.32959%, 63.343811%, 89.955139%)" offset="0.257813"/><stop stop-opacity="1" stop-color="rgb(50.624084%, 63.116455%, 89.958191%)" offset="0.261719"/><stop stop-opacity="1" stop-color="rgb(50.920105%, 62.889099%, 89.961243%)" offset="0.265625"/><stop stop-opacity="1" stop-color="rgb(51.2146%, 62.661743%, 89.964294%)" offset="0.269531"/><stop stop-opacity="1" stop-color="rgb(51.509094%, 62.434387%, 89.968872%)" offset="0.273438"/><stop stop-opacity="1" stop-color="rgb(51.803589%, 62.207031%, 89.971924%)" offset="0.277344"/><stop stop-opacity="1" stop-color="rgb(52.099609%, 61.979675%, 89.974976%)" offset="0.28125"/><stop stop-opacity="1" stop-color="rgb(52.394104%, 61.752319%, 89.978027%)" offset="0.285156"/><stop stop-opacity="1" stop-color="rgb(52.688599%, 61.524963%, 89.982605%)" offset="0.289063"/><stop stop-opacity="1" stop-color="rgb(52.983093%, 61.297607%, 89.985657%)" offset="0.292969"/><stop stop-opacity="1" stop-color="rgb(53.279114%, 61.070251%, 89.988708%)" offset="0.296875"/><stop stop-opacity="1" stop-color="rgb(53.573608%, 60.842896%, 89.99176%)" offset="0.300781"/><stop stop-opacity="1" stop-color="rgb(53.868103%, 60.61554%, 89.996338%)" offset="0.304688"/><stop stop-opacity="1" stop-color="rgb(54.162598%, 60.388184%, 89.99939%)" offset="0.308594"/><stop stop-opacity="1" stop-color="rgb(54.458618%, 60.160828%, 90.002441%)" offset="0.3125"/><stop stop-opacity="1" stop-color="rgb(54.753113%, 59.933472%, 90.005493%)" offset="0.316406"/><stop stop-opacity="1" stop-color="rgb(55.047607%, 59.706116%, 90.010071%)" offset="0.320312"/><stop stop-opacity="1" stop-color="rgb(55.342102%, 59.47876%, 90.013123%)" offset="0.324219"/><stop stop-opacity="1" stop-color="rgb(55.638123%, 59.251404%, 90.016174%)" offset="0.328125"/><stop stop-opacity="1" stop-color="rgb(55.932617%, 59.024048%, 90.019226%)" offset="0.332031"/><stop stop-opacity="1" stop-color="rgb(56.227112%, 58.796692%, 90.023804%)" offset="0.335938"/><stop stop-opacity="1" stop-color="rgb(56.521606%, 58.569336%, 90.026855%)" offset="0.339844"/><stop stop-opacity="1" stop-color="rgb(56.817627%, 58.34198%, 90.029907%)" offset="0.34375"/><stop stop-opacity="1" stop-color="rgb(57.112122%, 58.114624%, 90.032959%)" offset="0.347656"/><stop stop-opacity="1" stop-color="rgb(57.406616%, 57.887268%, 90.037537%)" offset="0.351562"/><stop stop-opacity="1" stop-color="rgb(57.701111%, 57.659912%, 90.040588%)" offset="0.355469"/><stop stop-opacity="1" stop-color="rgb(57.995605%, 57.432556%, 90.04364%)" offset="0.359375"/><stop stop-opacity="1" stop-color="rgb(58.2901%, 57.2052%, 90.046692%)" offset="0.363281"/><stop stop-opacity="1" stop-color="rgb(58.586121%, 56.977844%, 90.05127%)" offset="0.367187"/><stop stop-opacity="1" stop-color="rgb(58.880615%, 56.750488%, 90.054321%)" offset="0.371094"/><stop stop-opacity="1" stop-color="rgb(59.17511%, 56.523132%, 90.057373%)" offset="0.375"/><stop stop-opacity="1" stop-color="rgb(59.469604%, 56.295776%, 90.060425%)" offset="0.378906"/><stop stop-opacity="1" stop-color="rgb(59.765625%, 56.06842%, 90.065002%)" offset="0.382813"/><stop stop-opacity="1" stop-color="rgb(60.06012%, 55.841064%, 90.068054%)" offset="0.386719"/><stop stop-opacity="1" stop-color="rgb(60.354614%, 55.613708%, 90.071106%)" offset="0.390625"/><stop stop-opacity="1" stop-color="rgb(60.649109%, 55.386353%, 90.074158%)" offset="0.394531"/><stop stop-opacity="1" stop-color="rgb(60.945129%, 55.158997%, 90.078735%)" offset="0.398438"/><stop stop-opacity="1" stop-color="rgb(61.239624%, 54.931641%, 90.081787%)" offset="0.402344"/><stop stop-opacity="1" stop-color="rgb(61.534119%, 54.704285%, 90.084839%)" offset="0.40625"/><stop stop-opacity="1" stop-color="rgb(61.828613%, 54.476929%, 90.087891%)" offset="0.410156"/><stop stop-opacity="1" stop-color="rgb(62.124634%, 54.251099%, 90.090942%)" offset="0.414063"/><stop stop-opacity="1" stop-color="rgb(62.419128%, 54.023743%, 90.093994%)" offset="0.417969"/><stop stop-opacity="1" stop-color="rgb(62.713623%, 53.796387%, 90.098572%)" offset="0.421875"/><stop stop-opacity="1" stop-color="rgb(63.008118%, 53.569031%, 90.101624%)" offset="0.425781"/><stop stop-opacity="1" stop-color="rgb(63.304138%, 53.341675%, 90.104675%)" offset="0.429688"/><stop stop-opacity="1" stop-color="rgb(63.598633%, 53.114319%, 90.107727%)" offset="0.433594"/><stop stop-opacity="1" stop-color="rgb(63.893127%, 52.886963%, 90.112305%)" offset="0.4375"/><stop stop-opacity="1" stop-color="rgb(64.187622%, 52.659607%, 90.115356%)" offset="0.441406"/><stop stop-opacity="1" stop-color="rgb(64.483643%, 52.432251%, 90.118408%)" offset="0.445312"/><stop stop-opacity="1" stop-color="rgb(64.778137%, 52.204895%, 90.12146%)" offset="0.449219"/><stop stop-opacity="1" stop-color="rgb(65.072632%, 51.977539%, 90.126038%)" offset="0.453125"/><stop stop-opacity="1" stop-color="rgb(65.367126%, 51.750183%, 90.129089%)" offset="0.457031"/><stop stop-opacity="1" stop-color="rgb(65.663147%, 51.522827%, 90.132141%)" offset="0.460938"/><stop stop-opacity="1" stop-color="rgb(65.957642%, 51.295471%, 90.135193%)" offset="0.464844"/><stop stop-opacity="1" stop-color="rgb(66.252136%, 51.068115%, 90.139771%)" offset="0.46875"/><stop stop-opacity="1" stop-color="rgb(66.546631%, 50.840759%, 90.142822%)" offset="0.472656"/><stop stop-opacity="1" stop-color="rgb(66.842651%, 50.613403%, 90.145874%)" offset="0.476562"/><stop stop-opacity="1" stop-color="rgb(67.137146%, 50.386047%, 90.148926%)" offset="0.480469"/><stop stop-opacity="1" stop-color="rgb(67.431641%, 50.158691%, 90.153503%)" offset="0.484375"/><stop stop-opacity="1" stop-color="rgb(67.726135%, 49.931335%, 90.156555%)" offset="0.488281"/><stop stop-opacity="1" stop-color="rgb(68.022156%, 49.703979%, 90.159607%)" offset="0.492187"/><stop stop-opacity="1" stop-color="rgb(68.31665%, 49.476624%, 90.162659%)" offset="0.496094"/><stop stop-opacity="1" stop-color="rgb(68.611145%, 49.249268%, 90.167236%)" offset="0.5"/><stop stop-opacity="1" stop-color="rgb(68.90564%, 49.021912%, 90.170288%)" offset="0.503906"/><stop stop-opacity="1" stop-color="rgb(69.200134%, 48.794556%, 90.17334%)" offset="0.507812"/><stop stop-opacity="1" stop-color="rgb(69.494629%, 48.5672%, 90.176392%)" offset="0.511719"/><stop stop-opacity="1" stop-color="rgb(69.790649%, 48.339844%, 90.180969%)" offset="0.515625"/><stop stop-opacity="1" stop-color="rgb(70.085144%, 48.112488%, 90.184021%)" offset="0.519531"/><stop stop-opacity="1" stop-color="rgb(70.379639%, 47.885132%, 90.187073%)" offset="0.523438"/><stop stop-opacity="1" stop-color="rgb(70.674133%, 47.657776%, 90.190125%)" offset="0.527344"/><stop stop-opacity="1" stop-color="rgb(70.970154%, 47.43042%, 90.194702%)" offset="0.53125"/><stop stop-opacity="1" stop-color="rgb(71.224976%, 47.236633%, 90.071106%)" offset="0.535156"/><stop stop-opacity="1" stop-color="rgb(71.481323%, 47.044373%, 89.949036%)" offset="0.539062"/><stop stop-opacity="1" stop-color="rgb(71.632385%, 46.943665%, 89.489746%)" offset="0.542969"/><stop stop-opacity="1" stop-color="rgb(71.783447%, 46.844482%, 89.031982%)" offset="0.546875"/><stop stop-opacity="1" stop-color="rgb(71.934509%, 46.743774%, 88.572693%)" offset="0.550781"/><stop stop-opacity="1" stop-color="rgb(72.085571%, 46.644592%, 88.114929%)" offset="0.554688"/><stop stop-opacity="1" stop-color="rgb(72.236633%, 46.543884%, 87.65564%)" offset="0.558594"/><stop stop-opacity="1" stop-color="rgb(72.389221%, 46.443176%, 87.19635%)" offset="0.5625"/><stop stop-opacity="1" stop-color="rgb(72.540283%, 46.342468%, 86.737061%)" offset="0.566406"/><stop stop-opacity="1" stop-color="rgb(72.691345%, 46.243286%, 86.279297%)" offset="0.570313"/><stop stop-opacity="1" stop-color="rgb(72.842407%, 46.142578%, 85.820007%)" offset="0.574219"/><stop stop-opacity="1" stop-color="rgb(72.993469%, 46.043396%, 85.362244%)" offset="0.578125"/><stop stop-opacity="1" stop-color="rgb(73.144531%, 45.942688%, 84.902954%)" offset="0.582031"/><stop stop-opacity="1" stop-color="rgb(73.295593%, 45.84198%, 84.443665%)" offset="0.585937"/><stop stop-opacity="1" stop-color="rgb(73.446655%, 45.741272%, 83.984375%)" offset="0.589844"/><stop stop-opacity="1" stop-color="rgb(73.597717%, 45.64209%, 83.526611%)" offset="0.59375"/><stop stop-opacity="1" stop-color="rgb(73.748779%, 45.541382%, 83.067322%)" offset="0.597656"/><stop stop-opacity="1" stop-color="rgb(73.899841%, 45.4422%, 82.609558%)" offset="0.601562"/><stop stop-opacity="1" stop-color="rgb(74.050903%, 45.341492%, 82.150269%)" offset="0.605469"/><stop stop-opacity="1" stop-color="rgb(74.201965%, 45.240784%, 81.690979%)" offset="0.609375"/><stop stop-opacity="1" stop-color="rgb(74.353027%, 45.140076%, 81.231689%)" offset="0.613281"/><stop stop-opacity="1" stop-color="rgb(74.505615%, 45.040894%, 80.773926%)" offset="0.617188"/><stop stop-opacity="1" stop-color="rgb(74.656677%, 44.940186%, 80.314636%)" offset="0.621094"/><stop stop-opacity="1" stop-color="rgb(74.807739%, 44.841003%, 79.855347%)" offset="0.625"/><stop stop-opacity="1" stop-color="rgb(74.958801%, 44.740295%, 79.396057%)" offset="0.628906"/><stop stop-opacity="1" stop-color="rgb(75.109863%, 44.639587%, 78.938293%)" offset="0.632812"/><stop stop-opacity="1" stop-color="rgb(75.260925%, 44.538879%, 78.479004%)" offset="0.636719"/><stop stop-opacity="1" stop-color="rgb(75.411987%, 44.439697%, 78.02124%)" offset="0.640625"/><stop stop-opacity="1" stop-color="rgb(75.563049%, 44.338989%, 77.561951%)" offset="0.644531"/><stop stop-opacity="1" stop-color="rgb(75.714111%, 44.239807%, 77.102661%)" offset="0.648438"/><stop stop-opacity="1" stop-color="rgb(75.865173%, 44.139099%, 76.643372%)" offset="0.652344"/><stop stop-opacity="1" stop-color="rgb(76.016235%, 44.038391%, 76.185608%)" offset="0.65625"/><stop stop-opacity="1" stop-color="rgb(76.167297%, 43.937683%, 75.726318%)" offset="0.660156"/><stop stop-opacity="1" stop-color="rgb(76.318359%, 43.838501%, 75.268555%)" offset="0.664063"/><stop stop-opacity="1" stop-color="rgb(76.469421%, 43.737793%, 74.809265%)" offset="0.667969"/><stop stop-opacity="1" stop-color="rgb(76.622009%, 43.638611%, 74.349976%)" offset="0.671875"/><stop stop-opacity="1" stop-color="rgb(76.773071%, 43.537903%, 73.890686%)" offset="0.675781"/><stop stop-opacity="1" stop-color="rgb(76.924133%, 43.437195%, 73.432922%)" offset="0.679687"/><stop stop-opacity="1" stop-color="rgb(77.075195%, 43.336487%, 72.973633%)" offset="0.683594"/><stop stop-opacity="1" stop-color="rgb(77.226257%, 43.237305%, 72.515869%)" offset="0.6875"/><stop stop-opacity="1" stop-color="rgb(77.377319%, 43.136597%, 72.05658%)" offset="0.691406"/><stop stop-opacity="1" stop-color="rgb(77.528381%, 43.037415%, 71.59729%)" offset="0.695312"/><stop stop-opacity="1" stop-color="rgb(77.679443%, 42.936707%, 71.138%)" offset="0.699219"/><stop stop-opacity="1" stop-color="rgb(77.830505%, 42.835999%, 70.680237%)" offset="0.703125"/><stop stop-opacity="1" stop-color="rgb(77.981567%, 42.735291%, 70.220947%)" offset="0.707031"/><stop stop-opacity="1" stop-color="rgb(78.132629%, 42.636108%, 69.763184%)" offset="0.710938"/><stop stop-opacity="1" stop-color="rgb(78.283691%, 42.5354%, 69.303894%)" offset="0.714844"/><stop stop-opacity="1" stop-color="rgb(78.436279%, 42.436218%, 68.844604%)" offset="0.71875"/><stop stop-opacity="1" stop-color="rgb(78.587341%, 42.33551%, 68.385315%)" offset="0.722656"/><stop stop-opacity="1" stop-color="rgb(78.738403%, 42.234802%, 67.927551%)" offset="0.726562"/><stop stop-opacity="1" stop-color="rgb(78.889465%, 42.134094%, 67.468262%)" offset="0.730469"/><stop stop-opacity="1" stop-color="rgb(79.040527%, 42.034912%, 67.008972%)" offset="0.734375"/><stop stop-opacity="1" stop-color="rgb(79.191589%, 41.934204%, 66.549683%)" offset="0.738281"/><stop stop-opacity="1" stop-color="rgb(79.342651%, 41.835022%, 66.091919%)" offset="0.742188"/><stop stop-opacity="1" stop-color="rgb(79.493713%, 41.734314%, 65.632629%)" offset="0.746094"/><stop stop-opacity="1" stop-color="rgb(79.644775%, 41.633606%, 65.174866%)" offset="0.75"/><stop stop-opacity="1" stop-color="rgb(79.795837%, 41.532898%, 64.715576%)" offset="0.753906"/><stop stop-opacity="1" stop-color="rgb(79.946899%, 41.433716%, 64.256287%)" offset="0.757812"/><stop stop-opacity="1" stop-color="rgb(80.097961%, 41.333008%, 63.796997%)" offset="0.761719"/><stop stop-opacity="1" stop-color="rgb(80.249023%, 41.233826%, 63.339233%)" offset="0.765625"/><stop stop-opacity="1" stop-color="rgb(80.400085%, 41.133118%, 62.879944%)" offset="0.769531"/><stop stop-opacity="1" stop-color="rgb(80.552673%, 41.03241%, 62.42218%)" offset="0.773438"/><stop stop-opacity="1" stop-color="rgb(80.703735%, 40.931702%, 61.962891%)" offset="0.777344"/><stop stop-opacity="1" stop-color="rgb(80.854797%, 40.83252%, 61.503601%)" offset="0.78125"/><stop stop-opacity="1" stop-color="rgb(81.005859%, 40.731812%, 61.044312%)" offset="0.785156"/><stop stop-opacity="1" stop-color="rgb(81.156921%, 40.632629%, 60.586548%)" offset="0.789062"/><stop stop-opacity="1" stop-color="rgb(81.307983%, 40.531921%, 60.127258%)" offset="0.792969"/><stop stop-opacity="1" stop-color="rgb(81.459045%, 40.431213%, 59.669495%)" offset="0.796875"/><stop stop-opacity="1" stop-color="rgb(81.610107%, 40.330505%, 59.210205%)" offset="0.800781"/><stop stop-opacity="1" stop-color="rgb(81.761169%, 40.231323%, 58.750916%)" offset="0.804688"/><stop stop-opacity="1" stop-color="rgb(81.912231%, 40.130615%, 58.291626%)" offset="0.808594"/><stop stop-opacity="1" stop-color="rgb(82.063293%, 40.031433%, 57.833862%)" offset="0.8125"/><stop stop-opacity="1" stop-color="rgb(82.214355%, 39.930725%, 57.374573%)" offset="0.816406"/><stop stop-opacity="1" stop-color="rgb(82.365417%, 39.830017%, 56.916809%)" offset="0.820313"/><stop stop-opacity="1" stop-color="rgb(82.516479%, 39.729309%, 56.45752%)" offset="0.824219"/><stop stop-opacity="1" stop-color="rgb(82.669067%, 39.630127%, 55.99823%)" offset="0.828125"/><stop stop-opacity="1" stop-color="rgb(82.820129%, 39.529419%, 55.53894%)" offset="0.832031"/><stop stop-opacity="1" stop-color="rgb(82.971191%, 39.430237%, 55.081177%)" offset="0.835937"/><stop stop-opacity="1" stop-color="rgb(83.122253%, 39.329529%, 54.621887%)" offset="0.839844"/><stop stop-opacity="1" stop-color="rgb(83.273315%, 39.228821%, 54.162598%)" offset="0.84375"/><stop stop-opacity="1" stop-color="rgb(83.424377%, 39.128113%, 53.703308%)" offset="0.847656"/><stop stop-opacity="1" stop-color="rgb(83.575439%, 39.028931%, 53.245544%)" offset="0.851562"/><stop stop-opacity="1" stop-color="rgb(83.726501%, 38.928223%, 52.786255%)" offset="0.855469"/><stop stop-opacity="1" stop-color="rgb(83.877563%, 38.829041%, 52.328491%)" offset="0.859375"/><stop stop-opacity="1" stop-color="rgb(84.028625%, 38.728333%, 51.869202%)" offset="0.863281"/><stop stop-opacity="1" stop-color="rgb(84.179688%, 38.627625%, 51.409912%)" offset="0.867188"/><stop stop-opacity="1" stop-color="rgb(84.33075%, 38.526917%, 50.950623%)" offset="0.871094"/><stop stop-opacity="1" stop-color="rgb(84.481812%, 38.427734%, 50.492859%)" offset="0.875"/><stop stop-opacity="1" stop-color="rgb(84.632874%, 38.327026%, 50.033569%)" offset="0.878906"/><stop stop-opacity="1" stop-color="rgb(84.785461%, 38.227844%, 49.575806%)" offset="0.882812"/><stop stop-opacity="1" stop-color="rgb(84.936523%, 38.127136%, 49.116516%)" offset="0.886719"/><stop stop-opacity="1" stop-color="rgb(85.087585%, 38.026428%, 48.657227%)" offset="0.890625"/><stop stop-opacity="1" stop-color="rgb(85.238647%, 37.92572%, 48.197937%)" offset="0.894531"/><stop stop-opacity="1" stop-color="rgb(85.389709%, 37.826538%, 47.740173%)" offset="0.898438"/><stop stop-opacity="1" stop-color="rgb(85.540771%, 37.72583%, 47.280884%)" offset="0.902344"/><stop stop-opacity="1" stop-color="rgb(85.691833%, 37.626648%, 46.82312%)" offset="0.90625"/><stop stop-opacity="1" stop-color="rgb(85.842896%, 37.52594%, 46.363831%)" offset="0.910156"/><stop stop-opacity="1" stop-color="rgb(85.993958%, 37.425232%, 45.904541%)" offset="0.914063"/><stop stop-opacity="1" stop-color="rgb(86.14502%, 37.324524%, 45.445251%)" offset="0.917969"/><stop stop-opacity="1" stop-color="rgb(86.296082%, 37.225342%, 44.987488%)" offset="0.921875"/><stop stop-opacity="1" stop-color="rgb(86.447144%, 37.124634%, 44.528198%)" offset="0.925781"/><stop stop-opacity="1" stop-color="rgb(86.599731%, 37.025452%, 44.070435%)" offset="0.929687"/><stop stop-opacity="1" stop-color="rgb(86.750793%, 36.924744%, 43.611145%)" offset="0.933594"/><stop stop-opacity="1" stop-color="rgb(86.901855%, 36.824036%, 43.151855%)" offset="0.9375"/><stop stop-opacity="1" stop-color="rgb(87.052917%, 36.723328%, 42.692566%)" offset="0.941406"/><stop stop-opacity="1" stop-color="rgb(87.203979%, 36.624146%, 42.234802%)" offset="0.945312"/><stop stop-opacity="1" stop-color="rgb(87.355042%, 36.523438%, 41.775513%)" offset="0.949219"/><stop stop-opacity="1" stop-color="rgb(87.506104%, 36.424255%, 41.316223%)" offset="0.953125"/><stop stop-opacity="1" stop-color="rgb(87.657166%, 36.323547%, 40.856934%)" offset="0.957031"/><stop stop-opacity="1" stop-color="rgb(87.808228%, 36.222839%, 40.39917%)" offset="0.960938"/><stop stop-opacity="1" stop-color="rgb(87.95929%, 36.122131%, 39.93988%)" offset="0.964844"/><stop stop-opacity="1" stop-color="rgb(88.110352%, 36.022949%, 39.482117%)" offset="0.96875"/><stop stop-opacity="1" stop-color="rgb(88.261414%, 35.922241%, 39.022827%)" offset="0.972656"/><stop stop-opacity="1" stop-color="rgb(88.412476%, 35.823059%, 38.563538%)" offset="0.976562"/><stop stop-opacity="1" stop-color="rgb(88.505554%, 35.760498%, 38.28125%)" offset="0.980469"/><stop stop-opacity="1" stop-color="rgb(88.598633%, 35.699463%, 37.998962%)" offset="0.984375"/><stop stop-opacity="1" stop-color="rgb(88.598633%, 35.699463%, 37.998962%)" offset="1"/></linearGradient></defs><rect x="-37.5" width="450" fill="#ffffff" y="-37.499999" height="449.999989" fill-opacity="1"/><rect x="-37.5" width="450" fill="#ffffff" y="-37.499999" height="449.999989" fill-opacity="1"/><g clip-path="url(#94f41903a6)"><g clip-path="url(#6013001368)"><path fill="url(#bfb9f0f842)" d="M 112.5 112.5 L 112.5 262.5 L 262.5 262.5 L 262.5 112.5 Z M 112.5 112.5 " fill-rule="nonzero"/></g></g></svg>