<svg xmlns="http://www.w3.org/2000/svg" xmlns:xlink="http://www.w3.org/1999/xlink" width="500" zoomAndPan="magnify" viewBox="0 0 375 374.999991" height="500" preserveAspectRatio="xMidYMid meet" version="1.0"><defs><clipPath id="5ca7ac346f"><path d="M 113 124 L 262.5 124 L 262.5 254 L 113 254 Z M 113 124 " clip-rule="nonzero"/></clipPath></defs><rect x="-37.5" width="450" fill="#ffffff" y="-37.499999" height="449.999989" fill-opacity="1"/><rect x="-37.5" width="450" fill="#ffffff" y="-37.499999" height="449.999989" fill-opacity="1"/><path fill="#ffbb98" d="M 229.902344 196.34375 C 228.546875 196.222656 227.183594 196.15625 225.820312 196.15625 C 220.949219 196.15625 216.058594 196.941406 211.359375 198.523438 C 209.488281 199.152344 207.671875 199.894531 205.914062 200.757812 L 177.480469 214.648438 L 129.90625 188.871094 C 128.472656 188.046875 126.914062 187.660156 125.371094 187.660156 C 122.214844 187.660156 119.140625 189.300781 117.453125 192.230469 C 114.945312 196.589844 116.800781 201.199219 120.820312 204.660156 L 167.855469 247.691406 C 167.882812 247.710938 167.914062 247.742188 167.941406 247.761719 C 172.535156 251.261719 178.664062 252.023438 184.074219 249.988281 L 222.085938 235.652344 C 226.304688 234.234375 230.722656 233.921875 234.949219 234.628906 C 237.414062 235.039062 239.816406 235.796875 242.089844 236.882812 L 242.089844 199.1875 C 238.160156 197.675781 234.054688 196.726562 229.902344 196.34375 Z M 229.902344 196.34375 " fill-opacity="1" fill-rule="nonzero"/><path fill="#4bdbc3" d="M 260.117188 193.222656 L 260.117188 240.46875 C 260.117188 242.273438 258.65625 243.730469 256.851562 243.730469 L 245.355469 243.730469 C 243.550781 243.730469 242.089844 242.273438 242.089844 240.46875 L 242.089844 193.222656 C 242.089844 191.429688 243.550781 189.964844 245.355469 189.964844 L 256.851562 189.964844 C 258.65625 189.964844 260.117188 191.429688 260.117188 193.222656 Z M 260.117188 193.222656 " fill-opacity="1" fill-rule="nonzero"/><path fill="#3bb2a0" d="M 260.117188 193.222656 L 260.117188 240.46875 C 260.117188 242.273438 258.65625 243.730469 256.851562 243.730469 L 254.289062 243.730469 C 252.484375 243.730469 251.027344 242.273438 251.027344 240.46875 L 251.027344 193.222656 C 251.027344 191.429688 252.484375 189.964844 254.289062 189.964844 L 256.851562 189.964844 C 258.65625 189.964844 260.117188 191.429688 260.117188 193.222656 Z M 260.117188 193.222656 " fill-opacity="1" fill-rule="nonzero"/><path fill="#ffcaa6" d="M 229.902344 196.34375 C 228.546875 196.222656 227.183594 196.15625 225.820312 196.15625 C 220.949219 196.15625 216.058594 196.941406 211.359375 198.523438 C 209.488281 199.152344 207.671875 199.894531 205.914062 200.757812 L 177.480469 214.648438 L 172.976562 216.851562 C 170.027344 218.332031 168.324219 221.3125 168.324219 224.394531 C 168.324219 225.679688 168.613281 226.980469 169.234375 228.199219 C 171.339844 232.367188 176.421875 234.046875 180.597656 231.941406 L 215.5 214.890625 C 215.5 214.890625 225.617188 210.359375 238.023438 211.230469 L 242.089844 211.554688 L 242.089844 199.1875 C 238.160156 197.675781 234.054688 196.726562 229.902344 196.34375 Z M 229.902344 196.34375 " fill-opacity="1" fill-rule="nonzero"/><g clip-path="url(#5ca7ac346f)"><path fill="#5f266d" d="M 256.851562 187.597656 L 245.355469 187.597656 C 242.242188 187.597656 239.707031 190.128906 239.707031 193.238281 L 239.707031 195.878906 C 232.230469 193.605469 224.335938 193.203125 216.757812 194.660156 C 222.429688 186.4375 225.28125 176.652344 224.859375 166.5 C 224.347656 154.121094 219.035156 142.679688 209.90625 134.289062 C 194.632812 120.253906 170.777344 121.242188 156.71875 136.492188 C 145.296875 148.882812 146.101562 168.246094 158.511719 179.652344 C 168.660156 188.976562 184.421875 188.324219 193.761719 178.191406 C 205.632812 165.316406 196.460938 144.28125 180.476562 144.933594 C 166.636719 145.507812 160.03125 161.203125 169.609375 170.007812 C 177.601562 177.355469 189.828125 169.578125 185.894531 165.964844 C 184.925781 165.074219 183.417969 165.136719 182.527344 166.105469 C 181.289062 167.449219 179.597656 168.234375 177.765625 168.308594 C 175.941406 168.378906 174.183594 167.746094 172.835938 166.503906 C 166.558594 160.734375 170.804688 150.097656 180.671875 149.6875 C 192.292969 149.203125 199.335938 165.117188 190.253906 174.96875 C 186.605469 178.929688 181.628906 181.234375 176.242188 181.457031 C 156.78125 182.265625 145.328125 155.878906 160.226562 139.710938 C 172.503906 126.394531 193.339844 125.53125 206.675781 137.789062 C 214.871094 145.320312 219.636719 155.585938 220.097656 166.699219 C 220.859375 185.09375 209.757812 195.65625 208.914062 196.886719 C 206.042969 197.976562 207.535156 197.328125 177.550781 211.976562 L 131.105469 186.8125 C 125.605469 183.671875 118.566406 185.574219 115.402344 191.058594 C 112.519531 196.066406 114.039062 202.109375 119.269531 206.464844 C 119.441406 206.617188 166.324219 249.523438 166.507812 249.660156 C 171.753906 253.65625 178.832031 254.515625 184.921875 252.21875 L 222.894531 237.902344 C 228.40625 236.054688 234.320312 236.253906 239.707031 238.441406 L 239.707031 240.472656 C 239.707031 243.585938 242.242188 246.113281 245.355469 246.113281 L 256.851562 246.113281 C 259.964844 246.113281 262.496094 243.585938 262.496094 240.472656 L 262.496094 193.238281 C 262.496094 190.128906 259.964844 187.597656 256.851562 187.597656 Z M 221.25 233.433594 L 183.238281 247.765625 C 178.589844 249.519531 173.335938 248.820312 169.472656 245.933594 C 168.117188 244.699219 122.359375 202.839844 122.359375 202.839844 C 119.660156 200.605469 117.5 196.960938 119.535156 193.429688 C 121.386719 190.21875 125.515625 189.101562 128.785156 190.96875 L 172.296875 214.546875 L 171.914062 214.734375 C 169.324219 216.035156 167.398438 218.269531 166.492188 221.027344 C 163.480469 230.207031 173.128906 238.378906 181.652344 234.085938 L 217.230469 216.707031 C 218.414062 216.128906 218.902344 214.703125 218.324219 213.523438 C 217.746094 212.34375 216.320312 211.855469 215.136719 212.433594 L 179.53125 229.824219 C 174.714844 232.25 169.34375 227.617188 171.019531 222.507812 C 171.527344 220.964844 172.605469 219.710938 174.03125 218.996094 L 206.96875 202.902344 C 217.128906 197.910156 228.96875 197.203125 239.707031 200.875 L 239.707031 233.375 C 233.300781 231.246094 226.289062 231.535156 221.25 233.433594 Z M 257.730469 240.472656 C 257.730469 240.960938 257.335938 241.355469 256.851562 241.355469 L 245.355469 241.355469 C 244.867188 241.355469 244.472656 240.960938 244.472656 240.472656 L 244.472656 193.238281 C 244.472656 192.75 244.867188 192.355469 245.355469 192.355469 L 256.851562 192.355469 C 257.335938 192.355469 257.730469 192.75 257.730469 193.238281 Z M 257.730469 240.472656 " fill-opacity="1" fill-rule="nonzero"/></g><path fill="#5f266d" d="M 231.847656 220.488281 C 230.53125 220.488281 229.464844 221.550781 229.464844 222.867188 L 229.464844 224.351562 C 229.464844 225.667969 230.53125 226.730469 231.847656 226.730469 C 233.160156 226.730469 234.226562 225.667969 234.226562 224.351562 L 234.226562 222.867188 C 234.226562 221.550781 233.160156 220.488281 231.847656 220.488281 Z M 231.847656 220.488281 " fill-opacity="1" fill-rule="nonzero"/><path fill="#5f266d" d="M 231.847656 203.832031 C 230.53125 203.832031 229.464844 204.898438 229.464844 206.210938 L 229.464844 213.945312 C 229.464844 215.257812 230.53125 216.324219 231.847656 216.324219 C 233.160156 216.324219 234.226562 215.257812 234.226562 213.945312 L 234.226562 206.210938 C 234.226562 204.898438 233.160156 203.832031 231.847656 203.832031 Z M 231.847656 203.832031 " fill-opacity="1" fill-rule="nonzero"/></svg>