<svg xmlns="http://www.w3.org/2000/svg" xmlns:xlink="http://www.w3.org/1999/xlink" width="500" zoomAndPan="magnify" viewBox="0 0 375 374.999991" height="500" preserveAspectRatio="xMidYMid meet" version="1.0"><defs><clipPath id="f710dbb061"><path d="M 104.167969 112.5 L 270.667969 112.5 L 270.667969 262.5 L 104.167969 262.5 Z M 104.167969 112.5 " clip-rule="nonzero"/></clipPath><clipPath id="6afd484503"><path d="M 134.691406 204.167969 C 136.21875 204.167969 137.464844 205.414062 137.464844 206.945312 C 137.464844 208.472656 136.21875 209.722656 134.691406 209.722656 C 133.164062 209.722656 131.917969 208.472656 131.917969 206.945312 C 131.917969 205.414062 133.164062 204.167969 134.691406 204.167969 Z M 112.492188 209.722656 L 126.875 209.722656 C 128.023438 212.945312 131.082031 215.277344 134.691406 215.277344 C 138.300781 215.277344 141.359375 212.945312 142.507812 209.722656 L 192.964844 209.722656 L 192.964844 204.167969 L 142.507812 204.167969 C 141.359375 200.945312 138.300781 198.609375 134.691406 198.609375 C 131.082031 198.609375 128.023438 200.945312 126.875 204.167969 L 112.492188 204.167969 Z M 173.542969 184.722656 C 175.070312 184.722656 176.316406 185.96875 176.316406 187.5 C 176.316406 189.03125 175.070312 190.277344 173.542969 190.277344 C 172.011719 190.277344 170.765625 189.03125 170.765625 187.5 C 170.765625 185.96875 172.011719 184.722656 173.542969 184.722656 Z M 112.492188 190.277344 L 165.726562 190.277344 C 166.875 193.5 169.933594 195.832031 173.542969 195.832031 C 177.152344 195.832031 180.207031 193.5 181.355469 190.277344 L 192.964844 190.277344 L 192.964844 184.722656 L 181.355469 184.722656 C 180.207031 181.5 177.152344 179.167969 173.542969 179.167969 C 169.933594 179.167969 166.875 181.5 165.726562 184.722656 L 112.492188 184.722656 Z M 151.339844 165.277344 C 152.871094 165.277344 154.117188 166.527344 154.117188 168.054688 C 154.117188 169.585938 152.871094 170.832031 151.339844 170.832031 C 149.8125 170.832031 148.566406 169.585938 148.566406 168.054688 C 148.566406 166.527344 149.8125 165.277344 151.339844 165.277344 Z M 112.492188 170.832031 L 143.527344 170.832031 C 144.675781 174.054688 147.730469 176.390625 151.339844 176.390625 C 154.953125 176.390625 158.007812 174.054688 159.15625 170.832031 L 192.964844 170.832031 L 192.964844 165.277344 L 159.15625 165.277344 C 158.007812 162.054688 154.953125 159.722656 151.339844 159.722656 C 147.730469 159.722656 144.675781 162.054688 143.527344 165.277344 L 112.492188 165.277344 Z M 112.492188 240.277344 L 118.042969 240.277344 L 118.042969 245.832031 L 112.492188 245.832031 Z M 123.589844 240.277344 L 154.117188 240.277344 L 154.117188 245.832031 L 123.589844 245.832031 Z M 159.667969 240.277344 L 165.214844 240.277344 L 165.214844 245.832031 L 159.667969 245.832031 Z M 112.492188 229.164062 L 118.042969 229.164062 L 118.042969 234.722656 L 112.492188 234.722656 Z M 154.117188 234.722656 L 123.589844 234.722656 L 123.589844 229.164062 L 154.117188 229.164062 Z M 165.214844 234.722656 L 159.667969 234.722656 L 159.667969 229.164062 L 165.214844 229.164062 Z M 187.417969 243.054688 L 176.316406 243.054688 L 176.316406 231.945312 L 187.417969 231.945312 Z M 176.316406 226.386719 C 173.261719 226.386719 170.765625 228.882812 170.765625 231.945312 L 170.765625 243.054688 C 170.765625 246.113281 173.261719 248.609375 176.316406 248.609375 L 187.417969 248.609375 C 190.472656 248.609375 192.964844 246.113281 192.964844 243.054688 L 192.964844 231.945312 C 192.964844 228.882812 190.472656 226.386719 187.417969 226.386719 Z M 187.417969 140.277344 L 192.964844 140.277344 L 192.964844 145.832031 L 187.417969 145.832031 Z M 151.339844 140.277344 L 181.867188 140.277344 L 181.867188 145.832031 L 151.339844 145.832031 Z M 140.242188 140.277344 L 145.792969 140.277344 L 145.792969 145.832031 L 140.242188 145.832031 Z M 192.964844 134.722656 L 187.417969 134.722656 L 187.417969 129.167969 L 192.964844 129.167969 Z M 181.867188 134.722656 L 151.339844 134.722656 L 151.339844 129.167969 L 181.867188 129.167969 Z M 145.792969 134.722656 L 140.242188 134.722656 L 140.242188 129.167969 L 145.792969 129.167969 Z M 118.042969 131.945312 L 129.140625 131.945312 L 129.140625 143.054688 L 118.042969 143.054688 Z M 129.140625 148.613281 C 132.199219 148.613281 134.691406 146.117188 134.691406 143.054688 L 134.691406 131.945312 C 134.691406 128.886719 132.199219 126.390625 129.140625 126.390625 L 118.042969 126.390625 C 114.984375 126.390625 112.492188 128.886719 112.492188 131.945312 L 112.492188 143.054688 C 112.492188 146.117188 114.984375 148.613281 118.042969 148.613281 Z M 198.515625 262.5 L 104.167969 262.5 L 104.167969 256.941406 L 198.515625 256.941406 C 200.046875 256.941406 201.292969 255.695312 201.292969 254.164062 L 201.292969 120.835938 C 201.292969 119.304688 200.046875 118.054688 198.515625 118.054688 L 104.167969 118.054688 L 104.167969 112.5 L 198.515625 112.5 C 203.113281 112.5 206.839844 116.234375 206.839844 120.835938 L 206.839844 254.164062 C 206.839844 258.765625 203.113281 262.5 198.515625 262.5 Z M 242.917969 173.609375 C 230.679688 173.609375 220.714844 163.640625 220.714844 151.390625 C 220.714844 139.140625 230.679688 129.167969 242.917969 129.167969 C 255.15625 129.167969 265.117188 139.140625 265.117188 151.390625 C 265.117188 163.640625 255.15625 173.609375 242.917969 173.609375 Z M 248.464844 193.054688 L 248.464844 234.722656 C 248.464844 236.25 247.21875 237.5 245.691406 237.5 L 240.140625 237.5 C 238.613281 237.5 237.367188 236.25 237.367188 234.722656 L 237.367188 193.054688 C 237.367188 191.527344 238.613281 190.277344 240.140625 190.277344 L 245.691406 190.277344 C 247.21875 190.277344 248.464844 191.527344 248.464844 193.054688 Z M 242.917969 123.613281 C 227.609375 123.613281 215.167969 136.070312 215.167969 151.390625 C 215.167969 165.765625 226.136719 177.625 240.140625 179.027344 L 240.140625 184.722656 C 235.546875 184.722656 231.816406 188.453125 231.816406 193.054688 L 231.816406 234.722656 C 231.816406 239.320312 235.546875 243.054688 240.140625 243.054688 L 240.140625 248.609375 L 245.691406 248.609375 L 245.691406 243.054688 C 250.289062 243.054688 254.015625 239.320312 254.015625 234.722656 L 254.015625 193.054688 C 254.015625 188.453125 250.289062 184.722656 245.691406 184.722656 L 245.691406 179.027344 C 259.695312 177.625 270.667969 165.765625 270.667969 151.390625 C 270.667969 136.070312 258.222656 123.613281 242.917969 123.613281 Z M 242.917969 123.613281 " clip-rule="nonzero"/></clipPath><clipPath id="032fe0924e"><path d="M 134.691406 204.167969 C 136.21875 204.167969 137.464844 205.414062 137.464844 206.945312 C 137.464844 208.472656 136.21875 209.722656 134.691406 209.722656 C 133.164062 209.722656 131.917969 208.472656 131.917969 206.945312 C 131.917969 205.414062 133.164062 204.167969 134.691406 204.167969 Z M 112.492188 209.722656 L 126.875 209.722656 C 128.023438 212.945312 131.082031 215.277344 134.691406 215.277344 C 138.300781 215.277344 141.359375 212.945312 142.507812 209.722656 L 192.964844 209.722656 L 192.964844 204.167969 L 142.507812 204.167969 C 141.359375 200.945312 138.300781 198.609375 134.691406 198.609375 C 131.082031 198.609375 128.023438 200.945312 126.875 204.167969 L 112.492188 204.167969 Z M 173.542969 184.722656 C 175.070312 184.722656 176.316406 185.96875 176.316406 187.5 C 176.316406 189.03125 175.070312 190.277344 173.542969 190.277344 C 172.011719 190.277344 170.765625 189.03125 170.765625 187.5 C 170.765625 185.96875 172.011719 184.722656 173.542969 184.722656 Z M 112.492188 190.277344 L 165.726562 190.277344 C 166.875 193.5 169.933594 195.832031 173.542969 195.832031 C 177.152344 195.832031 180.207031 193.5 181.355469 190.277344 L 192.964844 190.277344 L 192.964844 184.722656 L 181.355469 184.722656 C 180.207031 181.5 177.152344 179.167969 173.542969 179.167969 C 169.933594 179.167969 166.875 181.5 165.726562 184.722656 L 112.492188 184.722656 Z M 151.339844 165.277344 C 152.871094 165.277344 154.117188 166.527344 154.117188 168.054688 C 154.117188 169.585938 152.871094 170.832031 151.339844 170.832031 C 149.8125 170.832031 148.566406 169.585938 148.566406 168.054688 C 148.566406 166.527344 149.8125 165.277344 151.339844 165.277344 Z M 112.492188 170.832031 L 143.527344 170.832031 C 144.675781 174.054688 147.730469 176.390625 151.339844 176.390625 C 154.953125 176.390625 158.007812 174.054688 159.15625 170.832031 L 192.964844 170.832031 L 192.964844 165.277344 L 159.15625 165.277344 C 158.007812 162.054688 154.953125 159.722656 151.339844 159.722656 C 147.730469 159.722656 144.675781 162.054688 143.527344 165.277344 L 112.492188 165.277344 Z M 112.492188 240.277344 L 118.042969 240.277344 L 118.042969 245.832031 L 112.492188 245.832031 Z M 123.589844 240.277344 L 154.117188 240.277344 L 154.117188 245.832031 L 123.589844 245.832031 Z M 159.667969 240.277344 L 165.214844 240.277344 L 165.214844 245.832031 L 159.667969 245.832031 Z M 112.492188 229.164062 L 118.042969 229.164062 L 118.042969 234.722656 L 112.492188 234.722656 Z M 154.117188 234.722656 L 123.589844 234.722656 L 123.589844 229.164062 L 154.117188 229.164062 Z M 165.214844 234.722656 L 159.667969 234.722656 L 159.667969 229.164062 L 165.214844 229.164062 Z M 187.417969 243.054688 L 176.316406 243.054688 L 176.316406 231.945312 L 187.417969 231.945312 Z M 176.316406 226.386719 C 173.261719 226.386719 170.765625 228.882812 170.765625 231.945312 L 170.765625 243.054688 C 170.765625 246.113281 173.261719 248.609375 176.316406 248.609375 L 187.417969 248.609375 C 190.472656 248.609375 192.964844 246.113281 192.964844 243.054688 L 192.964844 231.945312 C 192.964844 228.882812 190.472656 226.386719 187.417969 226.386719 Z M 187.417969 140.277344 L 192.964844 140.277344 L 192.964844 145.832031 L 187.417969 145.832031 Z M 151.339844 140.277344 L 181.867188 140.277344 L 181.867188 145.832031 L 151.339844 145.832031 Z M 140.242188 140.277344 L 145.792969 140.277344 L 145.792969 145.832031 L 140.242188 145.832031 Z M 192.964844 134.722656 L 187.417969 134.722656 L 187.417969 129.167969 L 192.964844 129.167969 Z M 181.867188 134.722656 L 151.339844 134.722656 L 151.339844 129.167969 L 181.867188 129.167969 Z M 145.792969 134.722656 L 140.242188 134.722656 L 140.242188 129.167969 L 145.792969 129.167969 Z M 118.042969 131.945312 L 129.140625 131.945312 L 129.140625 143.054688 L 118.042969 143.054688 Z M 129.140625 148.613281 C 132.199219 148.613281 134.691406 146.117188 134.691406 143.054688 L 134.691406 131.945312 C 134.691406 128.886719 132.199219 126.390625 129.140625 126.390625 L 118.042969 126.390625 C 114.984375 126.390625 112.492188 128.886719 112.492188 131.945312 L 112.492188 143.054688 C 112.492188 146.117188 114.984375 148.613281 118.042969 148.613281 Z M 198.515625 262.5 L 104.167969 262.5 L 104.167969 256.941406 L 198.515625 256.941406 C 200.046875 256.941406 201.292969 255.695312 201.292969 254.164062 L 201.292969 120.835938 C 201.292969 119.304688 200.046875 118.054688 198.515625 118.054688 L 104.167969 118.054688 L 104.167969 112.5 L 198.515625 112.5 C 203.113281 112.5 206.839844 116.234375 206.839844 120.835938 L 206.839844 254.164062 C 206.839844 258.765625 203.113281 262.5 198.515625 262.5 Z M 242.917969 173.609375 C 230.679688 173.609375 220.714844 163.640625 220.714844 151.390625 C 220.714844 139.140625 230.679688 129.167969 242.917969 129.167969 C 255.15625 129.167969 265.117188 139.140625 265.117188 151.390625 C 265.117188 163.640625 255.15625 173.609375 242.917969 173.609375 Z M 248.464844 193.054688 L 248.464844 234.722656 C 248.464844 236.25 247.21875 237.5 245.691406 237.5 L 240.140625 237.5 C 238.613281 237.5 237.367188 236.25 237.367188 234.722656 L 237.367188 193.054688 C 237.367188 191.527344 238.613281 190.277344 240.140625 190.277344 L 245.691406 190.277344 C 247.21875 190.277344 248.464844 191.527344 248.464844 193.054688 Z M 242.917969 123.613281 C 227.609375 123.613281 215.167969 136.070312 215.167969 151.390625 C 215.167969 165.765625 226.136719 177.625 240.140625 179.027344 L 240.140625 184.722656 C 235.546875 184.722656 231.816406 188.453125 231.816406 193.054688 L 231.816406 234.722656 C 231.816406 239.320312 235.546875 243.054688 240.140625 243.054688 L 240.140625 248.609375 L 245.691406 248.609375 L 245.691406 243.054688 C 250.289062 243.054688 254.015625 239.320312 254.015625 234.722656 L 254.015625 193.054688 C 254.015625 188.453125 250.289062 184.722656 245.691406 184.722656 L 245.691406 179.027344 C 259.695312 177.625 270.667969 165.765625 270.667969 151.390625 C 270.667969 136.070312 258.222656 123.613281 242.917969 123.613281 " clip-rule="nonzero"/></clipPath><clipPath id="e6cc19990e"><path d="M 29.242188 187.5 L 187.417969 345.832031 L 345.589844 187.5 L 187.417969 29.167969 Z M 29.242188 187.5 " clip-rule="nonzero"/></clipPath><linearGradient x1="-0.000151998" gradientTransform="matrix(144.487775, -144.630139, 144.487775, 144.630139, 98.598665, 256.881359)" y1="0" x2="1.094577" gradientUnits="userSpaceOnUse" y2="0" id="8571700949"><stop stop-opacity="1" stop-color="rgb(7.499695%, 75.299072%, 90.59906%)" offset="0"/><stop stop-opacity="1" stop-color="rgb(8.016968%, 75.099182%, 90.59906%)" offset="0.00390625"/><stop stop-opacity="1" stop-color="rgb(8.534241%, 74.899292%, 90.59906%)" offset="0.0078125"/><stop stop-opacity="1" stop-color="rgb(9.114075%, 74.525452%, 90.59906%)" offset="0.0117187"/><stop stop-opacity="1" stop-color="rgb(9.695435%, 74.151611%, 90.59906%)" offset="0.015625"/><stop stop-opacity="1" stop-color="rgb(10.362244%, 73.910522%, 90.59906%)" offset="0.0195312"/><stop stop-opacity="1" stop-color="rgb(11.029053%, 73.669434%, 90.59906%)" offset="0.0234375"/><stop stop-opacity="1" stop-color="rgb(11.618042%, 73.478699%, 90.59906%)" offset="0.0273437"/><stop stop-opacity="1" stop-color="rgb(12.207031%, 73.28949%, 90.59906%)" offset="0.03125"/><stop stop-opacity="1" stop-color="rgb(12.744141%, 72.898865%, 90.59906%)" offset="0.0351562"/><stop stop-opacity="1" stop-color="rgb(13.282776%, 72.50824%, 90.59906%)" offset="0.0390625"/><stop stop-opacity="1" stop-color="rgb(13.86261%, 72.363281%, 90.59906%)" offset="0.0429688"/><stop stop-opacity="1" stop-color="rgb(14.44397%, 72.219849%, 90.59906%)" offset="0.046875"/><stop stop-opacity="1" stop-color="rgb(15.02533%, 72.009277%, 90.59906%)" offset="0.0507812"/><stop stop-opacity="1" stop-color="rgb(15.606689%, 71.798706%, 90.59906%)" offset="0.0546875"/><stop stop-opacity="1" stop-color="rgb(16.186523%, 71.430969%, 90.79895%)" offset="0.0585938"/><stop stop-opacity="1" stop-color="rgb(16.767883%, 71.064758%, 90.99884%)" offset="0.0625"/><stop stop-opacity="1" stop-color="rgb(17.390442%, 70.823669%, 90.99884%)" offset="0.0664062"/><stop stop-opacity="1" stop-color="rgb(18.014526%, 70.584106%, 90.99884%)" offset="0.0703125"/><stop stop-opacity="1" stop-color="rgb(18.603516%, 70.193481%, 90.99884%)" offset="0.0742188"/><stop stop-opacity="1" stop-color="rgb(19.192505%, 69.802856%, 90.99884%)" offset="0.078125"/><stop stop-opacity="1" stop-color="rgb(19.773865%, 69.612122%, 90.99884%)" offset="0.0820312"/><stop stop-opacity="1" stop-color="rgb(20.355225%, 69.421387%, 90.99884%)" offset="0.0859375"/><stop stop-opacity="1" stop-color="rgb(20.935059%, 69.20929%, 90.99884%)" offset="0.0898437"/><stop stop-opacity="1" stop-color="rgb(21.516418%, 68.998718%, 90.99884%)" offset="0.09375"/><stop stop-opacity="1" stop-color="rgb(22.055054%, 68.62793%, 90.99884%)" offset="0.0976562"/><stop stop-opacity="1" stop-color="rgb(22.593689%, 68.258667%, 90.99884%)" offset="0.101562"/><stop stop-opacity="1" stop-color="rgb(23.25592%, 68.02063%, 90.99884%)" offset="0.105469"/><stop stop-opacity="1" stop-color="rgb(23.919678%, 67.784119%, 90.99884%)" offset="0.109375"/><stop stop-opacity="1" stop-color="rgb(24.510193%, 67.640686%, 90.99884%)" offset="0.113281"/><stop stop-opacity="1" stop-color="rgb(25.100708%, 67.497253%, 90.99884%)" offset="0.117187"/><stop stop-opacity="1" stop-color="rgb(25.682068%, 67.106628%, 90.99884%)" offset="0.121094"/><stop stop-opacity="1" stop-color="rgb(26.264954%, 66.716003%, 90.99884%)" offset="0.125"/><stop stop-opacity="1" stop-color="rgb(26.846313%, 66.525269%, 90.99884%)" offset="0.128906"/><stop stop-opacity="1" stop-color="rgb(27.427673%, 66.334534%, 90.99884%)" offset="0.132812"/><stop stop-opacity="1" stop-color="rgb(27.958679%, 66.116333%, 90.99884%)" offset="0.136719"/><stop stop-opacity="1" stop-color="rgb(28.489685%, 65.899658%, 90.99884%)" offset="0.140625"/><stop stop-opacity="1" stop-color="rgb(29.156494%, 65.498352%, 90.99884%)" offset="0.144531"/><stop stop-opacity="1" stop-color="rgb(29.824829%, 65.098572%, 90.99884%)" offset="0.148438"/><stop stop-opacity="1" stop-color="rgb(30.415344%, 64.89563%, 90.99884%)" offset="0.152344"/><stop stop-opacity="1" stop-color="rgb(31.005859%, 64.692688%, 90.99884%)" offset="0.15625"/><stop stop-opacity="1" stop-color="rgb(31.590271%, 64.49585%, 90.99884%)" offset="0.160156"/><stop stop-opacity="1" stop-color="rgb(32.176208%, 64.299011%, 90.99884%)" offset="0.164062"/><stop stop-opacity="1" stop-color="rgb(32.707214%, 63.91449%, 91.183472%)" offset="0.167969"/><stop stop-opacity="1" stop-color="rgb(33.23822%, 63.529968%, 91.368103%)" offset="0.171875"/><stop stop-opacity="1" stop-color="rgb(33.818054%, 63.339233%, 91.383362%)" offset="0.175781"/><stop stop-opacity="1" stop-color="rgb(34.399414%, 63.148499%, 91.398621%)" offset="0.179687"/><stop stop-opacity="1" stop-color="rgb(34.980774%, 62.924194%, 91.398621%)" offset="0.183594"/><stop stop-opacity="1" stop-color="rgb(35.562134%, 62.69989%, 91.398621%)" offset="0.1875"/><stop stop-opacity="1" stop-color="rgb(36.236572%, 62.348938%, 91.398621%)" offset="0.191406"/><stop stop-opacity="1" stop-color="rgb(36.912537%, 61.999512%, 91.398621%)" offset="0.195312"/><stop stop-opacity="1" stop-color="rgb(37.449646%, 61.802673%, 91.398621%)" offset="0.199219"/><stop stop-opacity="1" stop-color="rgb(37.988281%, 61.605835%, 91.398621%)" offset="0.203125"/><stop stop-opacity="1" stop-color="rgb(38.568115%, 61.402893%, 91.398621%)" offset="0.207031"/><stop stop-opacity="1" stop-color="rgb(39.147949%, 61.199951%, 91.398621%)" offset="0.210937"/><stop stop-opacity="1" stop-color="rgb(39.729309%, 60.821533%, 91.398621%)" offset="0.214844"/><stop stop-opacity="1" stop-color="rgb(40.310669%, 60.443115%, 91.398621%)" offset="0.21875"/><stop stop-opacity="1" stop-color="rgb(40.892029%, 60.220337%, 91.398621%)" offset="0.222656"/><stop stop-opacity="1" stop-color="rgb(41.473389%, 59.999084%, 91.398621%)" offset="0.226562"/><stop stop-opacity="1" stop-color="rgb(42.094421%, 59.599304%, 91.398621%)" offset="0.230469"/><stop stop-opacity="1" stop-color="rgb(42.71698%, 59.199524%, 91.398621%)" offset="0.234375"/><stop stop-opacity="1" stop-color="rgb(43.305969%, 58.999634%, 91.398621%)" offset="0.238281"/><stop stop-opacity="1" stop-color="rgb(43.896484%, 58.799744%, 91.398621%)" offset="0.242188"/><stop stop-opacity="1" stop-color="rgb(44.477844%, 58.599854%, 91.398621%)" offset="0.246094"/><stop stop-opacity="1" stop-color="rgb(45.059204%, 58.399963%, 91.398621%)" offset="0.25"/><stop stop-opacity="1" stop-color="rgb(45.640564%, 58.018494%, 91.398621%)" offset="0.253906"/><stop stop-opacity="1" stop-color="rgb(46.221924%, 57.63855%, 91.398621%)" offset="0.257812"/><stop stop-opacity="1" stop-color="rgb(46.801758%, 57.49054%, 91.398621%)" offset="0.261719"/><stop stop-opacity="1" stop-color="rgb(47.383118%, 57.342529%, 91.398621%)" offset="0.265625"/><stop stop-opacity="1" stop-color="rgb(48.002625%, 57.10907%, 91.398621%)" offset="0.269531"/><stop stop-opacity="1" stop-color="rgb(48.622131%, 56.87561%, 91.398621%)" offset="0.273438"/><stop stop-opacity="1" stop-color="rgb(49.212646%, 56.486511%, 91.398621%)" offset="0.277344"/><stop stop-opacity="1" stop-color="rgb(49.803162%, 56.098938%, 91.398621%)" offset="0.28125"/><stop stop-opacity="1" stop-color="rgb(50.386047%, 55.906677%, 91.590881%)" offset="0.285156"/><stop stop-opacity="1" stop-color="rgb(50.968933%, 55.714417%, 91.784668%)" offset="0.289062"/><stop stop-opacity="1" stop-color="rgb(51.550293%, 55.506897%, 91.792297%)" offset="0.292969"/><stop stop-opacity="1" stop-color="rgb(52.131653%, 55.299377%, 91.799927%)" offset="0.296875"/><stop stop-opacity="1" stop-color="rgb(52.662659%, 54.925537%, 91.799927%)" offset="0.300781"/><stop stop-opacity="1" stop-color="rgb(53.193665%, 54.551697%, 91.799927%)" offset="0.304687"/><stop stop-opacity="1" stop-color="rgb(53.775024%, 54.360962%, 91.799927%)" offset="0.308594"/><stop stop-opacity="1" stop-color="rgb(54.356384%, 54.170227%, 91.799927%)" offset="0.3125"/><stop stop-opacity="1" stop-color="rgb(55.032349%, 53.929138%, 91.799927%)" offset="0.316406"/><stop stop-opacity="1" stop-color="rgb(55.708313%, 53.689575%, 91.799927%)" offset="0.320312"/><stop stop-opacity="1" stop-color="rgb(56.29425%, 53.29895%, 91.799927%)" offset="0.324219"/><stop stop-opacity="1" stop-color="rgb(56.880188%, 52.908325%, 91.799927%)" offset="0.328125"/><stop stop-opacity="1" stop-color="rgb(57.414246%, 52.71759%, 91.799927%)" offset="0.332031"/><stop stop-opacity="1" stop-color="rgb(57.949829%, 52.528381%, 91.799927%)" offset="0.335938"/><stop stop-opacity="1" stop-color="rgb(58.526611%, 52.363586%, 91.799927%)" offset="0.339844"/><stop stop-opacity="1" stop-color="rgb(59.104919%, 52.198792%, 91.799927%)" offset="0.34375"/><stop stop-opacity="1" stop-color="rgb(59.684753%, 51.831055%, 91.799927%)" offset="0.347656"/><stop stop-opacity="1" stop-color="rgb(60.266113%, 51.464844%, 91.799927%)" offset="0.351562"/><stop stop-opacity="1" stop-color="rgb(60.939026%, 51.223755%, 91.799927%)" offset="0.355469"/><stop stop-opacity="1" stop-color="rgb(61.613464%, 50.984192%, 91.799927%)" offset="0.359375"/><stop stop-opacity="1" stop-color="rgb(62.1521%, 50.593567%, 91.799927%)" offset="0.363281"/><stop stop-opacity="1" stop-color="rgb(62.692261%, 50.202942%, 91.799927%)" offset="0.367188"/><stop stop-opacity="1" stop-color="rgb(63.272095%, 50.012207%, 91.799927%)" offset="0.371094"/><stop stop-opacity="1" stop-color="rgb(63.853455%, 49.822998%, 91.799927%)" offset="0.375"/><stop stop-opacity="1" stop-color="rgb(64.433289%, 49.610901%, 91.799927%)" offset="0.378906"/><stop stop-opacity="1" stop-color="rgb(65.014648%, 49.398804%, 91.799927%)" offset="0.382812"/><stop stop-opacity="1" stop-color="rgb(65.596008%, 49.029541%, 91.799927%)" offset="0.386719"/><stop stop-opacity="1" stop-color="rgb(66.177368%, 48.660278%, 91.799927%)" offset="0.390625"/><stop stop-opacity="1" stop-color="rgb(66.845703%, 48.419189%, 91.809082%)" offset="0.394531"/><stop stop-opacity="1" stop-color="rgb(67.514038%, 48.179626%, 91.819763%)" offset="0.398437"/><stop stop-opacity="1" stop-color="rgb(68.057251%, 47.988892%, 92.008972%)" offset="0.402344"/><stop stop-opacity="1" stop-color="rgb(68.600464%, 47.798157%, 92.199707%)" offset="0.40625"/><stop stop-opacity="1" stop-color="rgb(69.181824%, 47.457886%, 92.199707%)" offset="0.410156"/><stop stop-opacity="1" stop-color="rgb(69.763184%, 47.117615%, 92.199707%)" offset="0.414062"/><stop stop-opacity="1" stop-color="rgb(70.344543%, 46.92688%, 92.199707%)" offset="0.417969"/><stop stop-opacity="1" stop-color="rgb(70.925903%, 46.736145%, 92.199707%)" offset="0.421875"/><stop stop-opacity="1" stop-color="rgb(71.505737%, 46.517944%, 92.199707%)" offset="0.425781"/><stop stop-opacity="1" stop-color="rgb(72.087097%, 46.299744%, 92.199707%)" offset="0.429688"/><stop stop-opacity="1" stop-color="rgb(72.618103%, 45.936584%, 92.199707%)" offset="0.433594"/><stop stop-opacity="1" stop-color="rgb(73.149109%, 45.573425%, 92.199707%)" offset="0.4375"/><stop stop-opacity="1" stop-color="rgb(73.826599%, 45.332336%, 92.199707%)" offset="0.441406"/><stop stop-opacity="1" stop-color="rgb(74.505615%, 45.092773%, 92.199707%)" offset="0.445312"/><stop stop-opacity="1" stop-color="rgb(75.090027%, 44.895935%, 92.199707%)" offset="0.449219"/><stop stop-opacity="1" stop-color="rgb(75.674438%, 44.699097%, 92.199707%)" offset="0.453125"/><stop stop-opacity="1" stop-color="rgb(76.071167%, 44.499207%, 91.999817%)" offset="0.457031"/><stop stop-opacity="1" stop-color="rgb(76.467896%, 44.299316%, 91.799927%)" offset="0.460938"/><stop stop-opacity="1" stop-color="rgb(76.483154%, 44.099426%, 91.22467%)" offset="0.464844"/><stop stop-opacity="1" stop-color="rgb(76.499939%, 43.899536%, 90.649414%)" offset="0.46875"/><stop stop-opacity="1" stop-color="rgb(76.699829%, 43.733215%, 90.058899%)" offset="0.472656"/><stop stop-opacity="1" stop-color="rgb(76.899719%, 43.56842%, 89.468384%)" offset="0.476563"/><stop stop-opacity="1" stop-color="rgb(77.104187%, 43.527222%, 88.827515%)" offset="0.480469"/><stop stop-opacity="1" stop-color="rgb(77.308655%, 43.487549%, 88.188171%)" offset="0.484375"/><stop stop-opacity="1" stop-color="rgb(77.453613%, 43.293762%, 87.649536%)" offset="0.488281"/><stop stop-opacity="1" stop-color="rgb(77.598572%, 43.099976%, 87.112427%)" offset="0.492188"/><stop stop-opacity="1" stop-color="rgb(77.798462%, 43.099976%, 86.71875%)" offset="0.496094"/><stop stop-opacity="1" stop-color="rgb(77.999878%, 43.099976%, 86.325073%)" offset="0.5"/><stop stop-opacity="1" stop-color="rgb(78.199768%, 42.89856%, 85.734558%)" offset="0.503906"/><stop stop-opacity="1" stop-color="rgb(78.399658%, 42.698669%, 85.144043%)" offset="0.507812"/><stop stop-opacity="1" stop-color="rgb(78.599548%, 42.572021%, 84.585571%)" offset="0.511719"/><stop stop-opacity="1" stop-color="rgb(78.799438%, 42.446899%, 84.0271%)" offset="0.515625"/><stop stop-opacity="1" stop-color="rgb(79.006958%, 42.414856%, 83.355713%)" offset="0.519531"/><stop stop-opacity="1" stop-color="rgb(79.216003%, 42.382812%, 82.685852%)" offset="0.523438"/><stop stop-opacity="1" stop-color="rgb(79.406738%, 42.190552%, 82.342529%)" offset="0.527344"/><stop stop-opacity="1" stop-color="rgb(79.598999%, 41.999817%, 82.000732%)" offset="0.53125"/><stop stop-opacity="1" stop-color="rgb(79.788208%, 41.809082%, 81.410217%)" offset="0.535156"/><stop stop-opacity="1" stop-color="rgb(79.978943%, 41.619873%, 80.819702%)" offset="0.539062"/><stop stop-opacity="1" stop-color="rgb(80.168152%, 41.609192%, 80.249023%)" offset="0.542969"/><stop stop-opacity="1" stop-color="rgb(80.358887%, 41.598511%, 79.678345%)" offset="0.546875"/><stop stop-opacity="1" stop-color="rgb(80.549622%, 41.427612%, 79.267883%)" offset="0.550781"/><stop stop-opacity="1" stop-color="rgb(80.740356%, 41.25824%, 78.857422%)" offset="0.554688"/><stop stop-opacity="1" stop-color="rgb(80.931091%, 41.227722%, 78.266907%)" offset="0.558594"/><stop stop-opacity="1" stop-color="rgb(81.121826%, 41.19873%, 77.676392%)" offset="0.5625"/><stop stop-opacity="1" stop-color="rgb(81.359863%, 40.99884%, 77.085876%)" offset="0.566406"/><stop stop-opacity="1" stop-color="rgb(81.599426%, 40.79895%, 76.495361%)" offset="0.570312"/><stop stop-opacity="1" stop-color="rgb(81.791687%, 40.606689%, 75.912476%)" offset="0.574219"/><stop stop-opacity="1" stop-color="rgb(81.983948%, 40.414429%, 75.331116%)" offset="0.578125"/><stop stop-opacity="1" stop-color="rgb(81.991577%, 40.406799%, 74.932861%)" offset="0.582031"/><stop stop-opacity="1" stop-color="rgb(81.999207%, 40.39917%, 74.534607%)" offset="0.585938"/><stop stop-opacity="1" stop-color="rgb(82.199097%, 40.19928%, 73.942566%)" offset="0.589844"/><stop stop-opacity="1" stop-color="rgb(82.398987%, 39.99939%, 73.352051%)" offset="0.59375"/><stop stop-opacity="1" stop-color="rgb(82.548523%, 39.99939%, 72.839355%)" offset="0.597656"/><stop stop-opacity="1" stop-color="rgb(82.699585%, 39.99939%, 72.32666%)" offset="0.601562"/><stop stop-opacity="1" stop-color="rgb(82.904053%, 39.7995%, 71.853638%)" offset="0.605469"/><stop stop-opacity="1" stop-color="rgb(83.108521%, 39.599609%, 71.382141%)" offset="0.609375"/><stop stop-opacity="1" stop-color="rgb(83.303833%, 39.404297%, 70.796204%)" offset="0.613281"/><stop stop-opacity="1" stop-color="rgb(83.499146%, 39.208984%, 70.210266%)" offset="0.617188"/><stop stop-opacity="1" stop-color="rgb(83.699036%, 39.204407%, 69.633484%)" offset="0.621094"/><stop stop-opacity="1" stop-color="rgb(83.898926%, 39.199829%, 69.058228%)" offset="0.625"/><stop stop-opacity="1" stop-color="rgb(84.098816%, 38.998413%, 68.652344%)" offset="0.628906"/><stop stop-opacity="1" stop-color="rgb(84.298706%, 38.798523%, 68.247986%)" offset="0.632812"/><stop stop-opacity="1" stop-color="rgb(84.465027%, 38.798523%, 67.706299%)" offset="0.636719"/><stop stop-opacity="1" stop-color="rgb(84.631348%, 38.798523%, 67.166138%)" offset="0.640625"/><stop stop-opacity="1" stop-color="rgb(84.864807%, 38.598633%, 66.525269%)" offset="0.644531"/><stop stop-opacity="1" stop-color="rgb(85.099792%, 38.398743%, 65.885925%)" offset="0.648437"/><stop stop-opacity="1" stop-color="rgb(85.296631%, 38.201904%, 65.4953%)" offset="0.652344"/><stop stop-opacity="1" stop-color="rgb(85.493469%, 38.005066%, 65.104675%)" offset="0.65625"/><stop stop-opacity="1" stop-color="rgb(85.684204%, 38.002014%, 64.51416%)" offset="0.660156"/><stop stop-opacity="1" stop-color="rgb(85.874939%, 37.998962%, 63.923645%)" offset="0.664062"/><stop stop-opacity="1" stop-color="rgb(86.065674%, 37.799072%, 63.354492%)" offset="0.667969"/><stop stop-opacity="1" stop-color="rgb(86.256409%, 37.599182%, 62.785339%)" offset="0.671875"/><stop stop-opacity="1" stop-color="rgb(86.277771%, 37.599182%, 62.42218%)" offset="0.675781"/><stop stop-opacity="1" stop-color="rgb(86.299133%, 37.599182%, 62.060547%)" offset="0.679687"/><stop stop-opacity="1" stop-color="rgb(86.499023%, 37.44812%, 61.509705%)" offset="0.683594"/><stop stop-opacity="1" stop-color="rgb(86.698914%, 37.298584%, 60.960388%)" offset="0.6875"/><stop stop-opacity="1" stop-color="rgb(86.898804%, 37.098694%, 60.479736%)" offset="0.691406"/><stop stop-opacity="1" stop-color="rgb(87.098694%, 36.898804%, 59.999084%)" offset="0.695312"/><stop stop-opacity="1" stop-color="rgb(87.298584%, 36.898804%, 59.408569%)" offset="0.699219"/><stop stop-opacity="1" stop-color="rgb(87.5%, 36.898804%, 58.818054%)" offset="0.703125"/><stop stop-opacity="1" stop-color="rgb(87.649536%, 36.717224%, 58.24585%)" offset="0.707031"/><stop stop-opacity="1" stop-color="rgb(87.799072%, 36.53717%, 57.675171%)" offset="0.710937"/><stop stop-opacity="1" stop-color="rgb(87.969971%, 36.517334%, 57.315063%)" offset="0.714844"/><stop stop-opacity="1" stop-color="rgb(88.142395%, 36.499023%, 56.956482%)" offset="0.71875"/><stop stop-opacity="1" stop-color="rgb(88.33313%, 36.299133%, 56.402588%)" offset="0.722656"/><stop stop-opacity="1" stop-color="rgb(88.523865%, 36.099243%, 55.85022%)" offset="0.726562"/><stop stop-opacity="1" stop-color="rgb(88.761902%, 35.899353%, 55.369568%)" offset="0.730469"/><stop stop-opacity="1" stop-color="rgb(88.999939%, 35.699463%, 54.888916%)" offset="0.734375"/><stop stop-opacity="1" stop-color="rgb(88.999939%, 35.699463%, 54.299927%)" offset="0.738281"/><stop stop-opacity="1" stop-color="rgb(88.999939%, 35.699463%, 53.712463%)" offset="0.742188"/><stop stop-opacity="1" stop-color="rgb(89.199829%, 35.514832%, 53.321838%)" offset="0.746094"/><stop stop-opacity="1" stop-color="rgb(89.399719%, 35.331726%, 52.931213%)" offset="0.75"/><stop stop-opacity="1" stop-color="rgb(89.599609%, 35.314941%, 52.391052%)" offset="0.753906"/><stop stop-opacity="1" stop-color="rgb(89.7995%, 35.299683%, 51.850891%)" offset="0.757812"/><stop stop-opacity="1" stop-color="rgb(89.99939%, 35.099792%, 51.460266%)" offset="0.761719"/><stop stop-opacity="1" stop-color="rgb(90.19928%, 34.899902%, 51.069641%)" offset="0.765625"/><stop stop-opacity="1" stop-color="rgb(90.39917%, 34.893799%, 50.428772%)" offset="0.769531"/><stop stop-opacity="1" stop-color="rgb(90.59906%, 34.889221%, 49.787903%)" offset="0.773438"/><stop stop-opacity="1" stop-color="rgb(90.794373%, 34.693909%, 49.397278%)" offset="0.777344"/><stop stop-opacity="1" stop-color="rgb(90.991211%, 34.498596%, 49.008179%)" offset="0.78125"/><stop stop-opacity="1" stop-color="rgb(91.181946%, 34.312439%, 48.416138%)" offset="0.785156"/><stop stop-opacity="1" stop-color="rgb(91.372681%, 34.126282%, 47.825623%)" offset="0.789062"/><stop stop-opacity="1" stop-color="rgb(91.384888%, 34.112549%, 47.485352%)" offset="0.792969"/><stop stop-opacity="1" stop-color="rgb(91.398621%, 34.098816%, 47.145081%)" offset="0.796875"/><stop stop-opacity="1" stop-color="rgb(91.598511%, 33.930969%, 46.554565%)" offset="0.800781"/><stop stop-opacity="1" stop-color="rgb(91.799927%, 33.764648%, 45.96405%)" offset="0.804688"/><stop stop-opacity="1" stop-color="rgb(91.999817%, 33.731079%, 45.573425%)" offset="0.808594"/><stop stop-opacity="1" stop-color="rgb(92.199707%, 33.699036%, 45.1828%)" offset="0.8125"/><stop stop-opacity="1" stop-color="rgb(92.349243%, 33.500671%, 44.543457%)" offset="0.816406"/><stop stop-opacity="1" stop-color="rgb(92.498779%, 33.302307%, 43.90564%)" offset="0.820312"/><stop stop-opacity="1" stop-color="rgb(92.687988%, 33.300781%, 43.513489%)" offset="0.824219"/><stop stop-opacity="1" stop-color="rgb(92.877197%, 33.299255%, 43.121338%)" offset="0.828125"/><stop stop-opacity="1" stop-color="rgb(93.067932%, 33.099365%, 42.774963%)" offset="0.832031"/><stop stop-opacity="1" stop-color="rgb(93.258667%, 32.899475%, 42.430115%)" offset="0.835938"/><stop stop-opacity="1" stop-color="rgb(93.278503%, 32.899475%, 41.844177%)" offset="0.839844"/><stop stop-opacity="1" stop-color="rgb(93.299866%, 32.899475%, 41.25824%)" offset="0.84375"/><stop stop-opacity="1" stop-color="rgb(93.499756%, 32.699585%, 40.867615%)" offset="0.847656"/><stop stop-opacity="1" stop-color="rgb(93.699646%, 32.499695%, 40.478516%)" offset="0.851563"/><stop stop-opacity="1" stop-color="rgb(93.899536%, 32.498169%, 40.037537%)" offset="0.855469"/><stop stop-opacity="1" stop-color="rgb(94.099426%, 32.498169%, 39.596558%)" offset="0.859375"/><stop stop-opacity="1" stop-color="rgb(94.290161%, 32.348633%, 39.013672%)" offset="0.863281"/><stop stop-opacity="1" stop-color="rgb(94.482422%, 32.199097%, 38.432312%)" offset="0.867188"/><stop stop-opacity="1" stop-color="rgb(94.673157%, 32.199097%, 38.032532%)" offset="0.871094"/><stop stop-opacity="1" stop-color="rgb(94.863892%, 32.199097%, 37.634277%)" offset="0.875"/><stop stop-opacity="1" stop-color="rgb(94.880676%, 31.999207%, 37.294006%)" offset="0.878906"/><stop stop-opacity="1" stop-color="rgb(94.898987%, 31.799316%, 36.953735%)" offset="0.882812"/><stop stop-opacity="1" stop-color="rgb(95.098877%, 31.799316%, 36.56311%)" offset="0.886719"/><stop stop-opacity="1" stop-color="rgb(95.298767%, 31.799316%, 36.172485%)" offset="0.890625"/><stop stop-opacity="1" stop-color="rgb(95.498657%, 31.599426%, 35.733032%)" offset="0.894531"/><stop stop-opacity="1" stop-color="rgb(95.698547%, 31.399536%, 35.295105%)" offset="0.898437"/><stop stop-opacity="1" stop-color="rgb(95.698547%, 31.399536%, 35.099792%)" offset="0.90625"/><stop stop-opacity="1" stop-color="rgb(95.698547%, 31.399536%, 34.901428%)" offset="0.9375"/><stop stop-opacity="1" stop-color="rgb(95.698547%, 31.399536%, 34.899902%)" offset="1"/></linearGradient></defs><rect x="-37.5" width="450" fill="#ffffff" y="-37.499999" height="449.999989" fill-opacity="1"/><rect x="-37.5" width="450" fill="#ffffff" y="-37.499999" height="449.999989" fill-opacity="1"/><g clip-path="url(#f710dbb061)"><g clip-path="url(#6afd484503)"><g clip-path="url(#032fe0924e)"><g clip-path="url(#e6cc19990e)"><path fill="url(#8571700949)" d="M 29.242188 187.5 L 187.417969 345.832031 L 345.589844 187.5 L 187.417969 29.167969 Z M 29.242188 187.5 " fill-rule="nonzero"/></g></g></g></g></svg>