<svg xmlns="http://www.w3.org/2000/svg" xmlns:xlink="http://www.w3.org/1999/xlink" width="500" zoomAndPan="magnify" viewBox="0 0 375 374.999991" height="500" preserveAspectRatio="xMidYMid meet" version="1.0"><defs><clipPath id="ec90ed8e98"><path d="M 130 87.335938 L 245.316406 87.335938 L 245.316406 237.335938 L 130 237.335938 Z M 130 87.335938 " clip-rule="nonzero"/></clipPath><clipPath id="beda4b8211"><path d="M 245.128906 191.460938 C 245.128906 171.183594 234.429688 157.707031 225.457031 149.972656 C 220.925781 146.070312 216.710938 143.492188 214.089844 142.0625 C 215.632812 141.058594 216.660156 139.328125 216.660156 137.355469 L 216.660156 137.089844 C 216.660156 134.78125 215.257812 132.796875 213.257812 131.929688 C 217.324219 128.238281 222.914062 127.175781 230.269531 128.691406 C 230.300781 128.695312 230.328125 128.691406 230.355469 128.695312 C 230.40625 128.703125 230.460938 128.714844 230.511719 128.714844 C 230.535156 128.714844 230.558594 128.707031 230.582031 128.703125 C 230.625 128.703125 230.664062 128.695312 230.703125 128.6875 C 230.773438 128.675781 230.839844 128.660156 230.910156 128.636719 C 230.949219 128.621094 230.988281 128.609375 231.023438 128.589844 C 231.089844 128.558594 231.148438 128.523438 231.207031 128.480469 C 231.238281 128.457031 231.273438 128.433594 231.304688 128.40625 C 231.359375 128.355469 231.410156 128.296875 231.457031 128.234375 C 231.476562 128.210938 231.5 128.191406 231.515625 128.167969 C 231.519531 128.160156 231.519531 128.152344 231.523438 128.148438 C 231.53125 128.136719 231.539062 128.132812 231.542969 128.125 C 231.554688 128.101562 231.554688 128.074219 231.566406 128.054688 C 231.617188 127.953125 231.65625 127.847656 231.675781 127.738281 C 231.683594 127.691406 231.6875 127.648438 231.691406 127.601562 C 231.699219 127.503906 231.6875 127.40625 231.671875 127.304688 C 231.664062 127.265625 231.660156 127.226562 231.648438 127.1875 C 231.613281 127.058594 231.558594 126.933594 231.472656 126.820312 C 231.472656 126.816406 231.46875 126.816406 231.46875 126.8125 C 231.464844 126.8125 231.464844 126.808594 231.464844 126.808594 C 225.914062 119.261719 219.160156 116.054688 211.367188 117.222656 C 212.238281 114.71875 212.882812 111.992188 213.300781 109.023438 C 213.304688 108.984375 213.289062 108.949219 213.292969 108.914062 C 213.296875 108.820312 213.289062 108.734375 213.273438 108.644531 C 213.261719 108.570312 213.242188 108.503906 213.214844 108.433594 C 213.199219 108.394531 213.203125 108.355469 213.183594 108.320312 C 213.160156 108.269531 213.117188 108.242188 213.085938 108.199219 C 213.0625 108.164062 213.054688 108.117188 213.027344 108.085938 C 213.003906 108.058594 212.972656 108.050781 212.953125 108.027344 C 212.886719 107.960938 212.8125 107.910156 212.734375 107.863281 C 212.675781 107.824219 212.621094 107.789062 212.558594 107.765625 C 212.46875 107.730469 212.382812 107.714844 212.289062 107.703125 C 212.238281 107.695312 212.191406 107.667969 212.140625 107.667969 C 209.859375 107.636719 207.695312 107.757812 205.628906 108.019531 C 202.550781 100.683594 196.875 94.023438 188.292969 87.683594 C 187.871094 87.375 187.296875 87.375 186.878906 87.683594 C 175.785156 95.878906 169.421875 104.796875 167.453125 114.898438 C 164.851562 113.441406 161.890625 112.105469 158.554688 110.902344 C 158.546875 110.898438 158.535156 110.898438 158.523438 110.894531 C 158.503906 110.886719 158.480469 110.886719 158.460938 110.878906 C 158.34375 110.847656 158.222656 110.835938 158.101562 110.839844 C 158.078125 110.839844 158.054688 110.839844 158.03125 110.839844 C 157.902344 110.855469 157.777344 110.890625 157.65625 110.945312 C 157.628906 110.957031 157.601562 110.972656 157.578125 110.988281 C 157.542969 111.003906 157.507812 111.019531 157.476562 111.039062 C 157.390625 111.097656 157.316406 111.167969 157.25 111.246094 C 157.25 111.246094 157.246094 111.25 157.242188 111.25 C 157.238281 111.257812 157.234375 111.265625 157.230469 111.273438 C 157.144531 111.378906 157.082031 111.5 157.035156 111.625 C 157.027344 111.644531 157.015625 111.664062 157.011719 111.683594 C 156.980469 111.785156 156.960938 111.890625 156.957031 111.996094 C 156.917969 114.019531 157.015625 115.9375 157.214844 117.777344 C 149.316406 115.578125 142.351562 119.355469 137.074219 123.011719 C 136.628906 123.320312 136.449219 123.890625 136.632812 124.398438 C 136.820312 124.90625 137.332031 125.226562 137.867188 125.171875 C 145.859375 124.40625 153.816406 126.757812 161.535156 132.136719 C 159.746094 133.078125 158.507812 134.933594 158.507812 137.089844 L 158.507812 137.355469 C 158.507812 139.328125 159.535156 141.058594 161.078125 142.0625 C 158.285156 143.585938 153.671875 146.417969 148.804688 150.769531 C 140.246094 158.425781 130.042969 171.699219 130.042969 191.460938 C 130.042969 209.050781 140.28125 219.6875 148.871094 225.515625 C 152.660156 228.085938 156.207031 229.789062 158.695312 230.824219 C 157.742188 231.371094 156.898438 232.109375 156.25 233.027344 L 154.519531 235.457031 C 154.261719 235.820312 154.226562 236.296875 154.429688 236.691406 C 154.636719 237.085938 155.042969 237.335938 155.488281 237.335938 L 219.679688 237.335938 C 220.125 237.335938 220.535156 237.085938 220.738281 236.691406 C 220.941406 236.296875 220.910156 235.820312 220.652344 235.457031 L 218.921875 233.027344 C 218.269531 232.109375 217.425781 231.371094 216.472656 230.824219 C 218.960938 229.789062 222.515625 228.082031 226.304688 225.507812 C 234.894531 219.683594 245.128906 209.046875 245.128906 191.460938 Z M 210.640625 142.980469 C 211.507812 143.382812 215.109375 145.132812 219.589844 148.375 L 155.578125 148.375 C 160.066406 145.128906 163.667969 143.378906 164.53125 142.980469 Z M 200.9375 131.46875 C 202.917969 130.050781 204.664062 128.425781 206.183594 126.589844 C 212.054688 124.242188 217.75 123.933594 223.425781 125.675781 C 218.046875 125.867188 213.675781 127.804688 210.371094 131.46875 Z M 181.839844 131.46875 C 185.90625 118.398438 194.226562 111.40625 207.183594 110.238281 C 197.871094 115.871094 191.921875 122.859375 189.046875 131.46875 Z M 164.878906 131.46875 C 161.453125 126.964844 159.648438 121.449219 159.386719 114.707031 C 165.4375 120.285156 169.003906 125.796875 170.214844 131.46875 Z M 172.640625 131.46875 C 171.605469 126.058594 168.667969 120.835938 163.730469 115.644531 C 172.164062 119.726562 177.113281 124.945312 178.753906 131.46875 Z M 210.539062 111.046875 C 208.671875 120.675781 204.046875 127.375 196.445312 131.46875 L 191.558594 131.46875 C 194.570312 123.140625 200.796875 116.429688 210.539062 111.046875 Z M 225.765625 123.972656 C 220.09375 121.886719 214.324219 121.652344 208.523438 123.28125 C 209.1875 122.191406 209.785156 121.042969 210.320312 119.832031 C 216.171875 118.542969 221.269531 119.894531 225.765625 123.972656 Z M 187.585938 90.128906 C 195.207031 95.886719 200.304688 101.886719 203.175781 108.410156 C 192.128906 110.535156 184.46875 117.269531 180.320312 128.539062 C 178.507812 123.730469 174.980469 119.636719 169.644531 116.210938 C 171.253906 106.578125 177.125 98.03125 187.585938 90.128906 Z M 157.605469 120.410156 C 158.140625 123.324219 159.007812 126.003906 160.222656 128.457031 C 154.289062 124.855469 148.214844 122.902344 142.070312 122.675781 C 147.894531 119.40625 152.8125 118.722656 157.605469 120.410156 Z M 160.890625 137.09375 C 160.890625 135.304688 162.347656 133.847656 164.140625 133.847656 L 211.03125 133.847656 C 212.820312 133.847656 214.277344 135.304688 214.277344 137.09375 L 214.277344 137.355469 C 214.277344 139.144531 212.820312 140.601562 211.03125 140.601562 L 210.914062 140.601562 C 210.910156 140.601562 210.90625 140.601562 210.902344 140.601562 L 164.261719 140.601562 C 164.257812 140.601562 164.257812 140.601562 164.257812 140.601562 L 164.140625 140.601562 C 162.347656 140.601562 160.890625 139.144531 160.890625 137.355469 Z M 162.722656 229.78125 C 162.148438 229.601562 159.847656 228.839844 156.753906 227.328125 L 218.414062 227.328125 C 215.320312 228.835938 213.023438 229.601562 212.449219 229.78125 Z M 216.980469 234.402344 L 217.375 234.957031 L 157.796875 234.957031 L 158.191406 234.402344 C 159.191406 233 160.816406 232.160156 162.539062 232.160156 L 212.628906 232.160156 C 214.355469 232.160156 215.980469 233 216.980469 234.402344 Z M 222.769531 224.949219 L 152.398438 224.949219 C 151.679688 224.511719 150.953125 224.050781 150.210938 223.546875 C 142.097656 218.042969 132.425781 208.007812 132.425781 191.460938 C 132.425781 172.578125 142.199219 159.875 150.394531 152.542969 C 151.101562 151.910156 151.804688 151.320312 152.496094 150.753906 L 222.683594 150.753906 C 223.085938 151.082031 223.492188 151.421875 223.898438 151.773438 C 232.496094 159.183594 242.746094 172.082031 242.746094 191.457031 C 242.746094 208.003906 233.078125 218.039062 224.96875 223.539062 C 224.226562 224.046875 223.492188 224.511719 222.769531 224.949219 Z M 206.476562 182.011719 L 192.429688 182.011719 L 192.429688 174.734375 L 199.429688 174.734375 C 203.15625 174.734375 206.1875 171.707031 206.1875 167.984375 C 206.1875 167.328125 205.65625 166.792969 205 166.792969 L 183.929688 166.792969 C 183.273438 166.792969 182.738281 167.328125 182.738281 167.984375 L 182.738281 182.011719 L 175.457031 182.011719 L 175.457031 175.019531 C 175.457031 171.296875 172.421875 168.269531 168.695312 168.269531 C 168.039062 168.269531 167.503906 168.800781 167.503906 169.460938 L 167.503906 190.5 C 167.503906 191.160156 168.039062 191.691406 168.695312 191.691406 L 182.738281 191.691406 L 182.738281 198.964844 L 175.742188 198.964844 C 172.015625 198.964844 168.980469 201.992188 168.980469 205.714844 C 168.980469 206.375 169.515625 206.90625 170.171875 206.90625 L 191.238281 206.90625 C 191.898438 206.90625 192.429688 206.375 192.429688 205.714844 L 192.429688 191.691406 L 199.714844 191.691406 L 199.714844 198.679688 C 199.714844 202.40625 202.75 205.433594 206.476562 205.433594 C 207.132812 205.433594 207.667969 204.902344 207.667969 204.242188 L 207.667969 183.199219 C 207.664062 182.542969 207.132812 182.011719 206.476562 182.011719 Z M 205.285156 202.890625 C 203.449219 202.367188 202.097656 200.679688 202.097656 198.679688 L 202.097656 190.503906 C 202.097656 189.84375 201.5625 189.3125 200.90625 189.3125 L 191.238281 189.3125 C 190.582031 189.3125 190.050781 189.84375 190.050781 190.503906 L 190.050781 204.527344 L 171.527344 204.527344 C 172.046875 202.695312 173.738281 201.34375 175.742188 201.34375 L 183.929688 201.34375 C 184.589844 201.34375 185.121094 200.8125 185.121094 200.15625 L 185.121094 190.503906 C 185.121094 189.84375 184.589844 189.3125 183.929688 189.3125 L 169.886719 189.3125 L 169.886719 170.8125 C 171.722656 171.332031 173.074219 173.023438 173.074219 175.019531 L 173.074219 183.199219 C 173.074219 183.859375 173.609375 184.390625 174.265625 184.390625 L 183.929688 184.390625 C 184.589844 184.390625 185.121094 183.859375 185.121094 183.199219 L 185.121094 169.175781 L 203.644531 169.175781 C 203.121094 171.007812 201.429688 172.355469 199.429688 172.355469 L 191.238281 172.355469 C 190.582031 172.355469 190.050781 172.890625 190.050781 173.546875 L 190.050781 183.199219 C 190.050781 183.859375 190.582031 184.390625 191.238281 184.390625 L 205.285156 184.390625 Z M 196.054688 176.230469 C 197.238281 176.230469 198.199219 177.191406 198.199219 178.375 C 198.199219 179.558594 197.238281 180.515625 196.054688 180.515625 C 194.867188 180.515625 193.90625 179.558594 193.90625 178.375 C 193.90625 177.1875 194.867188 176.230469 196.054688 176.230469 Z M 176.949219 178.394531 C 176.949219 177.210938 177.910156 176.25 179.097656 176.25 C 180.28125 176.25 181.242188 177.210938 181.242188 178.394531 C 181.242188 179.578125 180.28125 180.539062 179.097656 180.539062 C 177.910156 180.539062 176.949219 179.578125 176.949219 178.394531 Z M 179.117188 197.472656 C 177.933594 197.472656 176.972656 196.511719 176.972656 195.328125 C 176.972656 194.144531 177.933594 193.1875 179.117188 193.1875 C 180.304688 193.1875 181.265625 194.144531 181.265625 195.328125 C 181.265625 196.511719 180.304688 197.472656 179.117188 197.472656 Z M 198.21875 195.308594 C 198.21875 196.492188 197.257812 197.453125 196.074219 197.453125 C 194.890625 197.453125 193.929688 196.492188 193.929688 195.308594 C 193.929688 194.125 194.890625 193.164062 196.074219 193.164062 C 197.257812 193.164062 198.21875 194.125 198.21875 195.308594 Z M 198.21875 195.308594 " clip-rule="nonzero"/></clipPath><linearGradient x1="48.314999" gradientTransform="matrix(1.190982, 0, 0, 1.189532, 130.043748, 87.455448)" y1="-0.0690195" x2="48.314999" gradientUnits="userSpaceOnUse" y2="125.999981" id="022adbf075"><stop stop-opacity="1" stop-color="rgb(93.699646%, 79.598999%, 34.498596%)" offset="0"/><stop stop-opacity="1" stop-color="rgb(93.649292%, 79.432678%, 34.657288%)" offset="0.0078125"/><stop stop-opacity="1" stop-color="rgb(93.545532%, 79.089355%, 34.985352%)" offset="0.015625"/><stop stop-opacity="1" stop-color="rgb(93.438721%, 78.733826%, 35.324097%)" offset="0.0234375"/><stop stop-opacity="1" stop-color="rgb(93.331909%, 78.378296%, 35.664368%)" offset="0.03125"/><stop stop-opacity="1" stop-color="rgb(93.225098%, 78.022766%, 36.004639%)" offset="0.0390625"/><stop stop-opacity="1" stop-color="rgb(93.118286%, 77.667236%, 36.34491%)" offset="0.046875"/><stop stop-opacity="1" stop-color="rgb(93.009949%, 77.311707%, 36.685181%)" offset="0.0546875"/><stop stop-opacity="1" stop-color="rgb(92.903137%, 76.956177%, 37.025452%)" offset="0.0625"/><stop stop-opacity="1" stop-color="rgb(92.796326%, 76.600647%, 37.365723%)" offset="0.0703125"/><stop stop-opacity="1" stop-color="rgb(92.689514%, 76.245117%, 37.704468%)" offset="0.078125"/><stop stop-opacity="1" stop-color="rgb(92.582703%, 75.889587%, 38.044739%)" offset="0.0859375"/><stop stop-opacity="1" stop-color="rgb(92.474365%, 75.534058%, 38.38501%)" offset="0.09375"/><stop stop-opacity="1" stop-color="rgb(92.367554%, 75.177002%, 38.725281%)" offset="0.101562"/><stop stop-opacity="1" stop-color="rgb(92.260742%, 74.821472%, 39.065552%)" offset="0.109375"/><stop stop-opacity="1" stop-color="rgb(92.153931%, 74.465942%, 39.405823%)" offset="0.117187"/><stop stop-opacity="1" stop-color="rgb(92.047119%, 74.110413%, 39.744568%)" offset="0.125"/><stop stop-opacity="1" stop-color="rgb(91.940308%, 73.754883%, 40.084839%)" offset="0.132812"/><stop stop-opacity="1" stop-color="rgb(91.83197%, 73.399353%, 40.42511%)" offset="0.140625"/><stop stop-opacity="1" stop-color="rgb(91.725159%, 73.043823%, 40.765381%)" offset="0.148438"/><stop stop-opacity="1" stop-color="rgb(91.618347%, 72.688293%, 41.105652%)" offset="0.15625"/><stop stop-opacity="1" stop-color="rgb(91.511536%, 72.332764%, 41.445923%)" offset="0.164062"/><stop stop-opacity="1" stop-color="rgb(91.404724%, 71.977234%, 41.784668%)" offset="0.171875"/><stop stop-opacity="1" stop-color="rgb(91.296387%, 71.621704%, 42.124939%)" offset="0.179687"/><stop stop-opacity="1" stop-color="rgb(91.189575%, 71.264648%, 42.46521%)" offset="0.1875"/><stop stop-opacity="1" stop-color="rgb(91.082764%, 70.909119%, 42.805481%)" offset="0.195312"/><stop stop-opacity="1" stop-color="rgb(90.975952%, 70.553589%, 43.145752%)" offset="0.203125"/><stop stop-opacity="1" stop-color="rgb(90.869141%, 70.198059%, 43.486023%)" offset="0.210938"/><stop stop-opacity="1" stop-color="rgb(90.762329%, 69.842529%, 43.826294%)" offset="0.21875"/><stop stop-opacity="1" stop-color="rgb(90.653992%, 69.487%, 44.165039%)" offset="0.226562"/><stop stop-opacity="1" stop-color="rgb(90.54718%, 69.13147%, 44.50531%)" offset="0.234375"/><stop stop-opacity="1" stop-color="rgb(90.440369%, 68.77594%, 44.845581%)" offset="0.242188"/><stop stop-opacity="1" stop-color="rgb(90.333557%, 68.42041%, 45.185852%)" offset="0.25"/><stop stop-opacity="1" stop-color="rgb(90.226746%, 68.06488%, 45.526123%)" offset="0.257812"/><stop stop-opacity="1" stop-color="rgb(90.118408%, 67.709351%, 45.866394%)" offset="0.265625"/><stop stop-opacity="1" stop-color="rgb(90.011597%, 67.353821%, 46.205139%)" offset="0.273438"/><stop stop-opacity="1" stop-color="rgb(89.904785%, 66.996765%, 46.54541%)" offset="0.28125"/><stop stop-opacity="1" stop-color="rgb(89.797974%, 66.641235%, 46.885681%)" offset="0.289062"/><stop stop-opacity="1" stop-color="rgb(89.691162%, 66.285706%, 47.225952%)" offset="0.296875"/><stop stop-opacity="1" stop-color="rgb(89.584351%, 65.930176%, 47.566223%)" offset="0.304688"/><stop stop-opacity="1" stop-color="rgb(89.476013%, 65.574646%, 47.906494%)" offset="0.3125"/><stop stop-opacity="1" stop-color="rgb(89.369202%, 65.219116%, 48.245239%)" offset="0.320312"/><stop stop-opacity="1" stop-color="rgb(89.26239%, 64.863586%, 48.58551%)" offset="0.328125"/><stop stop-opacity="1" stop-color="rgb(89.155579%, 64.508057%, 48.925781%)" offset="0.335938"/><stop stop-opacity="1" stop-color="rgb(89.048767%, 64.152527%, 49.266052%)" offset="0.34375"/><stop stop-opacity="1" stop-color="rgb(88.94043%, 63.796997%, 49.606323%)" offset="0.351562"/><stop stop-opacity="1" stop-color="rgb(88.833618%, 63.441467%, 49.946594%)" offset="0.359375"/><stop stop-opacity="1" stop-color="rgb(88.726807%, 63.084412%, 50.286865%)" offset="0.367187"/><stop stop-opacity="1" stop-color="rgb(88.619995%, 62.728882%, 50.62561%)" offset="0.375"/><stop stop-opacity="1" stop-color="rgb(88.513184%, 62.373352%, 50.965881%)" offset="0.382812"/><stop stop-opacity="1" stop-color="rgb(88.406372%, 62.017822%, 51.306152%)" offset="0.390625"/><stop stop-opacity="1" stop-color="rgb(88.298035%, 61.662292%, 51.646423%)" offset="0.398437"/><stop stop-opacity="1" stop-color="rgb(88.191223%, 61.306763%, 51.986694%)" offset="0.40625"/><stop stop-opacity="1" stop-color="rgb(88.084412%, 60.951233%, 52.326965%)" offset="0.414062"/><stop stop-opacity="1" stop-color="rgb(87.9776%, 60.595703%, 52.66571%)" offset="0.421875"/><stop stop-opacity="1" stop-color="rgb(87.870789%, 60.240173%, 53.005981%)" offset="0.429688"/><stop stop-opacity="1" stop-color="rgb(87.762451%, 59.884644%, 53.346252%)" offset="0.4375"/><stop stop-opacity="1" stop-color="rgb(87.65564%, 59.529114%, 53.686523%)" offset="0.445312"/><stop stop-opacity="1" stop-color="rgb(87.548828%, 59.172058%, 54.026794%)" offset="0.453125"/><stop stop-opacity="1" stop-color="rgb(87.442017%, 58.816528%, 54.367065%)" offset="0.460938"/><stop stop-opacity="1" stop-color="rgb(87.335205%, 58.460999%, 54.705811%)" offset="0.46875"/><stop stop-opacity="1" stop-color="rgb(87.228394%, 58.105469%, 55.046082%)" offset="0.476562"/><stop stop-opacity="1" stop-color="rgb(87.120056%, 57.749939%, 55.386353%)" offset="0.484375"/><stop stop-opacity="1" stop-color="rgb(87.013245%, 57.394409%, 55.726624%)" offset="0.492187"/><stop stop-opacity="1" stop-color="rgb(86.906433%, 57.038879%, 56.066895%)" offset="0.5"/><stop stop-opacity="1" stop-color="rgb(86.799622%, 56.68335%, 56.407166%)" offset="0.507812"/><stop stop-opacity="1" stop-color="rgb(86.69281%, 56.32782%, 56.747437%)" offset="0.515625"/><stop stop-opacity="1" stop-color="rgb(86.584473%, 55.97229%, 57.086182%)" offset="0.523437"/><stop stop-opacity="1" stop-color="rgb(86.477661%, 55.61676%, 57.426453%)" offset="0.53125"/><stop stop-opacity="1" stop-color="rgb(86.37085%, 55.26123%, 57.766724%)" offset="0.539062"/><stop stop-opacity="1" stop-color="rgb(86.264038%, 54.904175%, 58.106995%)" offset="0.546875"/><stop stop-opacity="1" stop-color="rgb(86.157227%, 54.548645%, 58.447266%)" offset="0.554688"/><stop stop-opacity="1" stop-color="rgb(86.050415%, 54.193115%, 58.787537%)" offset="0.5625"/><stop stop-opacity="1" stop-color="rgb(85.942078%, 53.837585%, 59.126282%)" offset="0.570312"/><stop stop-opacity="1" stop-color="rgb(85.835266%, 53.482056%, 59.466553%)" offset="0.578125"/><stop stop-opacity="1" stop-color="rgb(85.728455%, 53.126526%, 59.806824%)" offset="0.585937"/><stop stop-opacity="1" stop-color="rgb(85.621643%, 52.770996%, 60.147095%)" offset="0.59375"/><stop stop-opacity="1" stop-color="rgb(85.514832%, 52.415466%, 60.487366%)" offset="0.601562"/><stop stop-opacity="1" stop-color="rgb(85.406494%, 52.059937%, 60.827637%)" offset="0.609375"/><stop stop-opacity="1" stop-color="rgb(85.299683%, 51.704407%, 61.166382%)" offset="0.617188"/><stop stop-opacity="1" stop-color="rgb(85.192871%, 51.348877%, 61.506653%)" offset="0.625"/><stop stop-opacity="1" stop-color="rgb(85.08606%, 50.991821%, 61.846924%)" offset="0.632812"/><stop stop-opacity="1" stop-color="rgb(84.979248%, 50.636292%, 62.187195%)" offset="0.640625"/><stop stop-opacity="1" stop-color="rgb(84.872437%, 50.280762%, 62.527466%)" offset="0.648437"/><stop stop-opacity="1" stop-color="rgb(84.764099%, 49.925232%, 62.867737%)" offset="0.65625"/><stop stop-opacity="1" stop-color="rgb(84.657288%, 49.569702%, 63.208008%)" offset="0.664063"/><stop stop-opacity="1" stop-color="rgb(84.550476%, 49.214172%, 63.546753%)" offset="0.671875"/><stop stop-opacity="1" stop-color="rgb(84.443665%, 48.858643%, 63.887024%)" offset="0.679688"/><stop stop-opacity="1" stop-color="rgb(84.336853%, 48.503113%, 64.227295%)" offset="0.6875"/><stop stop-opacity="1" stop-color="rgb(84.228516%, 48.147583%, 64.567566%)" offset="0.695312"/><stop stop-opacity="1" stop-color="rgb(84.121704%, 47.792053%, 64.907837%)" offset="0.703125"/><stop stop-opacity="1" stop-color="rgb(84.014893%, 47.436523%, 65.248108%)" offset="0.710938"/><stop stop-opacity="1" stop-color="rgb(83.908081%, 47.080994%, 65.586853%)" offset="0.71875"/><stop stop-opacity="1" stop-color="rgb(83.80127%, 46.723938%, 65.927124%)" offset="0.726562"/><stop stop-opacity="1" stop-color="rgb(83.694458%, 46.368408%, 66.267395%)" offset="0.734375"/><stop stop-opacity="1" stop-color="rgb(83.586121%, 46.012878%, 66.607666%)" offset="0.742187"/><stop stop-opacity="1" stop-color="rgb(83.479309%, 45.657349%, 66.947937%)" offset="0.75"/><stop stop-opacity="1" stop-color="rgb(83.372498%, 45.301819%, 67.288208%)" offset="0.757812"/><stop stop-opacity="1" stop-color="rgb(83.265686%, 44.946289%, 67.626953%)" offset="0.765625"/><stop stop-opacity="1" stop-color="rgb(83.158875%, 44.590759%, 67.967224%)" offset="0.773438"/><stop stop-opacity="1" stop-color="rgb(83.050537%, 44.235229%, 68.307495%)" offset="0.78125"/><stop stop-opacity="1" stop-color="rgb(82.943726%, 43.8797%, 68.647766%)" offset="0.789062"/><stop stop-opacity="1" stop-color="rgb(82.836914%, 43.52417%, 68.988037%)" offset="0.796875"/><stop stop-opacity="1" stop-color="rgb(82.730103%, 43.16864%, 69.328308%)" offset="0.804687"/><stop stop-opacity="1" stop-color="rgb(82.623291%, 42.811584%, 69.668579%)" offset="0.8125"/><stop stop-opacity="1" stop-color="rgb(82.514954%, 42.456055%, 70.007324%)" offset="0.820312"/><stop stop-opacity="1" stop-color="rgb(82.408142%, 42.100525%, 70.347595%)" offset="0.828125"/><stop stop-opacity="1" stop-color="rgb(82.301331%, 41.744995%, 70.687866%)" offset="0.835937"/><stop stop-opacity="1" stop-color="rgb(82.194519%, 41.389465%, 71.028137%)" offset="0.84375"/><stop stop-opacity="1" stop-color="rgb(82.087708%, 41.033936%, 71.368408%)" offset="0.851562"/><stop stop-opacity="1" stop-color="rgb(81.980896%, 40.678406%, 71.708679%)" offset="0.859375"/><stop stop-opacity="1" stop-color="rgb(81.872559%, 40.322876%, 72.047424%)" offset="0.867187"/><stop stop-opacity="1" stop-color="rgb(81.765747%, 39.967346%, 72.387695%)" offset="0.875"/><stop stop-opacity="1" stop-color="rgb(81.658936%, 39.611816%, 72.727966%)" offset="0.882812"/><stop stop-opacity="1" stop-color="rgb(81.552124%, 39.256287%, 73.068237%)" offset="0.890625"/><stop stop-opacity="1" stop-color="rgb(81.445312%, 38.900757%, 73.408508%)" offset="0.898437"/><stop stop-opacity="1" stop-color="rgb(81.336975%, 38.543701%, 73.748779%)" offset="0.90625"/><stop stop-opacity="1" stop-color="rgb(81.230164%, 38.188171%, 74.087524%)" offset="0.914062"/><stop stop-opacity="1" stop-color="rgb(81.123352%, 37.832642%, 74.427795%)" offset="0.921875"/><stop stop-opacity="1" stop-color="rgb(81.016541%, 37.477112%, 74.768066%)" offset="0.929688"/><stop stop-opacity="1" stop-color="rgb(80.909729%, 37.121582%, 75.108337%)" offset="0.9375"/><stop stop-opacity="1" stop-color="rgb(80.802917%, 36.766052%, 75.448608%)" offset="0.945312"/><stop stop-opacity="1" stop-color="rgb(80.69458%, 36.410522%, 75.788879%)" offset="0.953125"/><stop stop-opacity="1" stop-color="rgb(80.587769%, 36.054993%, 76.12915%)" offset="0.960937"/><stop stop-opacity="1" stop-color="rgb(80.480957%, 35.699463%, 76.467896%)" offset="0.96875"/><stop stop-opacity="1" stop-color="rgb(80.374146%, 35.343933%, 76.808167%)" offset="0.976562"/><stop stop-opacity="1" stop-color="rgb(80.267334%, 34.988403%, 77.148438%)" offset="0.984375"/><stop stop-opacity="1" stop-color="rgb(80.158997%, 34.631348%, 77.488708%)" offset="0.992187"/><stop stop-opacity="1" stop-color="rgb(80.052185%, 34.275818%, 77.828979%)" offset="1"/></linearGradient></defs><g clip-path="url(#ec90ed8e98)"><g clip-path="url(#beda4b8211)"><path fill="url(#022adbf075)" d="M 130.042969 87.375 L 130.042969 237.335938 L 245.128906 237.335938 L 245.128906 87.375 Z M 130.042969 87.375 " fill-rule="nonzero"/></g></g></svg>